M48
; DRILL file {KiCad 8.0.5} date 2024-11-23T14:45:13-0500
; FORMAT={-:-/ absolute / inch / decimal}
; #@! TF.CreationDate,2024-11-23T14:45:13-05:00
; #@! TF.GenerationSoftware,Kicad,Pcbnew,8.0.5
; #@! TF.FileFunction,Plated,1,4,PTH
FMAT,2
INCH
; #@! TA.AperFunction,Plated,PTH,ViaDrill
T1C0.0118
; #@! TA.AperFunction,Plated,PTH,ComponentDrill
T2C0.0394
; #@! TA.AperFunction,Plated,PTH,ComponentDrill
T3C0.0472
; #@! TA.AperFunction,Plated,PTH,ComponentDrill
T4C0.1181
%
G90
G05
T1
X4.3169Y-3.4341
X4.3307Y-3.7106
X4.3307Y-3.7402
X4.3307Y-3.7795
X4.3621Y-3.561
X4.3701Y-3.9764
X4.3996Y-3.5728
X4.4291Y-3.5728
X4.4587Y-3.8386
X4.4587Y-3.8681
X4.4587Y-3.8976
X4.4685Y-4.124
X4.5669Y-3.7008
X4.5669Y-3.7303
X4.5669Y-3.7598
X4.5669Y-4.4291
X4.5866Y-4.5925
X4.5965Y-3.7205
X4.5965Y-3.75
X4.6063Y-3.5236
X4.6063Y-4.2323
X4.626Y-3.6811
X4.6752Y-3.5531
X4.7146Y-4.2323
X4.7441Y-3.6811
X4.7638Y-4.3799
X4.7638Y-4.4587
X4.7638Y-4.5276
X4.7677Y-3.5404
X4.7805Y-3.8159
X4.7835Y-3.7106
X4.7835Y-3.7402
X4.7835Y-3.7697
X4.8081Y-3.5482
X4.8228Y-3.9764
X4.8425Y-3.5728
X4.872Y-3.5728
X4.9114Y-3.8386
X4.9114Y-3.8681
X4.9114Y-3.8976
X4.9311Y-4.124
X4.9508Y-3.6696
X4.9989Y-4.0463
X5.0295Y-3.7008
X5.0295Y-3.7303
X5.0295Y-3.7598
X5.0295Y-4.439
X5.0591Y-3.7205
X5.0591Y-3.75
X5.0689Y-4.2323
X5.0787Y-3.6516
X5.1181Y-3.4646
X5.1772Y-4.2323
X5.2165Y-3.6811
X5.2264Y-4.3898
X5.2264Y-4.4587
X5.2264Y-4.5276
X5.2657Y-3.7106
X5.3346Y-4.124
X5.374Y-4.124
X5.3937Y-3.563
X5.4134Y-4.124
X5.4429Y-3.5039
X5.4528Y-4.124
X5.4921Y-3.6024
X5.502Y-3.5138
X5.503Y-3.6713
X5.5413Y-3.5728
X5.5413Y-3.7106
X5.5413Y-4.1339
X5.6004Y-4.0157
X5.6004Y-4.065
X5.6102Y-3.5531
X5.6496Y-3.6319
X5.689Y-3.7894
X5.689Y-3.8878
X5.7323Y-4.0246
X5.7461Y-4.1398
X5.7635Y-4.0288
X5.8366Y-4.1398
X5.9154Y-3.4843
X5.9154Y-3.6319
X5.9547Y-4.0453
X5.9547Y-4.1398
X5.9744Y-3.9764
X5.9744Y-4.0157
X6.0728Y-3.4843
X6.0827Y-3.6319
X6.122Y-3.8878
X6.122Y-3.937
X6.1319Y-3.6713
X6.1614Y-3.8878
X6.2598Y-3.8976
X6.2598Y-4.1437
X6.3484Y-3.622
X6.3681Y-3.7992
X6.3878Y-4.1634
X6.3878Y-4.2028
X6.3878Y-4.2421
X6.4075Y-3.563
X6.4075Y-3.7992
X6.437Y-3.4843
X6.4803Y-4.0394
X6.5157Y-4.0472
X6.5669Y-3.7008
X6.6142Y-3.7165
X6.6535Y-3.878
X6.6535Y-4.1929
X6.6732Y-3.9173
X6.6732Y-4.2224
X6.6831Y-3.614
X6.7028Y-3.7795
T2
X6.7807Y-3.4629
X6.7807Y-3.5629
X6.7807Y-3.6629
X6.7807Y-3.7629
X6.7807Y-3.8629
X6.7807Y-3.9629
X6.7807Y-4.0629
X6.7807Y-4.1629
X6.7807Y-4.2629
X6.7807Y-4.3629
X6.8807Y-3.4629
X6.8807Y-3.5629
X6.8807Y-3.6629
X6.8807Y-3.7629
X6.8807Y-3.8629
X6.8807Y-3.9629
X6.8807Y-4.0629
X6.8807Y-4.1629
X6.8807Y-4.2629
X6.8807Y-4.3629
T3
X4.4504Y-3.3143
X4.6004Y-3.3143
X4.9228Y-3.3143
X5.0728Y-3.3143
X5.4028Y-3.3116
X5.5528Y-3.3116
X5.7028Y-3.3116
X5.8528Y-3.3116
X6.1476Y-4.5204
X6.2061Y-3.3143
X6.2976Y-4.5204
X6.3561Y-3.3143
X6.5061Y-3.3143
T4
X4.1339Y-3.2633
X4.1339Y-4.5625
X6.811Y-3.2633
X6.811Y-4.5625
T2
G00X5.4151Y-4.2913
M15
G01X5.4938Y-4.2913
M16
G05
G00X5.4151Y-4.5276
M15
G01X5.4938Y-4.5276
M16
G05
G00X5.6395Y-4.4488
M15
G01X5.6395Y-4.3701
M16
G05
M30
