%TF.GenerationSoftware,KiCad,Pcbnew,8.0.5*%
%TF.CreationDate,2024-11-23T14:45:08-05:00*%
%TF.ProjectId,wesp_card_access,77657370-5f63-4617-9264-5f6163636573,rev?*%
%TF.SameCoordinates,Original*%
%TF.FileFunction,Copper,L4,Bot*%
%TF.FilePolarity,Positive*%
%FSLAX46Y46*%
G04 Gerber Fmt 4.6, Leading zero omitted, Abs format (unit mm)*
G04 Created by KiCad (PCBNEW 8.0.5) date 2024-11-23 14:45:08*
%MOMM*%
%LPD*%
G01*
G04 APERTURE LIST*
G04 Aperture macros list*
%AMRoundRect*
0 Rectangle with rounded corners*
0 $1 Rounding radius*
0 $2 $3 $4 $5 $6 $7 $8 $9 X,Y pos of 4 corners*
0 Add a 4 corners polygon primitive as box body*
4,1,4,$2,$3,$4,$5,$6,$7,$8,$9,$2,$3,0*
0 Add four circle primitives for the rounded corners*
1,1,$1+$1,$2,$3*
1,1,$1+$1,$4,$5*
1,1,$1+$1,$6,$7*
1,1,$1+$1,$8,$9*
0 Add four rect primitives between the rounded corners*
20,1,$1+$1,$2,$3,$4,$5,0*
20,1,$1+$1,$4,$5,$6,$7,0*
20,1,$1+$1,$6,$7,$8,$9,0*
20,1,$1+$1,$8,$9,$2,$3,0*%
G04 Aperture macros list end*
%TA.AperFunction,ComponentPad*%
%ADD10RoundRect,0.250000X-0.650000X-1.550000X0.650000X-1.550000X0.650000X1.550000X-0.650000X1.550000X0*%
%TD*%
%TA.AperFunction,ComponentPad*%
%ADD11O,1.800000X3.600000*%
%TD*%
%TA.AperFunction,ComponentPad*%
%ADD12R,3.500000X3.500000*%
%TD*%
%TA.AperFunction,ComponentPad*%
%ADD13RoundRect,0.750000X1.000000X-0.750000X1.000000X0.750000X-1.000000X0.750000X-1.000000X-0.750000X0*%
%TD*%
%TA.AperFunction,ComponentPad*%
%ADD14RoundRect,0.875000X0.875000X-0.875000X0.875000X0.875000X-0.875000X0.875000X-0.875000X-0.875000X0*%
%TD*%
%TA.AperFunction,ComponentPad*%
%ADD15R,1.700000X1.700000*%
%TD*%
%TA.AperFunction,ComponentPad*%
%ADD16O,1.700000X1.700000*%
%TD*%
%TA.AperFunction,ComponentPad*%
%ADD17C,6.700000*%
%TD*%
%TA.AperFunction,ComponentPad*%
%ADD18RoundRect,0.250000X0.650000X1.550000X-0.650000X1.550000X-0.650000X-1.550000X0.650000X-1.550000X0*%
%TD*%
%TA.AperFunction,ViaPad*%
%ADD19C,0.600000*%
%TD*%
%TA.AperFunction,Conductor*%
%ADD20C,0.200000*%
%TD*%
%TA.AperFunction,Conductor*%
%ADD21C,1.000000*%
%TD*%
G04 APERTURE END LIST*
D10*
%TO.P,J2,1,Pin_1*%
%TO.N,GND*%
X156150000Y-114817500D03*
D11*
%TO.P,J2,2,Pin_2*%
%TO.N,Net-(J2-Pin_2)*%
X159960000Y-114817500D03*
%TD*%
D12*
%TO.P,J6,1*%
%TO.N,Net-(J2-Pin_2)*%
X138542500Y-109000000D03*
D13*
%TO.P,J6,2*%
%TO.N,GND*%
X138542500Y-115000000D03*
D14*
%TO.P,J6,3*%
%TO.N,N/C*%
X143242500Y-112000000D03*
%TD*%
D15*
%TO.P,U1,1,GND*%
%TO.N,GND*%
X174770000Y-110817500D03*
D16*
%TO.P,U1,2,3v3*%
%TO.N,+3V3*%
X172230000Y-110817500D03*
%TO.P,U1,3,IO23*%
%TO.N,unconnected-(U1-IO23-Pad3)*%
X174770000Y-108277500D03*
%TO.P,U1,4,IO36*%
%TO.N,RS485_RE*%
X172230000Y-108277500D03*
%TO.P,U1,5,IO39*%
%TO.N,RS485_RO*%
X174770000Y-105737500D03*
%TO.P,U1,6,IO34*%
%TO.N,WIE_1*%
X172230000Y-105737500D03*
%TO.P,U1,7,IO32*%
%TO.N,unconnected-(U1-IO32-Pad7)*%
X174770000Y-103197500D03*
%TO.P,U1,8,IO35*%
%TO.N,WIE_0*%
X172230000Y-103197500D03*
%TO.P,U1,9,GND*%
%TO.N,GND*%
X174770000Y-100657500D03*
%TO.P,U1,10,IO33*%
%TO.N,RS485_DI*%
X172230000Y-100657500D03*
%TO.P,U1,11,IO18*%
%TO.N,STRIKE_1*%
X174770000Y-98117500D03*
%TO.P,U1,12,IO5*%
%TO.N,Net-(U1-IO5)*%
X172230000Y-98117500D03*
%TO.P,U1,13,IO13*%
%TO.N,STRIKE_0*%
X174770000Y-95577500D03*
%TO.P,U1,14,IO14*%
%TO.N,Net-(U1-IO14)*%
X172230000Y-95577500D03*
%TO.P,U1,15,IO4*%
%TO.N,SCL*%
X174770000Y-93037500D03*
%TO.P,U1,16,IO12*%
%TO.N,RS485_DE*%
X172230000Y-93037500D03*
%TO.P,U1,17,IO15*%
%TO.N,SDA*%
X174770000Y-90497500D03*
%TO.P,U1,18,IO2*%
%TO.N,unconnected-(U1-IO2-Pad18)*%
X172230000Y-90497500D03*
%TO.P,U1,19,GND*%
%TO.N,GND*%
X174770000Y-87957500D03*
%TO.P,U1,20,V+*%
%TO.N,+12V*%
X172230000Y-87957500D03*
D17*
%TO.P,U1,M1*%
%TO.N,N/C*%
X105000000Y-82887500D03*
X105000000Y-115887500D03*
X173000000Y-82887500D03*
X173000000Y-115887500D03*
%TD*%
D18*
%TO.P,J5,1,Pin_1*%
%TO.N,Net-(D4-A)*%
X116850000Y-84182500D03*
D11*
%TO.P,J5,2,Pin_2*%
%TO.N,Net-(J5-Pin_2)*%
X113040000Y-84182500D03*
%TD*%
D18*
%TO.P,J3,1,Pin_1*%
%TO.N,GND*%
X165255000Y-84182500D03*
D11*
%TO.P,J3,2,Pin_2*%
%TO.N,Net-(J3-Pin_2)*%
X161445000Y-84182500D03*
%TO.P,J3,3,Pin_3*%
%TO.N,Net-(J3-Pin_3)*%
X157635000Y-84182500D03*
%TD*%
D18*
%TO.P,J4,1,Pin_1*%
%TO.N,Net-(D3-A)*%
X128850000Y-84182500D03*
D11*
%TO.P,J4,2,Pin_2*%
%TO.N,Net-(J4-Pin_2)*%
X125040000Y-84182500D03*
%TD*%
D18*
%TO.P,J1,1,Pin_1*%
%TO.N,GND*%
X148660000Y-84115000D03*
D11*
%TO.P,J1,2,Pin_2*%
%TO.N,Net-(J1-Pin_2)*%
X144850000Y-84115000D03*
%TO.P,J1,3,Pin_3*%
%TO.N,Net-(J1-Pin_3)*%
X141040000Y-84115000D03*
%TO.P,J1,4,Pin_4*%
%TO.N,Net-(J1-Pin_4)*%
X137230000Y-84115000D03*
%TD*%
D19*
%TO.N,Net-(U1-IO5)*%
X168000000Y-94400000D03*
X165500000Y-102800000D03*
%TO.N,Net-(U1-IO14)*%
X166800000Y-94000000D03*
X164600000Y-102600000D03*
%TO.N,GND*%
X111000000Y-101000000D03*
X163500000Y-88500000D03*
X121000000Y-113250000D03*
X132500000Y-93500000D03*
X116000000Y-94000000D03*
X128750000Y-107500000D03*
X143500000Y-92250000D03*
X116000000Y-95500000D03*
X132750000Y-113250000D03*
X128500000Y-94500000D03*
X151250000Y-105150000D03*
X151250000Y-102750000D03*
X116750000Y-95250000D03*
X122500000Y-101000000D03*
X117000000Y-89500000D03*
X159000000Y-99000000D03*
X154500000Y-92250000D03*
X154250000Y-88500000D03*
X121000000Y-111250000D03*
X128500000Y-95250000D03*
X137000000Y-90500000D03*
X161250000Y-92000000D03*
X138250000Y-89000000D03*
X155500000Y-100000000D03*
X127750000Y-94000000D03*
X116000000Y-94750000D03*
X159000000Y-105250000D03*
X120500000Y-93500000D03*
X130000000Y-88000000D03*
X110796416Y-90448868D03*
X116750000Y-94500000D03*
X122125000Y-90125000D03*
X117000000Y-107500000D03*
X127750000Y-95500000D03*
X155750000Y-93250000D03*
X127750000Y-94750000D03*
X132750000Y-111500000D03*
%TO.N,STRIKE_1*%
X121000000Y-115000000D03*
X169500000Y-99500000D03*
X169500000Y-107250000D03*
%TO.N,STRIKE_0*%
X169000000Y-98500000D03*
X169000000Y-106500000D03*
X132750000Y-115000000D03*
%TO.N,SCL*%
X156500000Y-98750000D03*
X151750000Y-102000000D03*
X162750000Y-96500000D03*
%TO.N,WIE_1*%
X150250000Y-92250000D03*
%TO.N,RS485_DI*%
X169750000Y-91795000D03*
X170250000Y-96000000D03*
%TO.N,WIE_0*%
X150250000Y-88500000D03*
%TO.N,+12V*%
X129000000Y-92750000D03*
X110000000Y-94250000D03*
X136500000Y-104750000D03*
X112500000Y-90750000D03*
X121500000Y-95000000D03*
X127750000Y-112750000D03*
X117500000Y-93500000D03*
X119750000Y-107500000D03*
X131500000Y-107500000D03*
X116000000Y-112500000D03*
X110000000Y-95000000D03*
X137500000Y-104750000D03*
X123000000Y-90750000D03*
X110000000Y-96000000D03*
X162250000Y-106750000D03*
X162250000Y-107750000D03*
X138500000Y-104750000D03*
X135500000Y-104750000D03*
X121500000Y-95750000D03*
X111750000Y-90750000D03*
X121500000Y-94250000D03*
X123750000Y-90750000D03*
X162250000Y-105750000D03*
%TO.N,SDA*%
X151750000Y-101000000D03*
X155500000Y-98750000D03*
X161750000Y-96500000D03*
%TO.N,+3V3*%
X140750000Y-94250000D03*
X133750000Y-94250000D03*
%TO.N,STRIKE_FB0*%
X140750000Y-105000000D03*
X125250000Y-104750000D03*
%TO.N,Net-(D3-A)*%
X124750000Y-99000000D03*
X126972500Y-102775000D03*
X124750000Y-98250000D03*
X124750000Y-97500000D03*
%TO.N,READER_FUSE_FB*%
X144500000Y-96250000D03*
X142500000Y-90250000D03*
X144500000Y-98750000D03*
%TO.N,STRIKE_FB1*%
X142250000Y-102000000D03*
X113500000Y-104750000D03*
%TO.N,Net-(D4-A)*%
X113250000Y-99000000D03*
X113250000Y-98250000D03*
X113250000Y-97500000D03*
%TO.N,12v_fb*%
X162750000Y-90500000D03*
X142250000Y-103250000D03*
%TO.N,Net-(D9-A)*%
X116500000Y-116650000D03*
X109650000Y-87225000D03*
%TO.N,Net-(U4-IN+)*%
X139750000Y-89250000D03*
X139500000Y-91500000D03*
%TO.N,READER_CURRENT*%
X140750000Y-90750000D03*
X139775000Y-93250000D03*
%TO.N,STRIKE_0_CURRENT*%
X125750000Y-93208701D03*
X145600000Y-102225000D03*
%TO.N,STRIKE_1_CURRENT*%
X146392985Y-102330731D03*
X148248527Y-105150000D03*
X145950000Y-105150000D03*
X118750000Y-90250000D03*
%TO.N,Net-(D8-A)*%
X121100000Y-89925000D03*
X121425000Y-96925000D03*
%TD*%
D20*
%TO.N,Net-(U1-IO5)*%
X167700000Y-95300000D02*
X168000000Y-95000000D01*
X165500000Y-97500000D02*
X167700000Y-95300000D01*
X168000000Y-95000000D02*
X168000000Y-94400000D01*
X165500000Y-102800000D02*
X165500000Y-97500000D01*
%TO.N,Net-(U1-IO14)*%
X167000000Y-94800000D02*
X167000000Y-94200000D01*
X164600000Y-102600000D02*
X164600000Y-97200000D01*
X164600000Y-97200000D02*
X167000000Y-94800000D01*
X167000000Y-94200000D02*
X166800000Y-94000000D01*
%TO.N,STRIKE_1*%
X163000000Y-104150000D02*
X167584314Y-104150000D01*
X169600000Y-107150000D02*
X169500000Y-107250000D01*
X167584314Y-104150000D02*
X169600000Y-106165686D01*
X121000000Y-115000000D02*
X123000000Y-113000000D01*
X163000000Y-104150000D02*
X164100000Y-104150000D01*
X173387500Y-99500000D02*
X169500000Y-99500000D01*
X123600000Y-104150000D02*
X163000000Y-104150000D01*
X174770000Y-98117500D02*
X173387500Y-99500000D01*
X123000000Y-113000000D02*
X123000000Y-104750000D01*
X169600000Y-106165686D02*
X169600000Y-107150000D01*
X123000000Y-104750000D02*
X123600000Y-104150000D01*
%TO.N,STRIKE_0*%
X170532500Y-96967500D02*
X169000000Y-98500000D01*
X133401471Y-107098529D02*
X134250000Y-106250000D01*
X134250000Y-106250000D02*
X140750000Y-106250000D01*
X163750000Y-104550000D02*
X167050000Y-104550000D01*
X133401471Y-114348529D02*
X133401471Y-107098529D01*
X167050000Y-104550000D02*
X169000000Y-106500000D01*
X142450000Y-104550000D02*
X163750000Y-104550000D01*
X174770000Y-95577500D02*
X173380000Y-96967500D01*
X173380000Y-96967500D02*
X170532500Y-96967500D01*
X132750000Y-115000000D02*
X133401471Y-114348529D01*
X140750000Y-106250000D02*
X142450000Y-104550000D01*
%TO.N,SCL*%
X157100000Y-98150000D02*
X161100000Y-98150000D01*
X155850000Y-99400000D02*
X154198529Y-99400000D01*
X156250000Y-99000000D02*
X157100000Y-98150000D01*
X161100000Y-98150000D02*
X162750000Y-96500000D01*
X152049264Y-101549265D02*
X152049264Y-101700736D01*
X154198529Y-99400000D02*
X152049264Y-101549265D01*
X156250000Y-99000000D02*
X155850000Y-99400000D01*
X156500000Y-98750000D02*
X156250000Y-99000000D01*
X152049264Y-101700736D02*
X151750000Y-102000000D01*
%TO.N,WIE_1*%
X162350000Y-89650000D02*
X165334314Y-89650000D01*
X169737500Y-105737500D02*
X172230000Y-105737500D01*
X168850000Y-96650000D02*
X167500000Y-98000000D01*
X161600000Y-90400000D02*
X162350000Y-89650000D01*
X168850000Y-93165686D02*
X168850000Y-96650000D01*
X167500000Y-98000000D02*
X167500000Y-103500000D01*
X152100000Y-90400000D02*
X161600000Y-90400000D01*
X150250000Y-92250000D02*
X152100000Y-90400000D01*
X165334314Y-89650000D02*
X168850000Y-93165686D01*
X167500000Y-103500000D02*
X169737500Y-105737500D01*
%TO.N,RS485_DI*%
X169750000Y-91795000D02*
X169750000Y-95500000D01*
X169750000Y-95500000D02*
X170250000Y-96000000D01*
%TO.N,WIE_0*%
X169250000Y-93000000D02*
X169250000Y-96815686D01*
X161250000Y-90000000D02*
X162000000Y-89250000D01*
X162000000Y-89250000D02*
X165500000Y-89250000D01*
X167900000Y-102250000D02*
X168847500Y-103197500D01*
X169250000Y-96815686D02*
X167900000Y-98165686D01*
X150250000Y-88500000D02*
X151750000Y-90000000D01*
X165500000Y-89250000D02*
X169250000Y-93000000D01*
X151750000Y-90000000D02*
X161250000Y-90000000D01*
X167900000Y-98165686D02*
X167900000Y-102250000D01*
X168847500Y-103197500D02*
X172230000Y-103197500D01*
%TO.N,SDA*%
X156500000Y-97750000D02*
X155500000Y-98750000D01*
X160500000Y-97750000D02*
X156500000Y-97750000D01*
X161750000Y-96500000D02*
X160500000Y-97750000D01*
X151750000Y-101000000D02*
X154000000Y-98750000D01*
X154000000Y-98750000D02*
X155500000Y-98750000D01*
D21*
%TO.N,+3V3*%
X140750000Y-94250000D02*
X133750000Y-94250000D01*
D20*
%TO.N,STRIKE_FB0*%
X140250000Y-105500000D02*
X140750000Y-105000000D01*
X133250000Y-104750000D02*
X134000000Y-105500000D01*
X134000000Y-105500000D02*
X140250000Y-105500000D01*
X125250000Y-104750000D02*
X133250000Y-104750000D01*
D21*
%TO.N,Net-(D3-A)*%
X128850000Y-88150000D02*
X128850000Y-84182500D01*
X124750000Y-92250000D02*
X128850000Y-88150000D01*
X124750000Y-99000000D02*
X124750000Y-92250000D01*
D20*
%TO.N,READER_FUSE_FB*%
X144500000Y-96250000D02*
X144500000Y-98750000D01*
%TO.N,STRIKE_FB1*%
X118398529Y-104750000D02*
X120648529Y-102500000D01*
X121250000Y-102500000D02*
X126398971Y-102500000D01*
X142000000Y-101750000D02*
X142250000Y-102000000D01*
X127148971Y-101750000D02*
X141250000Y-101750000D01*
X113500000Y-104750000D02*
X118398529Y-104750000D01*
X141250000Y-101750000D02*
X142000000Y-101750000D01*
X126398971Y-102500000D02*
X127148971Y-101750000D01*
X120648529Y-102500000D02*
X121250000Y-102500000D01*
D21*
%TO.N,Net-(D4-A)*%
X113250000Y-91750000D02*
X116850000Y-88150000D01*
X116850000Y-88150000D02*
X116850000Y-84182500D01*
X113250000Y-99000000D02*
X113250000Y-91750000D01*
D20*
%TO.N,12v_fb*%
X162750000Y-93000000D02*
X162750000Y-90500000D01*
X142250000Y-103250000D02*
X146450000Y-103250000D01*
X148537500Y-97962500D02*
X151000000Y-95500000D01*
X151000000Y-95500000D02*
X160250000Y-95500000D01*
X146450000Y-103250000D02*
X148537500Y-101162500D01*
X160250000Y-95500000D02*
X162750000Y-93000000D01*
X148537500Y-101162500D02*
X148537500Y-97962500D01*
%TO.N,Net-(D9-A)*%
X113375000Y-100800000D02*
X112900000Y-101275000D01*
X109650000Y-87225000D02*
X109650000Y-93051471D01*
X109650000Y-93051471D02*
X112450000Y-95851471D01*
X112450000Y-95851471D02*
X112450000Y-99875000D01*
X112450000Y-99875000D02*
X113375000Y-100800000D01*
X112900000Y-101275000D02*
X112900000Y-113050000D01*
X112900000Y-113050000D02*
X116500000Y-116650000D01*
%TO.N,Net-(U4-IN+)*%
X139500000Y-90250000D02*
X139750000Y-90000000D01*
X139500000Y-91500000D02*
X139500000Y-90250000D01*
X139750000Y-90000000D02*
X139750000Y-89250000D01*
%TO.N,READER_CURRENT*%
X140750000Y-92275000D02*
X140750000Y-90750000D01*
X139775000Y-93250000D02*
X140750000Y-92275000D01*
%TO.N,STRIKE_0_CURRENT*%
X144700000Y-100425000D02*
X145600000Y-101325000D01*
X145600000Y-101325000D02*
X145600000Y-102375000D01*
X140050000Y-100425000D02*
X144700000Y-100425000D01*
X128258701Y-93208701D02*
X135525000Y-100475000D01*
X125750000Y-93208701D02*
X128258701Y-93208701D01*
X135525000Y-100475000D02*
X140000000Y-100475000D01*
X140000000Y-100475000D02*
X140050000Y-100425000D01*
%TO.N,STRIKE_1_CURRENT*%
X144813235Y-102436765D02*
X145201470Y-102825000D01*
X148248527Y-105150000D02*
X145950000Y-105150000D01*
X140800000Y-100950000D02*
X140925000Y-100825000D01*
X143326471Y-100950000D02*
X144813235Y-102436765D01*
X144813235Y-102436765D02*
X145050000Y-102673529D01*
X118750000Y-96401471D02*
X123298529Y-100950000D01*
X140800000Y-100950000D02*
X143326471Y-100950000D01*
X145201470Y-102825000D02*
X145898716Y-102825000D01*
X145898716Y-102825000D02*
X146392985Y-102330731D01*
X128050000Y-100950000D02*
X140800000Y-100950000D01*
X145050000Y-102673529D02*
X145050000Y-102850000D01*
X118750000Y-90250000D02*
X118750000Y-96401471D01*
X123298529Y-100950000D02*
X128050000Y-100950000D01*
%TO.N,Net-(D8-A)*%
X121100000Y-91400000D02*
X122675000Y-92975000D01*
X122675000Y-92975000D02*
X122675000Y-95675000D01*
X121100000Y-89925000D02*
X121100000Y-91400000D01*
X122675000Y-95675000D02*
X121425000Y-96925000D01*
%TD*%
M02*
