%TF.GenerationSoftware,KiCad,Pcbnew,8.0.5*%
%TF.CreationDate,2024-11-24T08:54:10-05:00*%
%TF.ProjectId,wesp_card_access,77657370-5f63-4617-9264-5f6163636573,rev?*%
%TF.SameCoordinates,Original*%
%TF.FileFunction,Copper,L1,Top*%
%TF.FilePolarity,Positive*%
%FSLAX46Y46*%
G04 Gerber Fmt 4.6, Leading zero omitted, Abs format (unit mm)*
G04 Created by KiCad (PCBNEW 8.0.5) date 2024-11-24 08:54:10*
%MOMM*%
%LPD*%
G01*
G04 APERTURE LIST*
G04 Aperture macros list*
%AMRoundRect*
0 Rectangle with rounded corners*
0 $1 Rounding radius*
0 $2 $3 $4 $5 $6 $7 $8 $9 X,Y pos of 4 corners*
0 Add a 4 corners polygon primitive as box body*
4,1,4,$2,$3,$4,$5,$6,$7,$8,$9,$2,$3,0*
0 Add four circle primitives for the rounded corners*
1,1,$1+$1,$2,$3*
1,1,$1+$1,$4,$5*
1,1,$1+$1,$6,$7*
1,1,$1+$1,$8,$9*
0 Add four rect primitives between the rounded corners*
20,1,$1+$1,$2,$3,$4,$5,0*
20,1,$1+$1,$4,$5,$6,$7,0*
20,1,$1+$1,$6,$7,$8,$9,0*
20,1,$1+$1,$8,$9,$2,$3,0*%
%AMFreePoly0*
4,1,6,1.000000,0.000000,0.500000,-0.750000,-0.500000,-0.750000,-0.500000,0.750000,0.500000,0.750000,1.000000,0.000000,1.000000,0.000000,$1*%
%AMFreePoly1*
4,1,6,0.500000,-0.750000,-0.650000,-0.750000,-0.150000,0.000000,-0.650000,0.750000,0.500000,0.750000,0.500000,-0.750000,0.500000,-0.750000,$1*%
G04 Aperture macros list end*
%TA.AperFunction,ComponentPad*%
%ADD10RoundRect,0.250000X-0.650000X-1.550000X0.650000X-1.550000X0.650000X1.550000X-0.650000X1.550000X0*%
%TD*%
%TA.AperFunction,ComponentPad*%
%ADD11O,1.800000X3.600000*%
%TD*%
%TA.AperFunction,ComponentPad*%
%ADD12R,3.500000X3.500000*%
%TD*%
%TA.AperFunction,ComponentPad*%
%ADD13RoundRect,0.750000X1.000000X-0.750000X1.000000X0.750000X-1.000000X0.750000X-1.000000X-0.750000X0*%
%TD*%
%TA.AperFunction,ComponentPad*%
%ADD14RoundRect,0.875000X0.875000X-0.875000X0.875000X0.875000X-0.875000X0.875000X-0.875000X-0.875000X0*%
%TD*%
%TA.AperFunction,SMDPad,CuDef*%
%ADD15RoundRect,0.100000X-0.100000X0.712500X-0.100000X-0.712500X0.100000X-0.712500X0.100000X0.712500X0*%
%TD*%
%TA.AperFunction,SMDPad,CuDef*%
%ADD16RoundRect,0.250000X0.450000X-0.262500X0.450000X0.262500X-0.450000X0.262500X-0.450000X-0.262500X0*%
%TD*%
%TA.AperFunction,SMDPad,CuDef*%
%ADD17RoundRect,0.200000X-0.200000X-0.275000X0.200000X-0.275000X0.200000X0.275000X-0.200000X0.275000X0*%
%TD*%
%TA.AperFunction,SMDPad,CuDef*%
%ADD18RoundRect,0.225000X-0.225000X-0.250000X0.225000X-0.250000X0.225000X0.250000X-0.225000X0.250000X0*%
%TD*%
%TA.AperFunction,SMDPad,CuDef*%
%ADD19RoundRect,0.150000X0.150000X-0.587500X0.150000X0.587500X-0.150000X0.587500X-0.150000X-0.587500X0*%
%TD*%
%TA.AperFunction,SMDPad,CuDef*%
%ADD20RoundRect,0.250000X-0.650000X1.000000X-0.650000X-1.000000X0.650000X-1.000000X0.650000X1.000000X0*%
%TD*%
%TA.AperFunction,ComponentPad*%
%ADD21R,1.700000X1.700000*%
%TD*%
%TA.AperFunction,ComponentPad*%
%ADD22O,1.700000X1.700000*%
%TD*%
%TA.AperFunction,ComponentPad*%
%ADD23C,6.700000*%
%TD*%
%TA.AperFunction,SMDPad,CuDef*%
%ADD24RoundRect,0.200000X0.275000X-0.200000X0.275000X0.200000X-0.275000X0.200000X-0.275000X-0.200000X0*%
%TD*%
%TA.AperFunction,SMDPad,CuDef*%
%ADD25FreePoly0,180.000000*%
%TD*%
%TA.AperFunction,SMDPad,CuDef*%
%ADD26FreePoly1,180.000000*%
%TD*%
%TA.AperFunction,ComponentPad*%
%ADD27RoundRect,0.250000X0.650000X1.550000X-0.650000X1.550000X-0.650000X-1.550000X0.650000X-1.550000X0*%
%TD*%
%TA.AperFunction,SMDPad,CuDef*%
%ADD28RoundRect,0.218750X0.256250X-0.218750X0.256250X0.218750X-0.256250X0.218750X-0.256250X-0.218750X0*%
%TD*%
%TA.AperFunction,SMDPad,CuDef*%
%ADD29RoundRect,0.150000X-0.150000X0.587500X-0.150000X-0.587500X0.150000X-0.587500X0.150000X0.587500X0*%
%TD*%
%TA.AperFunction,SMDPad,CuDef*%
%ADD30R,4.241800X3.810000*%
%TD*%
%TA.AperFunction,SMDPad,CuDef*%
%ADD31RoundRect,0.150000X0.825000X0.150000X-0.825000X0.150000X-0.825000X-0.150000X0.825000X-0.150000X0*%
%TD*%
%TA.AperFunction,SMDPad,CuDef*%
%ADD32RoundRect,0.200000X-0.275000X0.200000X-0.275000X-0.200000X0.275000X-0.200000X0.275000X0.200000X0*%
%TD*%
%TA.AperFunction,SMDPad,CuDef*%
%ADD33RoundRect,0.200000X0.200000X0.275000X-0.200000X0.275000X-0.200000X-0.275000X0.200000X-0.275000X0*%
%TD*%
%TA.AperFunction,SMDPad,CuDef*%
%ADD34RoundRect,0.250000X-0.262500X-0.450000X0.262500X-0.450000X0.262500X0.450000X-0.262500X0.450000X0*%
%TD*%
%TA.AperFunction,SMDPad,CuDef*%
%ADD35RoundRect,0.225000X0.225000X0.250000X-0.225000X0.250000X-0.225000X-0.250000X0.225000X-0.250000X0*%
%TD*%
%TA.AperFunction,SMDPad,CuDef*%
%ADD36RoundRect,0.250000X-1.000000X-0.650000X1.000000X-0.650000X1.000000X0.650000X-1.000000X0.650000X0*%
%TD*%
%TA.AperFunction,SMDPad,CuDef*%
%ADD37RoundRect,0.250000X-0.350000X0.850000X-0.350000X-0.850000X0.350000X-0.850000X0.350000X0.850000X0*%
%TD*%
%TA.AperFunction,SMDPad,CuDef*%
%ADD38RoundRect,0.250000X-1.125000X1.275000X-1.125000X-1.275000X1.125000X-1.275000X1.125000X1.275000X0*%
%TD*%
%TA.AperFunction,SMDPad,CuDef*%
%ADD39RoundRect,0.249997X-2.650003X2.950003X-2.650003X-2.950003X2.650003X-2.950003X2.650003X2.950003X0*%
%TD*%
%TA.AperFunction,SMDPad,CuDef*%
%ADD40RoundRect,0.218750X-0.256250X0.218750X-0.256250X-0.218750X0.256250X-0.218750X0.256250X0.218750X0*%
%TD*%
%TA.AperFunction,SMDPad,CuDef*%
%ADD41RoundRect,0.100000X-0.637500X-0.100000X0.637500X-0.100000X0.637500X0.100000X-0.637500X0.100000X0*%
%TD*%
%TA.AperFunction,SMDPad,CuDef*%
%ADD42R,3.810000X4.241800*%
%TD*%
%TA.AperFunction,ViaPad*%
%ADD43C,0.600000*%
%TD*%
%TA.AperFunction,Conductor*%
%ADD44C,0.200000*%
%TD*%
%TA.AperFunction,Conductor*%
%ADD45C,1.000000*%
%TD*%
G04 APERTURE END LIST*
D10*
%TO.P,J2,1,Pin_1*%
%TO.N,GND*%
X156150000Y-114817500D03*
D11*
%TO.P,J2,2,Pin_2*%
%TO.N,Net-(J2-Pin_2)*%
X159960000Y-114817500D03*
%TD*%
D12*
%TO.P,J6,1*%
%TO.N,Net-(J2-Pin_2)*%
X138542500Y-109000000D03*
D13*
%TO.P,J6,2*%
%TO.N,GND*%
X138542500Y-115000000D03*
D14*
%TO.P,J6,3*%
%TO.N,N/C*%
X143242500Y-112000000D03*
%TD*%
D15*
%TO.P,U6,1,IN-*%
%TO.N,Net-(J5-Pin_2)*%
X116975000Y-87800000D03*
%TO.P,U6,2,GND*%
%TO.N,GND*%
X116325000Y-87800000D03*
%TO.P,U6,3,REF2*%
X115675000Y-87800000D03*
%TO.P,U6,4,NC*%
%TO.N,unconnected-(U6-NC-Pad4)*%
X115025000Y-87800000D03*
%TO.P,U6,5,OUT*%
%TO.N,STRIKE_1_CURRENT*%
X115025000Y-92025000D03*
%TO.P,U6,6,VS*%
%TO.N,+3V3*%
X115675000Y-92025000D03*
%TO.P,U6,7,REF1*%
X116325000Y-92025000D03*
%TO.P,U6,8,IN+*%
%TO.N,+12V*%
X116975000Y-92025000D03*
%TD*%
D16*
%TO.P,R25,1*%
%TO.N,+12V*%
X113000000Y-89325000D03*
%TO.P,R25,2*%
%TO.N,Net-(J5-Pin_2)*%
X113000000Y-87500000D03*
%TD*%
D17*
%TO.P,R23,1*%
%TO.N,12v_fb*%
X167640000Y-88500000D03*
%TO.P,R23,2*%
%TO.N,+12V*%
X169290000Y-88500000D03*
%TD*%
D18*
%TO.P,C5,1*%
%TO.N,Net-(U3-REF)*%
X152975000Y-103000000D03*
%TO.P,C5,2*%
%TO.N,GND*%
X154525000Y-103000000D03*
%TD*%
%TO.P,C4,1*%
%TO.N,+3V3*%
X152975000Y-100000000D03*
%TO.P,C4,2*%
%TO.N,GND*%
X154525000Y-100000000D03*
%TD*%
D19*
%TO.P,Q4,1,B*%
%TO.N,Net-(Q4-B)*%
X129500000Y-111375000D03*
%TO.P,Q4,2,E*%
%TO.N,GND*%
X131400000Y-111375000D03*
%TO.P,Q4,3,C*%
%TO.N,Net-(Q2-B)*%
X130450000Y-109500000D03*
%TD*%
D15*
%TO.P,U5,1,IN-*%
%TO.N,Net-(J4-Pin_2)*%
X128225000Y-87800000D03*
%TO.P,U5,2,GND*%
%TO.N,GND*%
X127575000Y-87800000D03*
%TO.P,U5,3,REF2*%
X126925000Y-87800000D03*
%TO.P,U5,4,NC*%
%TO.N,unconnected-(U5-NC-Pad4)*%
X126275000Y-87800000D03*
%TO.P,U5,5,OUT*%
%TO.N,STRIKE_0_CURRENT*%
X126275000Y-92025000D03*
%TO.P,U5,6,VS*%
%TO.N,+3V3*%
X126925000Y-92025000D03*
%TO.P,U5,7,REF1*%
X127575000Y-92025000D03*
%TO.P,U5,8,IN+*%
%TO.N,+12V*%
X128225000Y-92025000D03*
%TD*%
D20*
%TO.P,D5,1,K*%
%TO.N,+12V*%
X160500000Y-106750000D03*
%TO.P,D5,2,A*%
%TO.N,Net-(D5-A)*%
X160500000Y-110750000D03*
%TD*%
D19*
%TO.P,Q7,1,B*%
%TO.N,Net-(Q2-B)*%
X126000000Y-107500000D03*
%TO.P,Q7,2,E*%
%TO.N,GND*%
X127900000Y-107500000D03*
%TO.P,Q7,3,C*%
%TO.N,Net-(Q2-E)*%
X126950000Y-105625000D03*
%TD*%
D21*
%TO.P,U1,1,GND*%
%TO.N,GND*%
X174770000Y-110817500D03*
D22*
%TO.P,U1,2,3v3*%
%TO.N,+3V3*%
X172230000Y-110817500D03*
%TO.P,U1,3,IO23*%
%TO.N,unconnected-(U1-IO23-Pad3)*%
X174770000Y-108277500D03*
%TO.P,U1,4,IO36*%
%TO.N,RS485_RE*%
X172230000Y-108277500D03*
%TO.P,U1,5,IO39*%
%TO.N,RS485_RO*%
X174770000Y-105737500D03*
%TO.P,U1,6,IO34*%
%TO.N,WIE_1*%
X172230000Y-105737500D03*
%TO.P,U1,7,IO32*%
%TO.N,unconnected-(U1-IO32-Pad7)*%
X174770000Y-103197500D03*
%TO.P,U1,8,IO35*%
%TO.N,WIE_0*%
X172230000Y-103197500D03*
%TO.P,U1,9,GND*%
%TO.N,GND*%
X174770000Y-100657500D03*
%TO.P,U1,10,IO33*%
%TO.N,RS485_DI*%
X172230000Y-100657500D03*
%TO.P,U1,11,IO18*%
%TO.N,STRIKE_1*%
X174770000Y-98117500D03*
%TO.P,U1,12,IO5*%
%TO.N,Net-(U1-IO5)*%
X172230000Y-98117500D03*
%TO.P,U1,13,IO13*%
%TO.N,STRIKE_0*%
X174770000Y-95577500D03*
%TO.P,U1,14,IO14*%
%TO.N,Net-(U1-IO14)*%
X172230000Y-95577500D03*
%TO.P,U1,15,IO4*%
%TO.N,SCL*%
X174770000Y-93037500D03*
%TO.P,U1,16,IO12*%
%TO.N,RS485_DE*%
X172230000Y-93037500D03*
%TO.P,U1,17,IO15*%
%TO.N,SDA*%
X174770000Y-90497500D03*
%TO.P,U1,18,IO2*%
%TO.N,unconnected-(U1-IO2-Pad18)*%
X172230000Y-90497500D03*
%TO.P,U1,19,GND*%
%TO.N,GND*%
X174770000Y-87957500D03*
%TO.P,U1,20,V+*%
%TO.N,+12V*%
X172230000Y-87957500D03*
D23*
%TO.P,U1,M1*%
%TO.N,N/C*%
X105000000Y-82887500D03*
X105000000Y-115887500D03*
X173000000Y-82887500D03*
X173000000Y-115887500D03*
%TD*%
D24*
%TO.P,R16,1*%
%TO.N,STRIKE_FB0*%
X122500000Y-103900000D03*
%TO.P,R16,2*%
%TO.N,GND*%
X122500000Y-102250000D03*
%TD*%
D19*
%TO.P,Q3,1,B*%
%TO.N,Net-(Q3-B)*%
X114300000Y-107500000D03*
%TO.P,Q3,2,E*%
%TO.N,GND*%
X116200000Y-107500000D03*
%TO.P,Q3,3,C*%
%TO.N,Net-(Q3-C)*%
X115250000Y-105625000D03*
%TD*%
D17*
%TO.P,R20,1*%
%TO.N,DC_CONN_FB*%
X156350000Y-105750000D03*
%TO.P,R20,2*%
%TO.N,GND*%
X158000000Y-105750000D03*
%TD*%
D25*
%TO.P,JP1,1,A*%
%TO.N,Net-(JP1-A)*%
X158225000Y-88500000D03*
D26*
%TO.P,JP1,2,B*%
%TO.N,Net-(J3-Pin_3)*%
X156775000Y-88500000D03*
%TD*%
D17*
%TO.P,R11,1*%
%TO.N,SCL*%
X156175000Y-103000000D03*
%TO.P,R11,2*%
%TO.N,+3V3*%
X157825000Y-103000000D03*
%TD*%
D27*
%TO.P,J5,1,Pin_1*%
%TO.N,Net-(D4-A)*%
X116850000Y-84182500D03*
D11*
%TO.P,J5,2,Pin_2*%
%TO.N,Net-(J5-Pin_2)*%
X113040000Y-84182500D03*
%TD*%
D28*
%TO.P,D9,1,K*%
%TO.N,GND*%
X111100000Y-88987500D03*
%TO.P,D9,2,A*%
%TO.N,Net-(D9-A)*%
X111100000Y-87412500D03*
%TD*%
D17*
%TO.P,R30,1*%
%TO.N,Net-(D9-A)*%
X118175000Y-116700000D03*
%TO.P,R30,2*%
%TO.N,STRIKE_1*%
X119825000Y-116700000D03*
%TD*%
D29*
%TO.P,Q2,1,B*%
%TO.N,Net-(Q2-B)*%
X131400000Y-105625000D03*
%TO.P,Q2,2,E*%
%TO.N,Net-(Q2-E)*%
X129500000Y-105625000D03*
%TO.P,Q2,3,C*%
%TO.N,+12V*%
X130450000Y-107500000D03*
%TD*%
D17*
%TO.P,R12,1*%
%TO.N,SDA*%
X156175000Y-101500000D03*
%TO.P,R12,2*%
%TO.N,+3V3*%
X157825000Y-101500000D03*
%TD*%
D27*
%TO.P,J3,1,Pin_1*%
%TO.N,GND*%
X165255000Y-84182500D03*
D11*
%TO.P,J3,2,Pin_2*%
%TO.N,Net-(J3-Pin_2)*%
X161445000Y-84182500D03*
%TO.P,J3,3,Pin_3*%
%TO.N,Net-(J3-Pin_3)*%
X157635000Y-84182500D03*
%TD*%
D18*
%TO.P,C6,1*%
%TO.N,+3V3*%
X118725000Y-92500000D03*
%TO.P,C6,2*%
%TO.N,GND*%
X120275000Y-92500000D03*
%TD*%
D17*
%TO.P,R19,1*%
%TO.N,DC_CONN_FB*%
X153175000Y-105750000D03*
%TO.P,R19,2*%
%TO.N,Net-(J2-Pin_2)*%
X154825000Y-105750000D03*
%TD*%
D30*
%TO.P,F1,1*%
%TO.N,Net-(J2-Pin_2)*%
X149812300Y-109500000D03*
%TO.P,F1,2*%
%TO.N,Net-(D5-A)*%
X156187700Y-109500000D03*
%TD*%
D31*
%TO.P,U2,1,RO*%
%TO.N,RS485_RO*%
X164475000Y-95905000D03*
%TO.P,U2,2,~{RE}*%
%TO.N,RS485_RE*%
X164475000Y-94635000D03*
%TO.P,U2,3,DE*%
%TO.N,RS485_DE*%
X164475000Y-93365000D03*
%TO.P,U2,4,DI*%
%TO.N,RS485_DI*%
X164475000Y-92095000D03*
%TO.P,U2,5,GND*%
%TO.N,GND*%
X159525000Y-92095000D03*
%TO.P,U2,6,A*%
%TO.N,Net-(J3-Pin_3)*%
X159525000Y-93365000D03*
%TO.P,U2,7,B*%
%TO.N,Net-(J3-Pin_2)*%
X159525000Y-94635000D03*
%TO.P,U2,8,VCC*%
%TO.N,+3V3*%
X159525000Y-95905000D03*
%TD*%
D18*
%TO.P,C8,1*%
%TO.N,+3V3*%
X140725000Y-92250000D03*
%TO.P,C8,2*%
%TO.N,GND*%
X142275000Y-92250000D03*
%TD*%
D32*
%TO.P,R27,1*%
%TO.N,Net-(D6-A)*%
X160750000Y-102375000D03*
%TO.P,R27,2*%
%TO.N,Net-(U1-IO14)*%
X160750000Y-104025000D03*
%TD*%
D28*
%TO.P,D8,1,K*%
%TO.N,GND*%
X122375000Y-88962500D03*
%TO.P,D8,2,A*%
%TO.N,Net-(D8-A)*%
X122375000Y-87387500D03*
%TD*%
D16*
%TO.P,R21,1*%
%TO.N,Net-(U4-IN+)*%
X135000000Y-89162500D03*
%TO.P,R21,2*%
%TO.N,Net-(J1-Pin_4)*%
X135000000Y-87337500D03*
%TD*%
D24*
%TO.P,R15,1*%
%TO.N,STRIKE_FB0*%
X124000000Y-103900000D03*
%TO.P,R15,2*%
%TO.N,Net-(D3-A)*%
X124000000Y-102250000D03*
%TD*%
D17*
%TO.P,R9,1*%
%TO.N,Net-(Q8-B)*%
X118145000Y-113250000D03*
%TO.P,R9,2*%
%TO.N,GND*%
X119795000Y-113250000D03*
%TD*%
D27*
%TO.P,J4,1,Pin_1*%
%TO.N,Net-(D3-A)*%
X128850000Y-84182500D03*
D11*
%TO.P,J4,2,Pin_2*%
%TO.N,Net-(J4-Pin_2)*%
X125040000Y-84182500D03*
%TD*%
D33*
%TO.P,R3,1*%
%TO.N,Net-(Q1-G)*%
X127650000Y-109625000D03*
%TO.P,R3,2*%
%TO.N,Net-(Q2-E)*%
X126000000Y-109625000D03*
%TD*%
D24*
%TO.P,R18,1*%
%TO.N,STRIKE_FB1*%
X111010000Y-103825000D03*
%TO.P,R18,2*%
%TO.N,GND*%
X111010000Y-102175000D03*
%TD*%
D32*
%TO.P,R2,1*%
%TO.N,Net-(J1-Pin_2)*%
X145350000Y-87405000D03*
%TO.P,R2,2*%
%TO.N,WIE_0*%
X145350000Y-89055000D03*
%TD*%
D17*
%TO.P,R29,1*%
%TO.N,Net-(D8-A)*%
X129850000Y-116700000D03*
%TO.P,R29,2*%
%TO.N,STRIKE_0*%
X131500000Y-116700000D03*
%TD*%
D34*
%TO.P,R26,1*%
%TO.N,Net-(JP1-A)*%
X160282500Y-88500000D03*
%TO.P,R26,2*%
%TO.N,Net-(J3-Pin_2)*%
X162107500Y-88500000D03*
%TD*%
D29*
%TO.P,Q6,1,B*%
%TO.N,Net-(Q3-B)*%
X119700000Y-105625000D03*
%TO.P,Q6,2,E*%
%TO.N,Net-(Q3-C)*%
X117800000Y-105625000D03*
%TO.P,Q6,3,C*%
%TO.N,+12V*%
X118750000Y-107500000D03*
%TD*%
D35*
%TO.P,C2,1*%
%TO.N,+3V3*%
X157325000Y-96000000D03*
%TO.P,C2,2*%
%TO.N,GND*%
X155775000Y-96000000D03*
%TD*%
D17*
%TO.P,R8,1*%
%TO.N,Net-(Q3-B)*%
X114300000Y-111500000D03*
%TO.P,R8,2*%
%TO.N,+12V*%
X115950000Y-111500000D03*
%TD*%
%TO.P,R4,1*%
%TO.N,Net-(Q2-B)*%
X126000000Y-111500000D03*
%TO.P,R4,2*%
%TO.N,+12V*%
X127650000Y-111500000D03*
%TD*%
D18*
%TO.P,C3,1*%
%TO.N,+3V3*%
X152975000Y-101500000D03*
%TO.P,C3,2*%
%TO.N,GND*%
X154525000Y-101500000D03*
%TD*%
D36*
%TO.P,D2,1,K*%
%TO.N,WIE_1*%
X148500000Y-92250000D03*
%TO.P,D2,2,A*%
%TO.N,GND*%
X152500000Y-92250000D03*
%TD*%
D32*
%TO.P,R1,1*%
%TO.N,Net-(J1-Pin_3)*%
X143750000Y-87425000D03*
%TO.P,R1,2*%
%TO.N,WIE_1*%
X143750000Y-89075000D03*
%TD*%
D20*
%TO.P,D4,1,K*%
%TO.N,+12V*%
X111500000Y-95000000D03*
%TO.P,D4,2,A*%
%TO.N,Net-(D4-A)*%
X111500000Y-99000000D03*
%TD*%
D37*
%TO.P,Q5,1,G*%
%TO.N,Net-(Q5-G)*%
X119255000Y-94800000D03*
D38*
%TO.P,Q5,2,D*%
%TO.N,Net-(D4-A)*%
X118500000Y-99425000D03*
X115450000Y-99425000D03*
D39*
X116975000Y-101100000D03*
D38*
X118500000Y-102775000D03*
X115450000Y-102775000D03*
D37*
%TO.P,Q5,3,S*%
%TO.N,GND*%
X114695000Y-94800000D03*
%TD*%
D32*
%TO.P,R28,1*%
%TO.N,Net-(D7-A)*%
X162290000Y-102385000D03*
%TO.P,R28,2*%
%TO.N,Net-(U1-IO5)*%
X162290000Y-104035000D03*
%TD*%
D40*
%TO.P,D6,1,K*%
%TO.N,GND*%
X160750000Y-99212500D03*
%TO.P,D6,2,A*%
%TO.N,Net-(D6-A)*%
X160750000Y-100787500D03*
%TD*%
D24*
%TO.P,R13,1*%
%TO.N,READER_FUSE_FB*%
X140750000Y-89075000D03*
%TO.P,R13,2*%
%TO.N,GND*%
X140750000Y-87425000D03*
%TD*%
D36*
%TO.P,D1,1,K*%
%TO.N,WIE_0*%
X148500000Y-88500000D03*
%TO.P,D1,2,A*%
%TO.N,GND*%
X152500000Y-88500000D03*
%TD*%
D17*
%TO.P,R10,1*%
%TO.N,Net-(Q8-B)*%
X118145000Y-115000000D03*
%TO.P,R10,2*%
%TO.N,STRIKE_1*%
X119795000Y-115000000D03*
%TD*%
D20*
%TO.P,D3,1,K*%
%TO.N,+12V*%
X123000000Y-95000000D03*
%TO.P,D3,2,A*%
%TO.N,Net-(D3-A)*%
X123000000Y-99000000D03*
%TD*%
D41*
%TO.P,U3,1,CH0*%
%TO.N,READER_FUSE_FB*%
X144000000Y-100500000D03*
%TO.P,U3,2,CH1*%
%TO.N,STRIKE_FB0*%
X144000000Y-101150000D03*
%TO.P,U3,3,CH2*%
%TO.N,STRIKE_FB1*%
X144000000Y-101800000D03*
%TO.P,U3,4,CH3*%
%TO.N,STRIKE_0_CURRENT*%
X144000000Y-102450000D03*
%TO.P,U3,5,CH4*%
%TO.N,DC_CONN_FB*%
X144000000Y-103100000D03*
%TO.P,U3,6,CH5*%
%TO.N,12v_fb*%
X144000000Y-103750000D03*
%TO.P,U3,7,CH6*%
%TO.N,STRIKE_1_CURRENT*%
X144000000Y-104400000D03*
%TO.P,U3,8,CH7*%
%TO.N,READER_CURRENT*%
X144000000Y-105050000D03*
%TO.P,U3,9,GND*%
%TO.N,GND*%
X149725000Y-105050000D03*
%TO.P,U3,10,REF*%
%TO.N,Net-(U3-REF)*%
X149725000Y-104400000D03*
%TO.P,U3,11,COM*%
%TO.N,GND*%
X149725000Y-103750000D03*
%TO.P,U3,12,A0*%
X149725000Y-103100000D03*
%TO.P,U3,13,A1*%
X149725000Y-102450000D03*
%TO.P,U3,14,SCL*%
%TO.N,SCL*%
X149725000Y-101800000D03*
%TO.P,U3,15,SDA*%
%TO.N,SDA*%
X149725000Y-101150000D03*
%TO.P,U3,16,VDD*%
%TO.N,+3V3*%
X149725000Y-100500000D03*
%TD*%
D42*
%TO.P,F2,1*%
%TO.N,Net-(U4-IN+)*%
X137000000Y-95562300D03*
%TO.P,F2,2*%
%TO.N,+12V*%
X137000000Y-101937700D03*
%TD*%
D24*
%TO.P,R17,1*%
%TO.N,STRIKE_FB1*%
X112500000Y-103825000D03*
%TO.P,R17,2*%
%TO.N,Net-(D4-A)*%
X112500000Y-102175000D03*
%TD*%
D16*
%TO.P,R22,1*%
%TO.N,+12V*%
X124250000Y-89325000D03*
%TO.P,R22,2*%
%TO.N,Net-(J4-Pin_2)*%
X124250000Y-87500000D03*
%TD*%
D33*
%TO.P,R7,1*%
%TO.N,Net-(Q5-G)*%
X115950000Y-109500000D03*
%TO.P,R7,2*%
%TO.N,Net-(Q3-C)*%
X114300000Y-109500000D03*
%TD*%
D15*
%TO.P,U4,1,IN-*%
%TO.N,Net-(J1-Pin_4)*%
X138975000Y-87637500D03*
%TO.P,U4,2,GND*%
%TO.N,GND*%
X138325000Y-87637500D03*
%TO.P,U4,3,REF2*%
%TO.N,READER_CURRENT*%
X137675000Y-87637500D03*
%TO.P,U4,4,NC*%
%TO.N,unconnected-(U4-NC-Pad4)*%
X137025000Y-87637500D03*
%TO.P,U4,5,OUT*%
%TO.N,GND*%
X137025000Y-91862500D03*
%TO.P,U4,6,VS*%
%TO.N,+3V3*%
X137675000Y-91862500D03*
%TO.P,U4,7,REF1*%
X138325000Y-91862500D03*
%TO.P,U4,8,IN+*%
%TO.N,Net-(U4-IN+)*%
X138975000Y-91862500D03*
%TD*%
D17*
%TO.P,R5,1*%
%TO.N,Net-(Q4-B)*%
X129845000Y-113250000D03*
%TO.P,R5,2*%
%TO.N,GND*%
X131495000Y-113250000D03*
%TD*%
D33*
%TO.P,R24,1*%
%TO.N,12v_fb*%
X166115000Y-88500000D03*
%TO.P,R24,2*%
%TO.N,GND*%
X164465000Y-88500000D03*
%TD*%
D37*
%TO.P,Q1,1,G*%
%TO.N,Net-(Q1-G)*%
X130777500Y-94800000D03*
D38*
%TO.P,Q1,2,D*%
%TO.N,Net-(D3-A)*%
X130022500Y-99425000D03*
X126972500Y-99425000D03*
D39*
X128497500Y-101100000D03*
D38*
X130022500Y-102775000D03*
X126972500Y-102775000D03*
D37*
%TO.P,Q1,3,S*%
%TO.N,GND*%
X126217500Y-94800000D03*
%TD*%
D17*
%TO.P,R6,1*%
%TO.N,Net-(Q4-B)*%
X129845000Y-115000000D03*
%TO.P,R6,2*%
%TO.N,STRIKE_0*%
X131495000Y-115000000D03*
%TD*%
D18*
%TO.P,C7,1*%
%TO.N,+3V3*%
X129975000Y-92500000D03*
%TO.P,C7,2*%
%TO.N,GND*%
X131525000Y-92500000D03*
%TD*%
D40*
%TO.P,D7,1,K*%
%TO.N,GND*%
X162290000Y-99222500D03*
%TO.P,D7,2,A*%
%TO.N,Net-(D7-A)*%
X162290000Y-100797500D03*
%TD*%
D24*
%TO.P,R14,1*%
%TO.N,READER_FUSE_FB*%
X142260000Y-89075000D03*
%TO.P,R14,2*%
%TO.N,Net-(U4-IN+)*%
X142260000Y-87425000D03*
%TD*%
D27*
%TO.P,J1,1,Pin_1*%
%TO.N,GND*%
X148660000Y-84115000D03*
D11*
%TO.P,J1,2,Pin_2*%
%TO.N,Net-(J1-Pin_2)*%
X144850000Y-84115000D03*
%TO.P,J1,3,Pin_3*%
%TO.N,Net-(J1-Pin_3)*%
X141040000Y-84115000D03*
%TO.P,J1,4,Pin_4*%
%TO.N,Net-(J1-Pin_4)*%
X137230000Y-84115000D03*
%TD*%
D19*
%TO.P,Q8,1,B*%
%TO.N,Net-(Q8-B)*%
X117800000Y-111375000D03*
%TO.P,Q8,2,E*%
%TO.N,GND*%
X119700000Y-111375000D03*
%TO.P,Q8,3,C*%
%TO.N,Net-(Q3-B)*%
X118750000Y-109500000D03*
%TD*%
D35*
%TO.P,C1,1*%
%TO.N,+3V3*%
X157325000Y-94500000D03*
%TO.P,C1,2*%
%TO.N,GND*%
X155775000Y-94500000D03*
%TD*%
D43*
%TO.N,Net-(U1-IO5)*%
X168000000Y-94400000D03*
X165500000Y-102800000D03*
%TO.N,Net-(U1-IO14)*%
X166800000Y-94000000D03*
X164600000Y-102600000D03*
%TO.N,GND*%
X111000000Y-101000000D03*
X163500000Y-88500000D03*
X121000000Y-113250000D03*
X132500000Y-93500000D03*
X116000000Y-94000000D03*
X128750000Y-107500000D03*
X143500000Y-92250000D03*
X116000000Y-95500000D03*
X132750000Y-113250000D03*
X128500000Y-94500000D03*
X151250000Y-105150000D03*
X151250000Y-102750000D03*
X116750000Y-95250000D03*
X122500000Y-101000000D03*
X117000000Y-89500000D03*
X159000000Y-99000000D03*
X154500000Y-92250000D03*
X154250000Y-88500000D03*
X121000000Y-111250000D03*
X128500000Y-95250000D03*
X137000000Y-90500000D03*
X161250000Y-92000000D03*
X138250000Y-89000000D03*
X155500000Y-100000000D03*
X127750000Y-94000000D03*
X116000000Y-94750000D03*
X159000000Y-105250000D03*
X120500000Y-93500000D03*
X130000000Y-88000000D03*
X110796416Y-90448868D03*
X116750000Y-94500000D03*
X122125000Y-90125000D03*
X117000000Y-107500000D03*
X127750000Y-95500000D03*
X155750000Y-93250000D03*
X127750000Y-94750000D03*
X132750000Y-111500000D03*
%TO.N,STRIKE_1*%
X121000000Y-115000000D03*
X169500000Y-99500000D03*
X169500000Y-107250000D03*
%TO.N,STRIKE_0*%
X169000000Y-98500000D03*
X169000000Y-106500000D03*
X132750000Y-115000000D03*
%TO.N,SCL*%
X156500000Y-98750000D03*
X151750000Y-102000000D03*
X162750000Y-96500000D03*
%TO.N,WIE_1*%
X150250000Y-92250000D03*
%TO.N,RS485_DI*%
X169750000Y-91795000D03*
X170250000Y-96000000D03*
%TO.N,WIE_0*%
X150250000Y-88500000D03*
%TO.N,+12V*%
X129000000Y-92750000D03*
X110000000Y-94250000D03*
X136500000Y-104750000D03*
X112500000Y-90750000D03*
X121500000Y-95000000D03*
X127750000Y-112750000D03*
X117500000Y-93500000D03*
X119750000Y-107500000D03*
X131500000Y-107500000D03*
X116000000Y-112500000D03*
X110000000Y-95000000D03*
X137500000Y-104750000D03*
X123000000Y-90750000D03*
X110000000Y-96000000D03*
X162250000Y-106750000D03*
X162250000Y-107750000D03*
X138500000Y-104750000D03*
X135500000Y-104750000D03*
X121500000Y-95750000D03*
X111750000Y-90750000D03*
X121500000Y-94250000D03*
X123750000Y-90750000D03*
X162250000Y-105750000D03*
%TO.N,SDA*%
X151750000Y-101000000D03*
X155500000Y-98750000D03*
X161750000Y-96500000D03*
%TO.N,+3V3*%
X140750000Y-94250000D03*
X133750000Y-94250000D03*
%TO.N,STRIKE_FB0*%
X140750000Y-105000000D03*
X125250000Y-104750000D03*
%TO.N,Net-(D3-A)*%
X124750000Y-99000000D03*
X126972500Y-102775000D03*
X124750000Y-98250000D03*
X124750000Y-97500000D03*
%TO.N,READER_FUSE_FB*%
X144500000Y-96250000D03*
X142500000Y-90250000D03*
X144500000Y-98750000D03*
%TO.N,STRIKE_FB1*%
X142250000Y-102000000D03*
X113500000Y-104750000D03*
%TO.N,Net-(D4-A)*%
X113250000Y-99000000D03*
X113250000Y-98250000D03*
X113250000Y-97500000D03*
%TO.N,12v_fb*%
X162750000Y-90500000D03*
X142250000Y-103250000D03*
%TO.N,Net-(D9-A)*%
X116500000Y-116650000D03*
X109650000Y-87225000D03*
%TO.N,Net-(U4-IN+)*%
X139750000Y-89250000D03*
X139500000Y-91500000D03*
%TO.N,READER_CURRENT*%
X140750000Y-90750000D03*
X139775000Y-93250000D03*
%TO.N,STRIKE_0_CURRENT*%
X125750000Y-93208701D03*
X145600000Y-102225000D03*
%TO.N,STRIKE_1_CURRENT*%
X146392985Y-102330731D03*
X148248527Y-105150000D03*
X145950000Y-105150000D03*
X118750000Y-90250000D03*
%TO.N,Net-(D8-A)*%
X121100000Y-89925000D03*
X121425000Y-96925000D03*
%TD*%
D44*
%TO.N,Net-(U1-IO5)*%
X172230000Y-97230000D02*
X172230000Y-98117500D01*
X168000000Y-94400000D02*
X170000000Y-94400000D01*
X171080000Y-96080000D02*
X172230000Y-97230000D01*
X164265000Y-104035000D02*
X165500000Y-102800000D01*
X170000000Y-94400000D02*
X171080000Y-95480000D01*
X162290000Y-104035000D02*
X164265000Y-104035000D01*
X171080000Y-95480000D02*
X171080000Y-96080000D01*
%TO.N,Net-(U1-IO14)*%
X161525000Y-103250000D02*
X163950000Y-103250000D01*
X172230000Y-95577500D02*
X171400000Y-94747500D01*
X167035000Y-93765000D02*
X166800000Y-94000000D01*
X170965000Y-93765000D02*
X167035000Y-93765000D01*
X171400000Y-94747500D02*
X171400000Y-94200000D01*
X163950000Y-103250000D02*
X164600000Y-102600000D01*
X171400000Y-94200000D02*
X170965000Y-93765000D01*
X160750000Y-104025000D02*
X161525000Y-103250000D01*
%TO.N,GND*%
X127575000Y-87800000D02*
X127575000Y-88612499D01*
X111010000Y-102175000D02*
X111010000Y-101010000D01*
X155775000Y-93275000D02*
X155750000Y-93250000D01*
X149725000Y-102450000D02*
X150950000Y-102450000D01*
X127575000Y-88612499D02*
X127912501Y-88950000D01*
D45*
X127017500Y-94000000D02*
X126217500Y-94800000D01*
X127750000Y-94000000D02*
X128000000Y-94000000D01*
D44*
X127912501Y-88950000D02*
X129300000Y-88950000D01*
X115675000Y-87800000D02*
X115675000Y-88612499D01*
X152500000Y-88500000D02*
X154250000Y-88500000D01*
D45*
X127700000Y-94800000D02*
X127750000Y-94750000D01*
D44*
X149725000Y-105050000D02*
X151150000Y-105050000D01*
D45*
X126217500Y-94800000D02*
X127700000Y-94800000D01*
X128500000Y-95250000D02*
X128500000Y-94500000D01*
D44*
X150900000Y-103100000D02*
X151250000Y-102750000D01*
X150750000Y-103100000D02*
X150900000Y-103100000D01*
D45*
X115495000Y-94000000D02*
X114695000Y-94800000D01*
X114695000Y-94800000D02*
X115950000Y-94800000D01*
D44*
X129300000Y-88950000D02*
X129750000Y-88500000D01*
X154525000Y-103000000D02*
X154525000Y-101500000D01*
X151250000Y-103046813D02*
X151250000Y-102750000D01*
X155775000Y-96000000D02*
X155775000Y-94500000D01*
X140575000Y-87425000D02*
X139000000Y-89000000D01*
X142275000Y-92250000D02*
X143500000Y-92250000D01*
X120275000Y-92500000D02*
X120275000Y-93275000D01*
X116200000Y-107500000D02*
X117000000Y-107500000D01*
X154525000Y-100000000D02*
X155500000Y-100000000D01*
X152500000Y-92250000D02*
X154500000Y-92250000D01*
D45*
X116750000Y-94500000D02*
X116750000Y-95250000D01*
X127750000Y-94000000D02*
X127017500Y-94000000D01*
D44*
X151150000Y-105050000D02*
X151250000Y-105150000D01*
X151196813Y-103100000D02*
X151250000Y-103046813D01*
D45*
X127750000Y-95500000D02*
X128250000Y-95500000D01*
X128250000Y-95500000D02*
X128500000Y-95250000D01*
D44*
X140750000Y-87425000D02*
X140575000Y-87425000D01*
D45*
X115950000Y-94800000D02*
X116000000Y-94750000D01*
D44*
X111100000Y-88987500D02*
X111100000Y-90145284D01*
D45*
X128000000Y-94000000D02*
X128500000Y-94500000D01*
D44*
X161155000Y-92095000D02*
X161250000Y-92000000D01*
X115675000Y-87800000D02*
X116325000Y-87800000D01*
X149725000Y-103750000D02*
X150546813Y-103750000D01*
X122500000Y-102250000D02*
X122500000Y-101000000D01*
X120275000Y-93275000D02*
X120500000Y-93500000D01*
X162290000Y-99222500D02*
X160760000Y-99222500D01*
X120875000Y-111375000D02*
X121000000Y-111250000D01*
X119795000Y-113250000D02*
X121000000Y-113250000D01*
X150546813Y-103750000D02*
X151250000Y-103046813D01*
X150750000Y-103100000D02*
X151196813Y-103100000D01*
X154525000Y-101500000D02*
X154525000Y-100000000D01*
D45*
X116000000Y-95500000D02*
X116500000Y-95500000D01*
X116000000Y-95500000D02*
X115395000Y-95500000D01*
D44*
X115675000Y-88612499D02*
X116562501Y-89500000D01*
D45*
X116500000Y-95500000D02*
X116750000Y-95250000D01*
D44*
X111010000Y-101010000D02*
X111000000Y-101000000D01*
X129750000Y-88500000D02*
X129750000Y-88250000D01*
X159525000Y-92095000D02*
X161155000Y-92095000D01*
X131525000Y-92500000D02*
X131525000Y-92525000D01*
X129750000Y-88250000D02*
X130000000Y-88000000D01*
X158500000Y-105750000D02*
X159000000Y-105250000D01*
X160750000Y-99212500D02*
X159212500Y-99212500D01*
X137025000Y-91862500D02*
X137025000Y-90525000D01*
X149725000Y-103100000D02*
X150750000Y-103100000D01*
X137025000Y-90525000D02*
X137000000Y-90500000D01*
X116562501Y-89500000D02*
X117000000Y-89500000D01*
X150950000Y-102450000D02*
X151250000Y-102750000D01*
X138325000Y-88925000D02*
X138250000Y-89000000D01*
D45*
X127750000Y-95500000D02*
X126917500Y-95500000D01*
X126917500Y-95500000D02*
X126217500Y-94800000D01*
X127750000Y-94000000D02*
X127750000Y-95500000D01*
D44*
X111100000Y-90145284D02*
X110796416Y-90448868D01*
X132625000Y-111375000D02*
X132750000Y-111500000D01*
X131400000Y-111375000D02*
X132625000Y-111375000D01*
X131495000Y-113250000D02*
X132750000Y-113250000D01*
X119700000Y-111375000D02*
X120875000Y-111375000D01*
X127900000Y-107500000D02*
X128750000Y-107500000D01*
X138325000Y-87637500D02*
X138325000Y-88925000D01*
X159212500Y-99212500D02*
X159000000Y-99000000D01*
X122500000Y-89750000D02*
X122125000Y-90125000D01*
X155775000Y-94500000D02*
X155775000Y-93275000D01*
D45*
X116750000Y-94750000D02*
X116000000Y-94000000D01*
X116750000Y-95250000D02*
X116750000Y-94750000D01*
X115395000Y-95500000D02*
X114695000Y-94800000D01*
D44*
X131525000Y-92525000D02*
X132500000Y-93500000D01*
X164465000Y-88500000D02*
X163500000Y-88500000D01*
X127575000Y-87800000D02*
X126925000Y-87800000D01*
X122500000Y-88987500D02*
X122500000Y-89750000D01*
X158000000Y-105750000D02*
X158500000Y-105750000D01*
D45*
X116000000Y-94000000D02*
X115495000Y-94000000D01*
D44*
X160760000Y-99222500D02*
X160750000Y-99212500D01*
X139000000Y-89000000D02*
X138250000Y-89000000D01*
%TO.N,STRIKE_1*%
X119795000Y-115000000D02*
X119795000Y-116670000D01*
X169600000Y-105850000D02*
X169600000Y-107150000D01*
X168650000Y-100350000D02*
X168650000Y-104900000D01*
X169500000Y-99500000D02*
X168650000Y-100350000D01*
X168650000Y-104900000D02*
X169600000Y-105850000D01*
X119795000Y-116670000D02*
X119825000Y-116700000D01*
X119795000Y-115000000D02*
X121000000Y-115000000D01*
X169600000Y-107150000D02*
X169500000Y-107250000D01*
%TO.N,STRIKE_0*%
X168250000Y-105750000D02*
X169000000Y-106500000D01*
X169000000Y-98500000D02*
X168250000Y-99250000D01*
X131495000Y-115000000D02*
X132750000Y-115000000D01*
X131495000Y-116695000D02*
X131500000Y-116700000D01*
X168250000Y-99250000D02*
X168250000Y-105750000D01*
X131495000Y-115000000D02*
X131495000Y-116695000D01*
%TO.N,RS485_DE*%
X170212500Y-93037500D02*
X169885000Y-93365000D01*
X172230000Y-93037500D02*
X170212500Y-93037500D01*
X169885000Y-93365000D02*
X164475000Y-93365000D01*
%TO.N,RS485_RE*%
X167270000Y-95505000D02*
X168755000Y-95505000D01*
X164475000Y-94635000D02*
X166400000Y-94635000D01*
X166400000Y-94635000D02*
X167270000Y-95505000D01*
X170500000Y-97250000D02*
X170500000Y-106547500D01*
X170500000Y-106547500D02*
X172230000Y-108277500D01*
X168755000Y-95505000D02*
X170500000Y-97250000D01*
%TO.N,SCL*%
X156175000Y-103000000D02*
X156875000Y-102300000D01*
X164554448Y-90400000D02*
X163000000Y-91954448D01*
X156875000Y-102300000D02*
X156875000Y-99125000D01*
X162750000Y-96000000D02*
X162750000Y-96500000D01*
X173620000Y-91887500D02*
X171887500Y-91887500D01*
X151750000Y-102000000D02*
X151550000Y-101800000D01*
X163000000Y-91954448D02*
X163000000Y-95750000D01*
X151550000Y-101800000D02*
X149725000Y-101800000D01*
X174770000Y-93037500D02*
X173620000Y-91887500D01*
X170400000Y-90400000D02*
X164834315Y-90400000D01*
X163000000Y-95750000D02*
X162750000Y-96000000D01*
X164834315Y-90400000D02*
X164554448Y-90400000D01*
X156875000Y-99125000D02*
X156500000Y-98750000D01*
X171887500Y-91887500D02*
X170400000Y-90400000D01*
%TO.N,WIE_1*%
X147000000Y-92250000D02*
X146750000Y-92250000D01*
X148500000Y-92250000D02*
X150250000Y-92250000D01*
X143750000Y-89075000D02*
X143750000Y-90250000D01*
X143750000Y-90250000D02*
X145750000Y-92250000D01*
X145750000Y-92250000D02*
X147000000Y-92250000D01*
X148500000Y-92250000D02*
X147000000Y-92250000D01*
%TO.N,RS485_DI*%
X169250000Y-91795000D02*
X169750000Y-91795000D01*
X164475000Y-92095000D02*
X168950000Y-92095000D01*
X171080000Y-99507500D02*
X172230000Y-100657500D01*
X171080000Y-96830000D02*
X171080000Y-99507500D01*
X168950000Y-92095000D02*
X169250000Y-91795000D01*
X170250000Y-96000000D02*
X171080000Y-96830000D01*
%TO.N,WIE_0*%
X147250000Y-88500000D02*
X146695000Y-89055000D01*
X148500000Y-88500000D02*
X150250000Y-88500000D01*
X146695000Y-89055000D02*
X145350000Y-89055000D01*
X148500000Y-88500000D02*
X147250000Y-88500000D01*
D45*
%TO.N,+12V*%
X113000000Y-90250000D02*
X112500000Y-90750000D01*
D44*
X128275000Y-92025000D02*
X129000000Y-92750000D01*
D45*
X112500000Y-90750000D02*
X111750000Y-90750000D01*
D44*
X115950000Y-111500000D02*
X115950000Y-112450000D01*
X169290000Y-88500000D02*
X171687500Y-88500000D01*
D45*
X124250000Y-89325000D02*
X124250000Y-90250000D01*
D44*
X118750000Y-107500000D02*
X119750000Y-107500000D01*
D45*
X121500000Y-94250000D02*
X122250000Y-94250000D01*
D44*
X116975000Y-92975000D02*
X117500000Y-93500000D01*
X127650000Y-112650000D02*
X127750000Y-112750000D01*
X130450000Y-107500000D02*
X131500000Y-107500000D01*
D45*
X122250000Y-95750000D02*
X123000000Y-95000000D01*
X110750000Y-94250000D02*
X111500000Y-95000000D01*
D44*
X115950000Y-112450000D02*
X116000000Y-112500000D01*
X122250000Y-95000000D02*
X121500000Y-94250000D01*
D45*
X160500000Y-106750000D02*
X161250000Y-106750000D01*
X138500000Y-104750000D02*
X137000000Y-103250000D01*
X121500000Y-95750000D02*
X122250000Y-95750000D01*
X135500000Y-104750000D02*
X137000000Y-103250000D01*
D44*
X128225000Y-92025000D02*
X128275000Y-92025000D01*
X123000000Y-95000000D02*
X122250000Y-95000000D01*
D45*
X110000000Y-94250000D02*
X110750000Y-94250000D01*
X161250000Y-106750000D02*
X162250000Y-105750000D01*
D44*
X160500000Y-106750000D02*
X162250000Y-106750000D01*
D45*
X110000000Y-96000000D02*
X110500000Y-96000000D01*
D44*
X127650000Y-111500000D02*
X127650000Y-112650000D01*
D45*
X121500000Y-95000000D02*
X123000000Y-95000000D01*
X110000000Y-95000000D02*
X111500000Y-95000000D01*
X137500000Y-103750000D02*
X137000000Y-103250000D01*
X124250000Y-90250000D02*
X123750000Y-90750000D01*
X162250000Y-106750000D02*
X162250000Y-105750000D01*
D44*
X116975000Y-92025000D02*
X116975000Y-92975000D01*
D45*
X161250000Y-106750000D02*
X162250000Y-107750000D01*
X137000000Y-103250000D02*
X137000000Y-101937700D01*
X110500000Y-96000000D02*
X111500000Y-95000000D01*
X113000000Y-89325000D02*
X113000000Y-90250000D01*
D44*
X171687500Y-88500000D02*
X172230000Y-87957500D01*
D45*
X162250000Y-106750000D02*
X162250000Y-107750000D01*
X136500000Y-104750000D02*
X136500000Y-103750000D01*
X110000000Y-94250000D02*
X110000000Y-96000000D01*
X122250000Y-94250000D02*
X123000000Y-95000000D01*
X136500000Y-103750000D02*
X137000000Y-103250000D01*
X123000000Y-90750000D02*
X123750000Y-90750000D01*
D44*
X122250000Y-95000000D02*
X121500000Y-95750000D01*
D45*
X137500000Y-104750000D02*
X137500000Y-103750000D01*
D44*
%TO.N,SDA*%
X165000000Y-90000000D02*
X164388762Y-90000000D01*
X174770000Y-90497500D02*
X173547500Y-89275000D01*
X149725000Y-101150000D02*
X151600000Y-101150000D01*
X162600000Y-91788762D02*
X162600000Y-93100000D01*
X162600000Y-93100000D02*
X162600000Y-93650000D01*
X161750000Y-94500000D02*
X161750000Y-96500000D01*
X151600000Y-101150000D02*
X151750000Y-101000000D01*
X156175000Y-101500000D02*
X156175000Y-99425000D01*
X164388762Y-90000000D02*
X162600000Y-91788762D01*
X156175000Y-99425000D02*
X155500000Y-98750000D01*
X162600000Y-93650000D02*
X161750000Y-94500000D01*
X169500000Y-90000000D02*
X165000000Y-90000000D01*
X170225000Y-89275000D02*
X169500000Y-90000000D01*
X173547500Y-89275000D02*
X170225000Y-89275000D01*
%TO.N,+3V3*%
X140725000Y-94225000D02*
X140750000Y-94250000D01*
X159430000Y-96000000D02*
X159525000Y-95905000D01*
D45*
X133750000Y-92935618D02*
X133750000Y-94250000D01*
D44*
X139700000Y-90750000D02*
X138750000Y-90750000D01*
D45*
X125450000Y-90747056D02*
X125450000Y-90187930D01*
D44*
X128500000Y-90755956D02*
X128494044Y-90750000D01*
X157500000Y-97500000D02*
X157325000Y-97325000D01*
X137675000Y-91862500D02*
X137675000Y-90575000D01*
X126925000Y-92025000D02*
X126925000Y-91575000D01*
D45*
X130314382Y-89500000D02*
X133750000Y-92935618D01*
D44*
X128494044Y-90750000D02*
X127750000Y-90750000D01*
X157325000Y-97325000D02*
X157325000Y-96000000D01*
D45*
X157500000Y-97500000D02*
X158250000Y-97500000D01*
D44*
X157825000Y-103000000D02*
X157825000Y-101500000D01*
X137750000Y-90500000D02*
X138250000Y-90500000D01*
X115975001Y-90912500D02*
X118162500Y-90912500D01*
D45*
X128500000Y-89750000D02*
X130314382Y-89750000D01*
D44*
X157325000Y-96000000D02*
X159430000Y-96000000D01*
X140725000Y-92250000D02*
X140725000Y-91775000D01*
X151500000Y-100000000D02*
X152975000Y-100000000D01*
D45*
X166500000Y-100500000D02*
X166500000Y-107000000D01*
D44*
X138500000Y-90750000D02*
X138750000Y-90750000D01*
X137675000Y-90575000D02*
X137750000Y-90500000D01*
X157825000Y-97825000D02*
X157500000Y-97500000D01*
X126925000Y-91575000D02*
X127750000Y-90750000D01*
D45*
X144000000Y-97500000D02*
X140750000Y-94250000D01*
D44*
X138325000Y-91131544D02*
X138325000Y-91862500D01*
X127750000Y-90750000D02*
X127575000Y-90925000D01*
D45*
X125450000Y-90187930D02*
X126137930Y-89500000D01*
D44*
X129975000Y-92230956D02*
X128500000Y-90755956D01*
X118725000Y-91475000D02*
X118500000Y-91250000D01*
X138706544Y-90750000D02*
X138325000Y-91131544D01*
D45*
X121000000Y-91250000D02*
X122000000Y-92250000D01*
D44*
X118162500Y-90912500D02*
X118500000Y-91250000D01*
X157325000Y-96000000D02*
X157325000Y-94500000D01*
X152975000Y-97525000D02*
X153000000Y-97500000D01*
X116325000Y-91212501D02*
X116625001Y-90912500D01*
X152975000Y-100000000D02*
X152975000Y-97525000D01*
X149725000Y-100500000D02*
X151000000Y-100500000D01*
D45*
X170317500Y-110817500D02*
X172230000Y-110817500D01*
D44*
X138750000Y-90750000D02*
X138706544Y-90750000D01*
X140725000Y-91775000D02*
X139700000Y-90750000D01*
D45*
X158250000Y-97500000D02*
X163500000Y-97500000D01*
D44*
X118725000Y-92500000D02*
X118725000Y-91475000D01*
D45*
X126137930Y-89750000D02*
X128500000Y-89750000D01*
X153000000Y-97500000D02*
X144000000Y-97500000D01*
D44*
X115675000Y-91212501D02*
X115975001Y-90912500D01*
D45*
X163500000Y-97500000D02*
X166500000Y-100500000D01*
D44*
X127575000Y-90925000D02*
X127575000Y-92025000D01*
D45*
X157500000Y-97500000D02*
X153000000Y-97500000D01*
D44*
X116325000Y-92025000D02*
X116325000Y-91212501D01*
X140725000Y-92250000D02*
X140725000Y-94225000D01*
X151000000Y-100500000D02*
X151500000Y-100000000D01*
D45*
X122000000Y-92250000D02*
X123947056Y-92250000D01*
D44*
X116625001Y-90912500D02*
X118162500Y-90912500D01*
D45*
X118500000Y-91250000D02*
X121000000Y-91250000D01*
D44*
X129975000Y-92500000D02*
X129975000Y-92230956D01*
X115675000Y-92025000D02*
X115675000Y-91212501D01*
D45*
X166500000Y-107000000D02*
X170317500Y-110817500D01*
D44*
X152975000Y-101500000D02*
X152975000Y-100000000D01*
X157825000Y-101500000D02*
X157825000Y-97825000D01*
D45*
X123947056Y-92250000D02*
X125450000Y-90747056D01*
D44*
X158075000Y-97675000D02*
X158250000Y-97500000D01*
X128500000Y-90755956D02*
X128500000Y-89500000D01*
X138250000Y-90500000D02*
X138500000Y-90750000D01*
%TO.N,RS485_RO*%
X171513654Y-109427500D02*
X172822500Y-109427500D01*
X168589314Y-95905000D02*
X170100000Y-97415686D01*
X164475000Y-95905000D02*
X168589314Y-95905000D01*
X173507500Y-107000000D02*
X174770000Y-105737500D01*
X170100000Y-97415686D02*
X170100000Y-108013846D01*
X172822500Y-109427500D02*
X173500000Y-108750000D01*
X173500000Y-107000000D02*
X173507500Y-107000000D01*
X170100000Y-108013846D02*
X171513654Y-109427500D01*
X173500000Y-108750000D02*
X173500000Y-107000000D01*
D45*
%TO.N,Net-(D5-A)*%
X156187700Y-109500000D02*
X159250000Y-109500000D01*
X159250000Y-109500000D02*
X160500000Y-110750000D01*
%TO.N,Net-(J2-Pin_2)*%
X160000000Y-116250000D02*
X158500000Y-117750000D01*
D44*
X146500000Y-109000000D02*
X146500000Y-107500000D01*
D45*
X154250000Y-117750000D02*
X153265792Y-117750000D01*
D44*
X154825000Y-106225000D02*
X154825000Y-105750000D01*
D45*
X158500000Y-117750000D02*
X154250000Y-117750000D01*
X160000000Y-114857500D02*
X160000000Y-115500000D01*
X146500000Y-109000000D02*
X146500000Y-115250000D01*
D44*
X154113800Y-106936200D02*
X154825000Y-106225000D01*
D45*
X149000000Y-117750000D02*
X153265792Y-117750000D01*
X149312300Y-109000000D02*
X149812300Y-109500000D01*
X146500000Y-109000000D02*
X149312300Y-109000000D01*
X159960000Y-114817500D02*
X160000000Y-114857500D01*
X140000000Y-109000000D02*
X146500000Y-109000000D01*
D44*
X147063800Y-106936200D02*
X154113800Y-106936200D01*
D45*
X160000000Y-114857500D02*
X160000000Y-116250000D01*
D44*
X146500000Y-107500000D02*
X147063800Y-106936200D01*
D45*
X146500000Y-115250000D02*
X149000000Y-117750000D01*
D44*
%TO.N,Net-(J1-Pin_4)*%
X138500000Y-86250000D02*
X138975000Y-86725000D01*
X136250000Y-86250000D02*
X138500000Y-86250000D01*
X135000000Y-87337500D02*
X135162500Y-87337500D01*
X135162500Y-87337500D02*
X136250000Y-86250000D01*
D45*
X135000000Y-85500000D02*
X135000000Y-87337500D01*
X136385000Y-84115000D02*
X135000000Y-85500000D01*
X137230000Y-84115000D02*
X136385000Y-84115000D01*
D44*
X138975000Y-86725000D02*
X138975000Y-87637500D01*
%TO.N,STRIKE_FB0*%
X124400000Y-103900000D02*
X125250000Y-104750000D01*
X144000000Y-101150000D02*
X142100000Y-101150000D01*
X140750000Y-102500000D02*
X140750000Y-105000000D01*
X122500000Y-103900000D02*
X124000000Y-103900000D01*
X124000000Y-103900000D02*
X124400000Y-103900000D01*
X142100000Y-101150000D02*
X140750000Y-102500000D01*
%TO.N,Net-(D3-A)*%
X126447500Y-102250000D02*
X126972500Y-102775000D01*
D45*
X123000000Y-99000000D02*
X124750000Y-99000000D01*
X124750000Y-99000000D02*
X126547500Y-99000000D01*
D44*
X124000000Y-102250000D02*
X126447500Y-102250000D01*
D45*
X126547500Y-99000000D02*
X126972500Y-99425000D01*
X124750000Y-99000000D02*
X124750000Y-97500000D01*
D44*
%TO.N,READER_FUSE_FB*%
X142250000Y-100250000D02*
X142500000Y-100500000D01*
X140750000Y-89075000D02*
X142260000Y-89075000D01*
X144500000Y-91750000D02*
X144500000Y-96250000D01*
X144500000Y-98750000D02*
X142750000Y-98750000D01*
X142750000Y-98750000D02*
X142250000Y-99250000D01*
X142250000Y-99250000D02*
X142250000Y-100250000D01*
X142500000Y-100500000D02*
X144000000Y-100500000D01*
X142260000Y-90010000D02*
X142500000Y-90250000D01*
X142260000Y-89075000D02*
X142260000Y-90010000D01*
X142500000Y-90250000D02*
X143000000Y-90250000D01*
X143000000Y-90250000D02*
X144500000Y-91750000D01*
%TO.N,DC_CONN_FB*%
X156000000Y-104500000D02*
X153500000Y-104500000D01*
X153500000Y-104500000D02*
X153175000Y-104825000D01*
X144000000Y-103100000D02*
X146100000Y-103100000D01*
X153175000Y-104825000D02*
X153175000Y-105750000D01*
X152000000Y-106000000D02*
X152250000Y-105750000D01*
X156350000Y-105750000D02*
X156350000Y-104850000D01*
X152250000Y-105750000D02*
X153175000Y-105750000D01*
X147500000Y-105250000D02*
X148250000Y-106000000D01*
X148250000Y-106000000D02*
X152000000Y-106000000D01*
X156350000Y-104850000D02*
X156000000Y-104500000D01*
X147500000Y-104500000D02*
X147500000Y-105250000D01*
X146100000Y-103100000D02*
X147500000Y-104500000D01*
%TO.N,Net-(Q8-B)*%
X117800000Y-111375000D02*
X117800000Y-112050000D01*
X118145000Y-113250000D02*
X118145000Y-115000000D01*
X118145000Y-112395000D02*
X118145000Y-113250000D01*
X117800000Y-112050000D02*
X118145000Y-112395000D01*
%TO.N,Net-(Q5-G)*%
X115950000Y-109500000D02*
X117371948Y-109500000D01*
X117371948Y-109500000D02*
X118409448Y-110537500D01*
X120500000Y-96045000D02*
X119255000Y-94800000D01*
X119159448Y-110537500D02*
X120500000Y-109196948D01*
X118409448Y-110537500D02*
X119159448Y-110537500D01*
X120500000Y-109196948D02*
X120500000Y-96045000D01*
%TO.N,Net-(Q4-B)*%
X129845000Y-112595000D02*
X129845000Y-113250000D01*
X129845000Y-113250000D02*
X129845000Y-115000000D01*
X129500000Y-112250000D02*
X129845000Y-112595000D01*
X129500000Y-111375000D02*
X129500000Y-112250000D01*
%TO.N,Net-(Q2-B)*%
X129750000Y-108800000D02*
X130450000Y-109500000D01*
X126521948Y-107500000D02*
X127135974Y-106885974D01*
X129751526Y-106751526D02*
X129750000Y-106753052D01*
X126750000Y-107271948D02*
X127135974Y-106885974D01*
X128959448Y-106462500D02*
X129248474Y-106751526D01*
X127135974Y-106885974D02*
X127559448Y-106462500D01*
X130878052Y-105625000D02*
X129751526Y-106751526D01*
X126750000Y-110750000D02*
X126750000Y-107271948D01*
X131400000Y-105625000D02*
X130878052Y-105625000D01*
X129248474Y-106751526D02*
X129751526Y-106751526D01*
X129750000Y-106753052D02*
X129750000Y-108800000D01*
X126000000Y-107500000D02*
X126521948Y-107500000D01*
X127559448Y-106462500D02*
X128959448Y-106462500D01*
X126000000Y-111500000D02*
X126750000Y-110750000D01*
%TO.N,Net-(Q2-E)*%
X125250000Y-108875000D02*
X125250000Y-106871948D01*
X126000000Y-109625000D02*
X125250000Y-108875000D01*
X125250000Y-106871948D02*
X126496948Y-105625000D01*
X126950000Y-105625000D02*
X129500000Y-105625000D01*
X126496948Y-105625000D02*
X126950000Y-105625000D01*
%TO.N,Net-(Q1-G)*%
X130859448Y-110537500D02*
X132250000Y-109146948D01*
X129196948Y-109625000D02*
X130109448Y-110537500D01*
X132250000Y-109146948D02*
X132250000Y-96272500D01*
X130109448Y-110537500D02*
X130859448Y-110537500D01*
X127650000Y-109625000D02*
X129196948Y-109625000D01*
X132250000Y-96272500D02*
X130777500Y-94800000D01*
%TO.N,STRIKE_FB1*%
X112500000Y-103825000D02*
X111010000Y-103825000D01*
X142250000Y-102000000D02*
X142450000Y-101800000D01*
X112500000Y-103825000D02*
X112575000Y-103825000D01*
X112575000Y-103825000D02*
X113500000Y-104750000D01*
X142450000Y-101800000D02*
X144000000Y-101800000D01*
%TO.N,Net-(D4-A)*%
X112500000Y-102175000D02*
X114850000Y-102175000D01*
X114850000Y-102175000D02*
X115450000Y-102775000D01*
D45*
X115025000Y-99000000D02*
X115450000Y-99425000D01*
X111500000Y-99000000D02*
X115025000Y-99000000D01*
X113250000Y-99000000D02*
X113250000Y-97500000D01*
D44*
%TO.N,12v_fb*%
X165015000Y-89600000D02*
X164223076Y-89600000D01*
X142250000Y-103250000D02*
X142750000Y-103750000D01*
X166115000Y-88500000D02*
X167640000Y-88500000D01*
X164223076Y-89600000D02*
X163411539Y-90411538D01*
X142750000Y-103750000D02*
X144000000Y-103750000D01*
X162838462Y-90411538D02*
X162750000Y-90500000D01*
X163411539Y-90411538D02*
X162838462Y-90411538D01*
X166115000Y-88500000D02*
X165015000Y-89600000D01*
%TO.N,Net-(D9-A)*%
X116500000Y-116650000D02*
X118125000Y-116650000D01*
X111100000Y-87412500D02*
X109837500Y-87412500D01*
X109837500Y-87412500D02*
X109650000Y-87225000D01*
X118125000Y-116650000D02*
X118175000Y-116700000D01*
%TO.N,Net-(D7-A)*%
X162290000Y-100797500D02*
X162290000Y-102385000D01*
%TO.N,Net-(D6-A)*%
X160750000Y-100787500D02*
X160750000Y-102375000D01*
%TO.N,Net-(U3-REF)*%
X149725000Y-104400000D02*
X150462499Y-104400000D01*
X151862499Y-103000000D02*
X152975000Y-103000000D01*
X150462499Y-104400000D02*
X151862499Y-103000000D01*
%TO.N,Net-(J3-Pin_3)*%
X156775000Y-91589999D02*
X156775000Y-88500000D01*
X156775000Y-88500000D02*
X156775000Y-87225000D01*
X159525000Y-93365000D02*
X158550001Y-93365000D01*
X157635000Y-86365000D02*
X157635000Y-84182500D01*
X156775000Y-87225000D02*
X157635000Y-86365000D01*
X158550001Y-93365000D02*
X156775000Y-91589999D01*
%TO.N,Net-(J3-Pin_2)*%
X162107500Y-87107500D02*
X161445000Y-86445000D01*
X162107500Y-88500000D02*
X162107500Y-87107500D01*
X161850000Y-93285000D02*
X161850000Y-91600000D01*
X161500000Y-90000000D02*
X162107500Y-89392500D01*
X161850000Y-91600000D02*
X161500000Y-91250000D01*
X161445000Y-86445000D02*
X161445000Y-84182500D01*
X160499999Y-94635000D02*
X161567500Y-93567500D01*
X161567500Y-93567500D02*
X161850000Y-93285000D01*
X159525000Y-94635000D02*
X160499999Y-94635000D01*
X161500000Y-91250000D02*
X161500000Y-90000000D01*
X162107500Y-89392500D02*
X162107500Y-88500000D01*
%TO.N,Net-(Q3-B)*%
X115859448Y-106462500D02*
X117212500Y-106462500D01*
X114300000Y-111500000D02*
X115250000Y-110550000D01*
X118081104Y-106721948D02*
X119178052Y-105625000D01*
X115250000Y-107250000D02*
X115160974Y-107160974D01*
X117212500Y-106462500D02*
X117471948Y-106721948D01*
X118081104Y-108209156D02*
X118081104Y-106721948D01*
X117471948Y-106721948D02*
X118081104Y-106721948D01*
X115250000Y-110550000D02*
X115250000Y-107250000D01*
X115160974Y-107160974D02*
X115859448Y-106462500D01*
X119178052Y-105625000D02*
X119700000Y-105625000D01*
X114300000Y-107500000D02*
X114821948Y-107500000D01*
X114821948Y-107500000D02*
X115160974Y-107160974D01*
X118750000Y-108878052D02*
X118081104Y-108209156D01*
X118750000Y-109500000D02*
X118750000Y-108878052D01*
%TO.N,Net-(Q3-C)*%
X115250000Y-105625000D02*
X114796948Y-105625000D01*
X113700000Y-106721948D02*
X113700000Y-108900000D01*
X113700000Y-108900000D02*
X114300000Y-109500000D01*
X117800000Y-105625000D02*
X115250000Y-105625000D01*
X114796948Y-105625000D02*
X113700000Y-106721948D01*
%TO.N,Net-(U4-IN+)*%
X136000000Y-90162500D02*
X135000000Y-89162500D01*
D45*
X135000000Y-92500000D02*
X137000000Y-94500000D01*
D44*
X138975000Y-91862500D02*
X139137500Y-91862500D01*
X138975000Y-92593456D02*
X138568456Y-93000000D01*
X139750000Y-88815686D02*
X139750000Y-89250000D01*
D45*
X137000000Y-94500000D02*
X137000000Y-95562300D01*
D44*
X138975000Y-91862500D02*
X138975000Y-92593456D01*
X138568456Y-93000000D02*
X136750000Y-93000000D01*
X136000000Y-92250000D02*
X136000000Y-90162500D01*
D45*
X135000000Y-89162500D02*
X135000000Y-92500000D01*
D44*
X140500000Y-88375000D02*
X140190686Y-88375000D01*
X136750000Y-93000000D02*
X136000000Y-92250000D01*
X139137500Y-91862500D02*
X139500000Y-91500000D01*
X142260000Y-87425000D02*
X141310000Y-88375000D01*
X141310000Y-88375000D02*
X140500000Y-88375000D01*
X140190686Y-88375000D02*
X139750000Y-88815686D01*
%TO.N,READER_CURRENT*%
X140175000Y-105900000D02*
X139750000Y-105475000D01*
X139800000Y-94600000D02*
X139800000Y-93275000D01*
X140850000Y-101625000D02*
X140850000Y-96400000D01*
X138565685Y-90250000D02*
X140250000Y-90250000D01*
X142025000Y-105775000D02*
X141900000Y-105900000D01*
X139750000Y-105225000D02*
X139750000Y-102725000D01*
X140250000Y-90250000D02*
X140750000Y-90750000D01*
X140850000Y-96400000D02*
X140850000Y-95650000D01*
X140850000Y-95650000D02*
X139800000Y-94600000D01*
X137650000Y-89400000D02*
X137715685Y-89400000D01*
X139750000Y-102725000D02*
X140350000Y-102125000D01*
X139800000Y-93275000D02*
X139775000Y-93250000D01*
X141900000Y-105900000D02*
X140175000Y-105900000D01*
X142750000Y-105050000D02*
X142025000Y-105775000D01*
X137715685Y-89400000D02*
X138565685Y-90250000D01*
X144000000Y-105050000D02*
X142750000Y-105050000D01*
X140350000Y-102125000D02*
X140850000Y-101625000D01*
X139750000Y-105475000D02*
X139750000Y-105225000D01*
X137650000Y-87662500D02*
X137650000Y-89400000D01*
X137675000Y-87637500D02*
X137650000Y-87662500D01*
%TO.N,Net-(J4-Pin_2)*%
X128225000Y-86987501D02*
X127737499Y-86500000D01*
D45*
X124250000Y-87500000D02*
X124250000Y-84972500D01*
X124250000Y-84972500D02*
X125040000Y-84182500D01*
D44*
X128225000Y-87800000D02*
X128225000Y-86987501D01*
X125500000Y-86500000D02*
X124500000Y-87500000D01*
X127737499Y-86500000D02*
X125500000Y-86500000D01*
X124500000Y-87500000D02*
X124250000Y-87500000D01*
%TO.N,Net-(J5-Pin_2)*%
X116750000Y-86500000D02*
X114000000Y-86500000D01*
D45*
X113040000Y-84182500D02*
X113040000Y-87460000D01*
D44*
X116975000Y-86725000D02*
X116750000Y-86500000D01*
X114000000Y-86500000D02*
X113000000Y-87500000D01*
X116975000Y-87800000D02*
X116975000Y-86725000D01*
D45*
X113040000Y-87460000D02*
X113000000Y-87500000D01*
D44*
%TO.N,Net-(J1-Pin_3)*%
X142250000Y-86250000D02*
X143250000Y-86250000D01*
X143250000Y-86250000D02*
X143750000Y-86750000D01*
X141040000Y-85040000D02*
X142250000Y-86250000D01*
X143750000Y-86750000D02*
X143750000Y-87425000D01*
X141040000Y-84115000D02*
X141040000Y-85040000D01*
%TO.N,Net-(J1-Pin_2)*%
X145350000Y-86600000D02*
X145350000Y-87405000D01*
X144850000Y-84115000D02*
X144850000Y-86100000D01*
X144850000Y-86100000D02*
X145350000Y-86600000D01*
%TO.N,STRIKE_0_CURRENT*%
X144000000Y-102450000D02*
X145525000Y-102450000D01*
X145525000Y-102450000D02*
X145600000Y-102375000D01*
X126275000Y-92025000D02*
X126275000Y-92683701D01*
X126275000Y-92025000D02*
X126275000Y-90975000D01*
X126275000Y-92683701D02*
X125750000Y-93208701D01*
X126275000Y-90975000D02*
X126750000Y-90500000D01*
%TO.N,STRIKE_1_CURRENT*%
X115025000Y-91212501D02*
X115987501Y-90250000D01*
X115987501Y-90250000D02*
X118750000Y-90250000D01*
X148248527Y-104186273D02*
X148248527Y-105150000D01*
X145950000Y-105150000D02*
X145200000Y-104400000D01*
X146392985Y-102330731D02*
X148248527Y-104186273D01*
X145200000Y-104400000D02*
X144000000Y-104400000D01*
X115025000Y-92025000D02*
X115025000Y-91212501D01*
%TO.N,Net-(JP1-A)*%
X160282500Y-88500000D02*
X158225000Y-88500000D01*
%TO.N,Net-(D8-A)*%
X121525000Y-97025000D02*
X121425000Y-96925000D01*
X124225000Y-115125000D02*
X124225000Y-113626471D01*
X121525000Y-110926471D02*
X121525000Y-97025000D01*
X125800000Y-116700000D02*
X124225000Y-115125000D01*
X129850000Y-116700000D02*
X125800000Y-116700000D01*
X124225000Y-113626471D02*
X121525000Y-110926471D01*
X121100000Y-88662500D02*
X121100000Y-89925000D01*
X122375000Y-87387500D02*
X121100000Y-88662500D01*
%TD*%
M02*
