%TF.GenerationSoftware,KiCad,Pcbnew,8.0.5*%
%TF.CreationDate,2024-11-24T08:54:10-05:00*%
%TF.ProjectId,wesp_card_access,77657370-5f63-4617-9264-5f6163636573,rev?*%
%TF.SameCoordinates,Original*%
%TF.FileFunction,Legend,Bot*%
%TF.FilePolarity,Positive*%
%FSLAX46Y46*%
G04 Gerber Fmt 4.6, Leading zero omitted, Abs format (unit mm)*
G04 Created by KiCad (PCBNEW 8.0.5) date 2024-11-24 08:54:10*
%MOMM*%
%LPD*%
G01*
G04 APERTURE LIST*
G04 Aperture macros list*
%AMRoundRect*
0 Rectangle with rounded corners*
0 $1 Rounding radius*
0 $2 $3 $4 $5 $6 $7 $8 $9 X,Y pos of 4 corners*
0 Add a 4 corners polygon primitive as box body*
4,1,4,$2,$3,$4,$5,$6,$7,$8,$9,$2,$3,0*
0 Add four circle primitives for the rounded corners*
1,1,$1+$1,$2,$3*
1,1,$1+$1,$4,$5*
1,1,$1+$1,$6,$7*
1,1,$1+$1,$8,$9*
0 Add four rect primitives between the rounded corners*
20,1,$1+$1,$2,$3,$4,$5,0*
20,1,$1+$1,$4,$5,$6,$7,0*
20,1,$1+$1,$6,$7,$8,$9,0*
20,1,$1+$1,$8,$9,$2,$3,0*%
G04 Aperture macros list end*
%ADD10C,0.250000*%
%ADD11C,0.300000*%
%ADD12RoundRect,0.250000X-0.650000X-1.550000X0.650000X-1.550000X0.650000X1.550000X-0.650000X1.550000X0*%
%ADD13O,1.800000X3.600000*%
%ADD14R,3.500000X3.500000*%
%ADD15RoundRect,0.750000X1.000000X-0.750000X1.000000X0.750000X-1.000000X0.750000X-1.000000X-0.750000X0*%
%ADD16RoundRect,0.875000X0.875000X-0.875000X0.875000X0.875000X-0.875000X0.875000X-0.875000X-0.875000X0*%
%ADD17R,1.700000X1.700000*%
%ADD18O,1.700000X1.700000*%
%ADD19C,6.700000*%
%ADD20RoundRect,0.250000X0.650000X1.550000X-0.650000X1.550000X-0.650000X-1.550000X0.650000X-1.550000X0*%
G04 APERTURE END LIST*
D10*
X149421904Y-80662238D02*
X149517142Y-80614619D01*
X149517142Y-80614619D02*
X149659999Y-80614619D01*
X149659999Y-80614619D02*
X149802856Y-80662238D01*
X149802856Y-80662238D02*
X149898094Y-80757476D01*
X149898094Y-80757476D02*
X149945713Y-80852714D01*
X149945713Y-80852714D02*
X149993332Y-81043190D01*
X149993332Y-81043190D02*
X149993332Y-81186047D01*
X149993332Y-81186047D02*
X149945713Y-81376523D01*
X149945713Y-81376523D02*
X149898094Y-81471761D01*
X149898094Y-81471761D02*
X149802856Y-81567000D01*
X149802856Y-81567000D02*
X149659999Y-81614619D01*
X149659999Y-81614619D02*
X149564761Y-81614619D01*
X149564761Y-81614619D02*
X149421904Y-81567000D01*
X149421904Y-81567000D02*
X149374285Y-81519380D01*
X149374285Y-81519380D02*
X149374285Y-81186047D01*
X149374285Y-81186047D02*
X149564761Y-81186047D01*
X148945713Y-81614619D02*
X148945713Y-80614619D01*
X148945713Y-80614619D02*
X148374285Y-81614619D01*
X148374285Y-81614619D02*
X148374285Y-80614619D01*
X147898094Y-81614619D02*
X147898094Y-80614619D01*
X147898094Y-80614619D02*
X147659999Y-80614619D01*
X147659999Y-80614619D02*
X147517142Y-80662238D01*
X147517142Y-80662238D02*
X147421904Y-80757476D01*
X147421904Y-80757476D02*
X147374285Y-80852714D01*
X147374285Y-80852714D02*
X147326666Y-81043190D01*
X147326666Y-81043190D02*
X147326666Y-81186047D01*
X147326666Y-81186047D02*
X147374285Y-81376523D01*
X147374285Y-81376523D02*
X147421904Y-81471761D01*
X147421904Y-81471761D02*
X147517142Y-81567000D01*
X147517142Y-81567000D02*
X147659999Y-81614619D01*
X147659999Y-81614619D02*
X147898094Y-81614619D01*
X118214285Y-87817000D02*
X118071428Y-87864619D01*
X118071428Y-87864619D02*
X117833333Y-87864619D01*
X117833333Y-87864619D02*
X117738095Y-87817000D01*
X117738095Y-87817000D02*
X117690476Y-87769380D01*
X117690476Y-87769380D02*
X117642857Y-87674142D01*
X117642857Y-87674142D02*
X117642857Y-87578904D01*
X117642857Y-87578904D02*
X117690476Y-87483666D01*
X117690476Y-87483666D02*
X117738095Y-87436047D01*
X117738095Y-87436047D02*
X117833333Y-87388428D01*
X117833333Y-87388428D02*
X118023809Y-87340809D01*
X118023809Y-87340809D02*
X118119047Y-87293190D01*
X118119047Y-87293190D02*
X118166666Y-87245571D01*
X118166666Y-87245571D02*
X118214285Y-87150333D01*
X118214285Y-87150333D02*
X118214285Y-87055095D01*
X118214285Y-87055095D02*
X118166666Y-86959857D01*
X118166666Y-86959857D02*
X118119047Y-86912238D01*
X118119047Y-86912238D02*
X118023809Y-86864619D01*
X118023809Y-86864619D02*
X117785714Y-86864619D01*
X117785714Y-86864619D02*
X117642857Y-86912238D01*
X117357142Y-86864619D02*
X116785714Y-86864619D01*
X117071428Y-87864619D02*
X117071428Y-86864619D01*
X115880952Y-87864619D02*
X116214285Y-87388428D01*
X116452380Y-87864619D02*
X116452380Y-86864619D01*
X116452380Y-86864619D02*
X116071428Y-86864619D01*
X116071428Y-86864619D02*
X115976190Y-86912238D01*
X115976190Y-86912238D02*
X115928571Y-86959857D01*
X115928571Y-86959857D02*
X115880952Y-87055095D01*
X115880952Y-87055095D02*
X115880952Y-87197952D01*
X115880952Y-87197952D02*
X115928571Y-87293190D01*
X115928571Y-87293190D02*
X115976190Y-87340809D01*
X115976190Y-87340809D02*
X116071428Y-87388428D01*
X116071428Y-87388428D02*
X116452380Y-87388428D01*
X115452380Y-87864619D02*
X115452380Y-86864619D01*
X114976190Y-87864619D02*
X114976190Y-86864619D01*
X114404762Y-87864619D02*
X114833333Y-87293190D01*
X114404762Y-86864619D02*
X114976190Y-87436047D01*
X113976190Y-87340809D02*
X113642857Y-87340809D01*
X113500000Y-87864619D02*
X113976190Y-87864619D01*
X113976190Y-87864619D02*
X113976190Y-86864619D01*
X113976190Y-86864619D02*
X113500000Y-86864619D01*
X111785714Y-87864619D02*
X112357142Y-87864619D01*
X112071428Y-87864619D02*
X112071428Y-86864619D01*
X112071428Y-86864619D02*
X112166666Y-87007476D01*
X112166666Y-87007476D02*
X112261904Y-87102714D01*
X112261904Y-87102714D02*
X112357142Y-87150333D01*
X146071427Y-86864619D02*
X145833332Y-87864619D01*
X145833332Y-87864619D02*
X145642856Y-87150333D01*
X145642856Y-87150333D02*
X145452380Y-87864619D01*
X145452380Y-87864619D02*
X145214285Y-86864619D01*
X144833332Y-87864619D02*
X144833332Y-86864619D01*
X144357142Y-87340809D02*
X144023809Y-87340809D01*
X143880952Y-87864619D02*
X144357142Y-87864619D01*
X144357142Y-87864619D02*
X144357142Y-86864619D01*
X144357142Y-86864619D02*
X143880952Y-86864619D01*
X142928571Y-86912238D02*
X143023809Y-86864619D01*
X143023809Y-86864619D02*
X143166666Y-86864619D01*
X143166666Y-86864619D02*
X143309523Y-86912238D01*
X143309523Y-86912238D02*
X143404761Y-87007476D01*
X143404761Y-87007476D02*
X143452380Y-87102714D01*
X143452380Y-87102714D02*
X143499999Y-87293190D01*
X143499999Y-87293190D02*
X143499999Y-87436047D01*
X143499999Y-87436047D02*
X143452380Y-87626523D01*
X143452380Y-87626523D02*
X143404761Y-87721761D01*
X143404761Y-87721761D02*
X143309523Y-87817000D01*
X143309523Y-87817000D02*
X143166666Y-87864619D01*
X143166666Y-87864619D02*
X143071428Y-87864619D01*
X143071428Y-87864619D02*
X142928571Y-87817000D01*
X142928571Y-87817000D02*
X142880952Y-87769380D01*
X142880952Y-87769380D02*
X142880952Y-87436047D01*
X142880952Y-87436047D02*
X143071428Y-87436047D01*
X142499999Y-87578904D02*
X142023809Y-87578904D01*
X142595237Y-87864619D02*
X142261904Y-86864619D01*
X142261904Y-86864619D02*
X141928571Y-87864619D01*
X141595237Y-87864619D02*
X141595237Y-86864619D01*
X141595237Y-86864619D02*
X141023809Y-87864619D01*
X141023809Y-87864619D02*
X141023809Y-86864619D01*
X140547618Y-87864619D02*
X140547618Y-86864619D01*
X140547618Y-86864619D02*
X140309523Y-86864619D01*
X140309523Y-86864619D02*
X140166666Y-86912238D01*
X140166666Y-86912238D02*
X140071428Y-87007476D01*
X140071428Y-87007476D02*
X140023809Y-87102714D01*
X140023809Y-87102714D02*
X139976190Y-87293190D01*
X139976190Y-87293190D02*
X139976190Y-87436047D01*
X139976190Y-87436047D02*
X140023809Y-87626523D01*
X140023809Y-87626523D02*
X140071428Y-87721761D01*
X140071428Y-87721761D02*
X140166666Y-87817000D01*
X140166666Y-87817000D02*
X140309523Y-87864619D01*
X140309523Y-87864619D02*
X140547618Y-87864619D01*
X166011904Y-80662238D02*
X166107142Y-80614619D01*
X166107142Y-80614619D02*
X166249999Y-80614619D01*
X166249999Y-80614619D02*
X166392856Y-80662238D01*
X166392856Y-80662238D02*
X166488094Y-80757476D01*
X166488094Y-80757476D02*
X166535713Y-80852714D01*
X166535713Y-80852714D02*
X166583332Y-81043190D01*
X166583332Y-81043190D02*
X166583332Y-81186047D01*
X166583332Y-81186047D02*
X166535713Y-81376523D01*
X166535713Y-81376523D02*
X166488094Y-81471761D01*
X166488094Y-81471761D02*
X166392856Y-81567000D01*
X166392856Y-81567000D02*
X166249999Y-81614619D01*
X166249999Y-81614619D02*
X166154761Y-81614619D01*
X166154761Y-81614619D02*
X166011904Y-81567000D01*
X166011904Y-81567000D02*
X165964285Y-81519380D01*
X165964285Y-81519380D02*
X165964285Y-81186047D01*
X165964285Y-81186047D02*
X166154761Y-81186047D01*
X165535713Y-81614619D02*
X165535713Y-80614619D01*
X165535713Y-80614619D02*
X164964285Y-81614619D01*
X164964285Y-81614619D02*
X164964285Y-80614619D01*
X164488094Y-81614619D02*
X164488094Y-80614619D01*
X164488094Y-80614619D02*
X164249999Y-80614619D01*
X164249999Y-80614619D02*
X164107142Y-80662238D01*
X164107142Y-80662238D02*
X164011904Y-80757476D01*
X164011904Y-80757476D02*
X163964285Y-80852714D01*
X163964285Y-80852714D02*
X163916666Y-81043190D01*
X163916666Y-81043190D02*
X163916666Y-81186047D01*
X163916666Y-81186047D02*
X163964285Y-81376523D01*
X163964285Y-81376523D02*
X164011904Y-81471761D01*
X164011904Y-81471761D02*
X164107142Y-81567000D01*
X164107142Y-81567000D02*
X164249999Y-81614619D01*
X164249999Y-81614619D02*
X164488094Y-81614619D01*
X161368571Y-81090809D02*
X161225714Y-81138428D01*
X161225714Y-81138428D02*
X161178095Y-81186047D01*
X161178095Y-81186047D02*
X161130476Y-81281285D01*
X161130476Y-81281285D02*
X161130476Y-81424142D01*
X161130476Y-81424142D02*
X161178095Y-81519380D01*
X161178095Y-81519380D02*
X161225714Y-81567000D01*
X161225714Y-81567000D02*
X161320952Y-81614619D01*
X161320952Y-81614619D02*
X161701904Y-81614619D01*
X161701904Y-81614619D02*
X161701904Y-80614619D01*
X161701904Y-80614619D02*
X161368571Y-80614619D01*
X161368571Y-80614619D02*
X161273333Y-80662238D01*
X161273333Y-80662238D02*
X161225714Y-80709857D01*
X161225714Y-80709857D02*
X161178095Y-80805095D01*
X161178095Y-80805095D02*
X161178095Y-80900333D01*
X161178095Y-80900333D02*
X161225714Y-80995571D01*
X161225714Y-80995571D02*
X161273333Y-81043190D01*
X161273333Y-81043190D02*
X161368571Y-81090809D01*
X161368571Y-81090809D02*
X161701904Y-81090809D01*
X144897618Y-80614619D02*
X144802380Y-80614619D01*
X144802380Y-80614619D02*
X144707142Y-80662238D01*
X144707142Y-80662238D02*
X144659523Y-80709857D01*
X144659523Y-80709857D02*
X144611904Y-80805095D01*
X144611904Y-80805095D02*
X144564285Y-80995571D01*
X144564285Y-80995571D02*
X144564285Y-81233666D01*
X144564285Y-81233666D02*
X144611904Y-81424142D01*
X144611904Y-81424142D02*
X144659523Y-81519380D01*
X144659523Y-81519380D02*
X144707142Y-81567000D01*
X144707142Y-81567000D02*
X144802380Y-81614619D01*
X144802380Y-81614619D02*
X144897618Y-81614619D01*
X144897618Y-81614619D02*
X144992856Y-81567000D01*
X144992856Y-81567000D02*
X145040475Y-81519380D01*
X145040475Y-81519380D02*
X145088094Y-81424142D01*
X145088094Y-81424142D02*
X145135713Y-81233666D01*
X145135713Y-81233666D02*
X145135713Y-80995571D01*
X145135713Y-80995571D02*
X145088094Y-80805095D01*
X145088094Y-80805095D02*
X145040475Y-80709857D01*
X145040475Y-80709857D02*
X144992856Y-80662238D01*
X144992856Y-80662238D02*
X144897618Y-80614619D01*
D11*
X124254510Y-81020600D02*
X125397368Y-81020600D01*
X124825939Y-80449171D02*
X124825939Y-81592028D01*
X128397367Y-81020600D02*
X129540225Y-81020600D01*
D10*
X137801428Y-81614619D02*
X138372856Y-81614619D01*
X138087142Y-81614619D02*
X138087142Y-80614619D01*
X138087142Y-80614619D02*
X138182380Y-80757476D01*
X138182380Y-80757476D02*
X138277618Y-80852714D01*
X138277618Y-80852714D02*
X138372856Y-80900333D01*
X137420475Y-80709857D02*
X137372856Y-80662238D01*
X137372856Y-80662238D02*
X137277618Y-80614619D01*
X137277618Y-80614619D02*
X137039523Y-80614619D01*
X137039523Y-80614619D02*
X136944285Y-80662238D01*
X136944285Y-80662238D02*
X136896666Y-80709857D01*
X136896666Y-80709857D02*
X136849047Y-80805095D01*
X136849047Y-80805095D02*
X136849047Y-80900333D01*
X136849047Y-80900333D02*
X136896666Y-81043190D01*
X136896666Y-81043190D02*
X137468094Y-81614619D01*
X137468094Y-81614619D02*
X136849047Y-81614619D01*
X136515713Y-80947952D02*
X136277618Y-81614619D01*
X136277618Y-81614619D02*
X136039523Y-80947952D01*
X130214285Y-87817000D02*
X130071428Y-87864619D01*
X130071428Y-87864619D02*
X129833333Y-87864619D01*
X129833333Y-87864619D02*
X129738095Y-87817000D01*
X129738095Y-87817000D02*
X129690476Y-87769380D01*
X129690476Y-87769380D02*
X129642857Y-87674142D01*
X129642857Y-87674142D02*
X129642857Y-87578904D01*
X129642857Y-87578904D02*
X129690476Y-87483666D01*
X129690476Y-87483666D02*
X129738095Y-87436047D01*
X129738095Y-87436047D02*
X129833333Y-87388428D01*
X129833333Y-87388428D02*
X130023809Y-87340809D01*
X130023809Y-87340809D02*
X130119047Y-87293190D01*
X130119047Y-87293190D02*
X130166666Y-87245571D01*
X130166666Y-87245571D02*
X130214285Y-87150333D01*
X130214285Y-87150333D02*
X130214285Y-87055095D01*
X130214285Y-87055095D02*
X130166666Y-86959857D01*
X130166666Y-86959857D02*
X130119047Y-86912238D01*
X130119047Y-86912238D02*
X130023809Y-86864619D01*
X130023809Y-86864619D02*
X129785714Y-86864619D01*
X129785714Y-86864619D02*
X129642857Y-86912238D01*
X129357142Y-86864619D02*
X128785714Y-86864619D01*
X129071428Y-87864619D02*
X129071428Y-86864619D01*
X127880952Y-87864619D02*
X128214285Y-87388428D01*
X128452380Y-87864619D02*
X128452380Y-86864619D01*
X128452380Y-86864619D02*
X128071428Y-86864619D01*
X128071428Y-86864619D02*
X127976190Y-86912238D01*
X127976190Y-86912238D02*
X127928571Y-86959857D01*
X127928571Y-86959857D02*
X127880952Y-87055095D01*
X127880952Y-87055095D02*
X127880952Y-87197952D01*
X127880952Y-87197952D02*
X127928571Y-87293190D01*
X127928571Y-87293190D02*
X127976190Y-87340809D01*
X127976190Y-87340809D02*
X128071428Y-87388428D01*
X128071428Y-87388428D02*
X128452380Y-87388428D01*
X127452380Y-87864619D02*
X127452380Y-86864619D01*
X126976190Y-87864619D02*
X126976190Y-86864619D01*
X126404762Y-87864619D02*
X126833333Y-87293190D01*
X126404762Y-86864619D02*
X126976190Y-87436047D01*
X125976190Y-87340809D02*
X125642857Y-87340809D01*
X125500000Y-87864619D02*
X125976190Y-87864619D01*
X125976190Y-87864619D02*
X125976190Y-86864619D01*
X125976190Y-86864619D02*
X125500000Y-86864619D01*
X124119047Y-86864619D02*
X124023809Y-86864619D01*
X124023809Y-86864619D02*
X123928571Y-86912238D01*
X123928571Y-86912238D02*
X123880952Y-86959857D01*
X123880952Y-86959857D02*
X123833333Y-87055095D01*
X123833333Y-87055095D02*
X123785714Y-87245571D01*
X123785714Y-87245571D02*
X123785714Y-87483666D01*
X123785714Y-87483666D02*
X123833333Y-87674142D01*
X123833333Y-87674142D02*
X123880952Y-87769380D01*
X123880952Y-87769380D02*
X123928571Y-87817000D01*
X123928571Y-87817000D02*
X124023809Y-87864619D01*
X124023809Y-87864619D02*
X124119047Y-87864619D01*
X124119047Y-87864619D02*
X124214285Y-87817000D01*
X124214285Y-87817000D02*
X124261904Y-87769380D01*
X124261904Y-87769380D02*
X124309523Y-87674142D01*
X124309523Y-87674142D02*
X124357142Y-87483666D01*
X124357142Y-87483666D02*
X124357142Y-87245571D01*
X124357142Y-87245571D02*
X124309523Y-87055095D01*
X124309523Y-87055095D02*
X124261904Y-86959857D01*
X124261904Y-86959857D02*
X124214285Y-86912238D01*
X124214285Y-86912238D02*
X124119047Y-86864619D01*
X157868094Y-81328904D02*
X157391904Y-81328904D01*
X157963332Y-81614619D02*
X157629999Y-80614619D01*
X157629999Y-80614619D02*
X157296666Y-81614619D01*
X157428571Y-101784787D02*
X157238095Y-101784787D01*
X157238095Y-101784787D02*
X157142857Y-101832406D01*
X157142857Y-101832406D02*
X157047619Y-101927644D01*
X157047619Y-101927644D02*
X157000000Y-102118120D01*
X157000000Y-102118120D02*
X157000000Y-102451453D01*
X157000000Y-102451453D02*
X157047619Y-102641929D01*
X157047619Y-102641929D02*
X157142857Y-102737168D01*
X157142857Y-102737168D02*
X157238095Y-102784787D01*
X157238095Y-102784787D02*
X157428571Y-102784787D01*
X157428571Y-102784787D02*
X157523809Y-102737168D01*
X157523809Y-102737168D02*
X157619047Y-102641929D01*
X157619047Y-102641929D02*
X157666666Y-102451453D01*
X157666666Y-102451453D02*
X157666666Y-102118120D01*
X157666666Y-102118120D02*
X157619047Y-101927644D01*
X157619047Y-101927644D02*
X157523809Y-101832406D01*
X157523809Y-101832406D02*
X157428571Y-101784787D01*
X156571428Y-102118120D02*
X156571428Y-103118120D01*
X156571428Y-102165739D02*
X156476190Y-102118120D01*
X156476190Y-102118120D02*
X156285714Y-102118120D01*
X156285714Y-102118120D02*
X156190476Y-102165739D01*
X156190476Y-102165739D02*
X156142857Y-102213358D01*
X156142857Y-102213358D02*
X156095238Y-102308596D01*
X156095238Y-102308596D02*
X156095238Y-102594310D01*
X156095238Y-102594310D02*
X156142857Y-102689548D01*
X156142857Y-102689548D02*
X156190476Y-102737168D01*
X156190476Y-102737168D02*
X156285714Y-102784787D01*
X156285714Y-102784787D02*
X156476190Y-102784787D01*
X156476190Y-102784787D02*
X156571428Y-102737168D01*
X155809523Y-102118120D02*
X155428571Y-102118120D01*
X155666666Y-101784787D02*
X155666666Y-102641929D01*
X155666666Y-102641929D02*
X155619047Y-102737168D01*
X155619047Y-102737168D02*
X155523809Y-102784787D01*
X155523809Y-102784787D02*
X155428571Y-102784787D01*
X155095237Y-102784787D02*
X155095237Y-102118120D01*
X155095237Y-101784787D02*
X155142856Y-101832406D01*
X155142856Y-101832406D02*
X155095237Y-101880025D01*
X155095237Y-101880025D02*
X155047618Y-101832406D01*
X155047618Y-101832406D02*
X155095237Y-101784787D01*
X155095237Y-101784787D02*
X155095237Y-101880025D01*
X154476190Y-102784787D02*
X154571428Y-102737168D01*
X154571428Y-102737168D02*
X154619047Y-102689548D01*
X154619047Y-102689548D02*
X154666666Y-102594310D01*
X154666666Y-102594310D02*
X154666666Y-102308596D01*
X154666666Y-102308596D02*
X154619047Y-102213358D01*
X154619047Y-102213358D02*
X154571428Y-102165739D01*
X154571428Y-102165739D02*
X154476190Y-102118120D01*
X154476190Y-102118120D02*
X154333333Y-102118120D01*
X154333333Y-102118120D02*
X154238095Y-102165739D01*
X154238095Y-102165739D02*
X154190476Y-102213358D01*
X154190476Y-102213358D02*
X154142857Y-102308596D01*
X154142857Y-102308596D02*
X154142857Y-102594310D01*
X154142857Y-102594310D02*
X154190476Y-102689548D01*
X154190476Y-102689548D02*
X154238095Y-102737168D01*
X154238095Y-102737168D02*
X154333333Y-102784787D01*
X154333333Y-102784787D02*
X154476190Y-102784787D01*
X153714285Y-102118120D02*
X153714285Y-102784787D01*
X153714285Y-102213358D02*
X153666666Y-102165739D01*
X153666666Y-102165739D02*
X153571428Y-102118120D01*
X153571428Y-102118120D02*
X153428571Y-102118120D01*
X153428571Y-102118120D02*
X153333333Y-102165739D01*
X153333333Y-102165739D02*
X153285714Y-102260977D01*
X153285714Y-102260977D02*
X153285714Y-102784787D01*
X152380952Y-102784787D02*
X152380952Y-102260977D01*
X152380952Y-102260977D02*
X152428571Y-102165739D01*
X152428571Y-102165739D02*
X152523809Y-102118120D01*
X152523809Y-102118120D02*
X152714285Y-102118120D01*
X152714285Y-102118120D02*
X152809523Y-102165739D01*
X152380952Y-102737168D02*
X152476190Y-102784787D01*
X152476190Y-102784787D02*
X152714285Y-102784787D01*
X152714285Y-102784787D02*
X152809523Y-102737168D01*
X152809523Y-102737168D02*
X152857142Y-102641929D01*
X152857142Y-102641929D02*
X152857142Y-102546691D01*
X152857142Y-102546691D02*
X152809523Y-102451453D01*
X152809523Y-102451453D02*
X152714285Y-102403834D01*
X152714285Y-102403834D02*
X152476190Y-102403834D01*
X152476190Y-102403834D02*
X152380952Y-102356215D01*
X151761904Y-102784787D02*
X151857142Y-102737168D01*
X151857142Y-102737168D02*
X151904761Y-102641929D01*
X151904761Y-102641929D02*
X151904761Y-101784787D01*
X150619046Y-102784787D02*
X150619046Y-101784787D01*
X150619046Y-101784787D02*
X150238094Y-101784787D01*
X150238094Y-101784787D02*
X150142856Y-101832406D01*
X150142856Y-101832406D02*
X150095237Y-101880025D01*
X150095237Y-101880025D02*
X150047618Y-101975263D01*
X150047618Y-101975263D02*
X150047618Y-102118120D01*
X150047618Y-102118120D02*
X150095237Y-102213358D01*
X150095237Y-102213358D02*
X150142856Y-102260977D01*
X150142856Y-102260977D02*
X150238094Y-102308596D01*
X150238094Y-102308596D02*
X150619046Y-102308596D01*
X149476189Y-102784787D02*
X149571427Y-102737168D01*
X149571427Y-102737168D02*
X149619046Y-102689548D01*
X149619046Y-102689548D02*
X149666665Y-102594310D01*
X149666665Y-102594310D02*
X149666665Y-102308596D01*
X149666665Y-102308596D02*
X149619046Y-102213358D01*
X149619046Y-102213358D02*
X149571427Y-102165739D01*
X149571427Y-102165739D02*
X149476189Y-102118120D01*
X149476189Y-102118120D02*
X149333332Y-102118120D01*
X149333332Y-102118120D02*
X149238094Y-102165739D01*
X149238094Y-102165739D02*
X149190475Y-102213358D01*
X149190475Y-102213358D02*
X149142856Y-102308596D01*
X149142856Y-102308596D02*
X149142856Y-102594310D01*
X149142856Y-102594310D02*
X149190475Y-102689548D01*
X149190475Y-102689548D02*
X149238094Y-102737168D01*
X149238094Y-102737168D02*
X149333332Y-102784787D01*
X149333332Y-102784787D02*
X149476189Y-102784787D01*
X148809522Y-102118120D02*
X148619046Y-102784787D01*
X148619046Y-102784787D02*
X148428570Y-102308596D01*
X148428570Y-102308596D02*
X148238094Y-102784787D01*
X148238094Y-102784787D02*
X148047618Y-102118120D01*
X147285713Y-102737168D02*
X147380951Y-102784787D01*
X147380951Y-102784787D02*
X147571427Y-102784787D01*
X147571427Y-102784787D02*
X147666665Y-102737168D01*
X147666665Y-102737168D02*
X147714284Y-102641929D01*
X147714284Y-102641929D02*
X147714284Y-102260977D01*
X147714284Y-102260977D02*
X147666665Y-102165739D01*
X147666665Y-102165739D02*
X147571427Y-102118120D01*
X147571427Y-102118120D02*
X147380951Y-102118120D01*
X147380951Y-102118120D02*
X147285713Y-102165739D01*
X147285713Y-102165739D02*
X147238094Y-102260977D01*
X147238094Y-102260977D02*
X147238094Y-102356215D01*
X147238094Y-102356215D02*
X147714284Y-102451453D01*
X146809522Y-102784787D02*
X146809522Y-102118120D01*
X146809522Y-102308596D02*
X146761903Y-102213358D01*
X146761903Y-102213358D02*
X146714284Y-102165739D01*
X146714284Y-102165739D02*
X146619046Y-102118120D01*
X146619046Y-102118120D02*
X146523808Y-102118120D01*
X145428569Y-102784787D02*
X145428569Y-101784787D01*
X144952379Y-102784787D02*
X144952379Y-101784787D01*
X144952379Y-101784787D02*
X144380951Y-102784787D01*
X144380951Y-102784787D02*
X144380951Y-101784787D01*
X151571428Y-104394731D02*
X152142856Y-104394731D01*
X151857142Y-104394731D02*
X151857142Y-103394731D01*
X151857142Y-103394731D02*
X151952380Y-103537588D01*
X151952380Y-103537588D02*
X152047618Y-103632826D01*
X152047618Y-103632826D02*
X152142856Y-103680445D01*
X151190475Y-103489969D02*
X151142856Y-103442350D01*
X151142856Y-103442350D02*
X151047618Y-103394731D01*
X151047618Y-103394731D02*
X150809523Y-103394731D01*
X150809523Y-103394731D02*
X150714285Y-103442350D01*
X150714285Y-103442350D02*
X150666666Y-103489969D01*
X150666666Y-103489969D02*
X150619047Y-103585207D01*
X150619047Y-103585207D02*
X150619047Y-103680445D01*
X150619047Y-103680445D02*
X150666666Y-103823302D01*
X150666666Y-103823302D02*
X151238094Y-104394731D01*
X151238094Y-104394731D02*
X150619047Y-104394731D01*
X150285713Y-103728064D02*
X150047618Y-104394731D01*
X150047618Y-104394731D02*
X149809523Y-103728064D01*
X155904762Y-107519380D02*
X155952381Y-107567000D01*
X155952381Y-107567000D02*
X156095238Y-107614619D01*
X156095238Y-107614619D02*
X156190476Y-107614619D01*
X156190476Y-107614619D02*
X156333333Y-107567000D01*
X156333333Y-107567000D02*
X156428571Y-107471761D01*
X156428571Y-107471761D02*
X156476190Y-107376523D01*
X156476190Y-107376523D02*
X156523809Y-107186047D01*
X156523809Y-107186047D02*
X156523809Y-107043190D01*
X156523809Y-107043190D02*
X156476190Y-106852714D01*
X156476190Y-106852714D02*
X156428571Y-106757476D01*
X156428571Y-106757476D02*
X156333333Y-106662238D01*
X156333333Y-106662238D02*
X156190476Y-106614619D01*
X156190476Y-106614619D02*
X156095238Y-106614619D01*
X156095238Y-106614619D02*
X155952381Y-106662238D01*
X155952381Y-106662238D02*
X155904762Y-106709857D01*
X155095238Y-107567000D02*
X155190476Y-107614619D01*
X155190476Y-107614619D02*
X155380952Y-107614619D01*
X155380952Y-107614619D02*
X155476190Y-107567000D01*
X155476190Y-107567000D02*
X155523809Y-107471761D01*
X155523809Y-107471761D02*
X155523809Y-107090809D01*
X155523809Y-107090809D02*
X155476190Y-106995571D01*
X155476190Y-106995571D02*
X155380952Y-106947952D01*
X155380952Y-106947952D02*
X155190476Y-106947952D01*
X155190476Y-106947952D02*
X155095238Y-106995571D01*
X155095238Y-106995571D02*
X155047619Y-107090809D01*
X155047619Y-107090809D02*
X155047619Y-107186047D01*
X155047619Y-107186047D02*
X155523809Y-107281285D01*
X154619047Y-106947952D02*
X154619047Y-107614619D01*
X154619047Y-107043190D02*
X154571428Y-106995571D01*
X154571428Y-106995571D02*
X154476190Y-106947952D01*
X154476190Y-106947952D02*
X154333333Y-106947952D01*
X154333333Y-106947952D02*
X154238095Y-106995571D01*
X154238095Y-106995571D02*
X154190476Y-107090809D01*
X154190476Y-107090809D02*
X154190476Y-107614619D01*
X153857142Y-106947952D02*
X153476190Y-106947952D01*
X153714285Y-106614619D02*
X153714285Y-107471761D01*
X153714285Y-107471761D02*
X153666666Y-107567000D01*
X153666666Y-107567000D02*
X153571428Y-107614619D01*
X153571428Y-107614619D02*
X153476190Y-107614619D01*
X152761904Y-107567000D02*
X152857142Y-107614619D01*
X152857142Y-107614619D02*
X153047618Y-107614619D01*
X153047618Y-107614619D02*
X153142856Y-107567000D01*
X153142856Y-107567000D02*
X153190475Y-107471761D01*
X153190475Y-107471761D02*
X153190475Y-107090809D01*
X153190475Y-107090809D02*
X153142856Y-106995571D01*
X153142856Y-106995571D02*
X153047618Y-106947952D01*
X153047618Y-106947952D02*
X152857142Y-106947952D01*
X152857142Y-106947952D02*
X152761904Y-106995571D01*
X152761904Y-106995571D02*
X152714285Y-107090809D01*
X152714285Y-107090809D02*
X152714285Y-107186047D01*
X152714285Y-107186047D02*
X153190475Y-107281285D01*
X152285713Y-107614619D02*
X152285713Y-106947952D01*
X152285713Y-107138428D02*
X152238094Y-107043190D01*
X152238094Y-107043190D02*
X152190475Y-106995571D01*
X152190475Y-106995571D02*
X152095237Y-106947952D01*
X152095237Y-106947952D02*
X151999999Y-106947952D01*
X150904760Y-107614619D02*
X150904760Y-106614619D01*
X150904760Y-106614619D02*
X150523808Y-106614619D01*
X150523808Y-106614619D02*
X150428570Y-106662238D01*
X150428570Y-106662238D02*
X150380951Y-106709857D01*
X150380951Y-106709857D02*
X150333332Y-106805095D01*
X150333332Y-106805095D02*
X150333332Y-106947952D01*
X150333332Y-106947952D02*
X150380951Y-107043190D01*
X150380951Y-107043190D02*
X150428570Y-107090809D01*
X150428570Y-107090809D02*
X150523808Y-107138428D01*
X150523808Y-107138428D02*
X150904760Y-107138428D01*
X149761903Y-107614619D02*
X149857141Y-107567000D01*
X149857141Y-107567000D02*
X149904760Y-107519380D01*
X149904760Y-107519380D02*
X149952379Y-107424142D01*
X149952379Y-107424142D02*
X149952379Y-107138428D01*
X149952379Y-107138428D02*
X149904760Y-107043190D01*
X149904760Y-107043190D02*
X149857141Y-106995571D01*
X149857141Y-106995571D02*
X149761903Y-106947952D01*
X149761903Y-106947952D02*
X149619046Y-106947952D01*
X149619046Y-106947952D02*
X149523808Y-106995571D01*
X149523808Y-106995571D02*
X149476189Y-107043190D01*
X149476189Y-107043190D02*
X149428570Y-107138428D01*
X149428570Y-107138428D02*
X149428570Y-107424142D01*
X149428570Y-107424142D02*
X149476189Y-107519380D01*
X149476189Y-107519380D02*
X149523808Y-107567000D01*
X149523808Y-107567000D02*
X149619046Y-107614619D01*
X149619046Y-107614619D02*
X149761903Y-107614619D01*
X149047617Y-107567000D02*
X148952379Y-107614619D01*
X148952379Y-107614619D02*
X148761903Y-107614619D01*
X148761903Y-107614619D02*
X148666665Y-107567000D01*
X148666665Y-107567000D02*
X148619046Y-107471761D01*
X148619046Y-107471761D02*
X148619046Y-107424142D01*
X148619046Y-107424142D02*
X148666665Y-107328904D01*
X148666665Y-107328904D02*
X148761903Y-107281285D01*
X148761903Y-107281285D02*
X148904760Y-107281285D01*
X148904760Y-107281285D02*
X148999998Y-107233666D01*
X148999998Y-107233666D02*
X149047617Y-107138428D01*
X149047617Y-107138428D02*
X149047617Y-107090809D01*
X149047617Y-107090809D02*
X148999998Y-106995571D01*
X148999998Y-106995571D02*
X148904760Y-106947952D01*
X148904760Y-106947952D02*
X148761903Y-106947952D01*
X148761903Y-106947952D02*
X148666665Y-106995571D01*
X148190474Y-107614619D02*
X148190474Y-106947952D01*
X148190474Y-106614619D02*
X148238093Y-106662238D01*
X148238093Y-106662238D02*
X148190474Y-106709857D01*
X148190474Y-106709857D02*
X148142855Y-106662238D01*
X148142855Y-106662238D02*
X148190474Y-106614619D01*
X148190474Y-106614619D02*
X148190474Y-106709857D01*
X147857141Y-106947952D02*
X147476189Y-106947952D01*
X147714284Y-106614619D02*
X147714284Y-107471761D01*
X147714284Y-107471761D02*
X147666665Y-107567000D01*
X147666665Y-107567000D02*
X147571427Y-107614619D01*
X147571427Y-107614619D02*
X147476189Y-107614619D01*
X147142855Y-107614619D02*
X147142855Y-106947952D01*
X147142855Y-106614619D02*
X147190474Y-106662238D01*
X147190474Y-106662238D02*
X147142855Y-106709857D01*
X147142855Y-106709857D02*
X147095236Y-106662238D01*
X147095236Y-106662238D02*
X147142855Y-106614619D01*
X147142855Y-106614619D02*
X147142855Y-106709857D01*
X146761903Y-106947952D02*
X146523808Y-107614619D01*
X146523808Y-107614619D02*
X146285713Y-106947952D01*
X145523808Y-107567000D02*
X145619046Y-107614619D01*
X145619046Y-107614619D02*
X145809522Y-107614619D01*
X145809522Y-107614619D02*
X145904760Y-107567000D01*
X145904760Y-107567000D02*
X145952379Y-107471761D01*
X145952379Y-107471761D02*
X145952379Y-107090809D01*
X145952379Y-107090809D02*
X145904760Y-106995571D01*
X145904760Y-106995571D02*
X145809522Y-106947952D01*
X145809522Y-106947952D02*
X145619046Y-106947952D01*
X145619046Y-106947952D02*
X145523808Y-106995571D01*
X145523808Y-106995571D02*
X145476189Y-107090809D01*
X145476189Y-107090809D02*
X145476189Y-107186047D01*
X145476189Y-107186047D02*
X145952379Y-107281285D01*
D11*
X160695489Y-111479400D02*
X159552632Y-111479400D01*
X160124060Y-112050828D02*
X160124060Y-110907971D01*
X156552632Y-111479400D02*
X155409775Y-111479400D01*
X112254510Y-80770600D02*
X113397368Y-80770600D01*
X112825939Y-80199171D02*
X112825939Y-81342028D01*
X116397367Y-80770600D02*
X117540225Y-80770600D01*
D10*
X163476190Y-87864619D02*
X163809523Y-87388428D01*
X164047618Y-87864619D02*
X164047618Y-86864619D01*
X164047618Y-86864619D02*
X163666666Y-86864619D01*
X163666666Y-86864619D02*
X163571428Y-86912238D01*
X163571428Y-86912238D02*
X163523809Y-86959857D01*
X163523809Y-86959857D02*
X163476190Y-87055095D01*
X163476190Y-87055095D02*
X163476190Y-87197952D01*
X163476190Y-87197952D02*
X163523809Y-87293190D01*
X163523809Y-87293190D02*
X163571428Y-87340809D01*
X163571428Y-87340809D02*
X163666666Y-87388428D01*
X163666666Y-87388428D02*
X164047618Y-87388428D01*
X163095237Y-87817000D02*
X162952380Y-87864619D01*
X162952380Y-87864619D02*
X162714285Y-87864619D01*
X162714285Y-87864619D02*
X162619047Y-87817000D01*
X162619047Y-87817000D02*
X162571428Y-87769380D01*
X162571428Y-87769380D02*
X162523809Y-87674142D01*
X162523809Y-87674142D02*
X162523809Y-87578904D01*
X162523809Y-87578904D02*
X162571428Y-87483666D01*
X162571428Y-87483666D02*
X162619047Y-87436047D01*
X162619047Y-87436047D02*
X162714285Y-87388428D01*
X162714285Y-87388428D02*
X162904761Y-87340809D01*
X162904761Y-87340809D02*
X162999999Y-87293190D01*
X162999999Y-87293190D02*
X163047618Y-87245571D01*
X163047618Y-87245571D02*
X163095237Y-87150333D01*
X163095237Y-87150333D02*
X163095237Y-87055095D01*
X163095237Y-87055095D02*
X163047618Y-86959857D01*
X163047618Y-86959857D02*
X162999999Y-86912238D01*
X162999999Y-86912238D02*
X162904761Y-86864619D01*
X162904761Y-86864619D02*
X162666666Y-86864619D01*
X162666666Y-86864619D02*
X162523809Y-86912238D01*
X160904761Y-87197952D02*
X160904761Y-87864619D01*
X161142856Y-86817000D02*
X161380951Y-87531285D01*
X161380951Y-87531285D02*
X160761904Y-87531285D01*
X160238094Y-87293190D02*
X160333332Y-87245571D01*
X160333332Y-87245571D02*
X160380951Y-87197952D01*
X160380951Y-87197952D02*
X160428570Y-87102714D01*
X160428570Y-87102714D02*
X160428570Y-87055095D01*
X160428570Y-87055095D02*
X160380951Y-86959857D01*
X160380951Y-86959857D02*
X160333332Y-86912238D01*
X160333332Y-86912238D02*
X160238094Y-86864619D01*
X160238094Y-86864619D02*
X160047618Y-86864619D01*
X160047618Y-86864619D02*
X159952380Y-86912238D01*
X159952380Y-86912238D02*
X159904761Y-86959857D01*
X159904761Y-86959857D02*
X159857142Y-87055095D01*
X159857142Y-87055095D02*
X159857142Y-87102714D01*
X159857142Y-87102714D02*
X159904761Y-87197952D01*
X159904761Y-87197952D02*
X159952380Y-87245571D01*
X159952380Y-87245571D02*
X160047618Y-87293190D01*
X160047618Y-87293190D02*
X160238094Y-87293190D01*
X160238094Y-87293190D02*
X160333332Y-87340809D01*
X160333332Y-87340809D02*
X160380951Y-87388428D01*
X160380951Y-87388428D02*
X160428570Y-87483666D01*
X160428570Y-87483666D02*
X160428570Y-87674142D01*
X160428570Y-87674142D02*
X160380951Y-87769380D01*
X160380951Y-87769380D02*
X160333332Y-87817000D01*
X160333332Y-87817000D02*
X160238094Y-87864619D01*
X160238094Y-87864619D02*
X160047618Y-87864619D01*
X160047618Y-87864619D02*
X159952380Y-87817000D01*
X159952380Y-87817000D02*
X159904761Y-87769380D01*
X159904761Y-87769380D02*
X159857142Y-87674142D01*
X159857142Y-87674142D02*
X159857142Y-87483666D01*
X159857142Y-87483666D02*
X159904761Y-87388428D01*
X159904761Y-87388428D02*
X159952380Y-87340809D01*
X159952380Y-87340809D02*
X160047618Y-87293190D01*
X158952380Y-86864619D02*
X159428570Y-86864619D01*
X159428570Y-86864619D02*
X159476189Y-87340809D01*
X159476189Y-87340809D02*
X159428570Y-87293190D01*
X159428570Y-87293190D02*
X159333332Y-87245571D01*
X159333332Y-87245571D02*
X159095237Y-87245571D01*
X159095237Y-87245571D02*
X158999999Y-87293190D01*
X158999999Y-87293190D02*
X158952380Y-87340809D01*
X158952380Y-87340809D02*
X158904761Y-87436047D01*
X158904761Y-87436047D02*
X158904761Y-87674142D01*
X158904761Y-87674142D02*
X158952380Y-87769380D01*
X158952380Y-87769380D02*
X158999999Y-87817000D01*
X158999999Y-87817000D02*
X159095237Y-87864619D01*
X159095237Y-87864619D02*
X159333332Y-87864619D01*
X159333332Y-87864619D02*
X159428570Y-87817000D01*
X159428570Y-87817000D02*
X159476189Y-87769380D01*
X140754285Y-81614619D02*
X141325713Y-81614619D01*
X141039999Y-81614619D02*
X141039999Y-80614619D01*
X141039999Y-80614619D02*
X141135237Y-80757476D01*
X141135237Y-80757476D02*
X141230475Y-80852714D01*
X141230475Y-80852714D02*
X141325713Y-80900333D01*
%LPC*%
D12*
%TO.C,J2*%
X156150000Y-114817500D03*
D13*
X159960000Y-114817500D03*
%TD*%
D14*
%TO.C,J6*%
X138542500Y-109000000D03*
D15*
X138542500Y-115000000D03*
D16*
X143242500Y-112000000D03*
%TD*%
D17*
%TO.C,U1*%
X174770000Y-110817500D03*
D18*
X172230000Y-110817500D03*
X174770000Y-108277500D03*
X172230000Y-108277500D03*
X174770000Y-105737500D03*
X172230000Y-105737500D03*
X174770000Y-103197500D03*
X172230000Y-103197500D03*
X174770000Y-100657500D03*
X172230000Y-100657500D03*
X174770000Y-98117500D03*
X172230000Y-98117500D03*
X174770000Y-95577500D03*
X172230000Y-95577500D03*
X174770000Y-93037500D03*
X172230000Y-93037500D03*
X174770000Y-90497500D03*
X172230000Y-90497500D03*
X174770000Y-87957500D03*
X172230000Y-87957500D03*
D19*
X105000000Y-82887500D03*
X105000000Y-115887500D03*
X173000000Y-82887500D03*
X173000000Y-115887500D03*
%TD*%
D20*
%TO.C,J5*%
X116850000Y-84182500D03*
D13*
X113040000Y-84182500D03*
%TD*%
D20*
%TO.C,J3*%
X165255000Y-84182500D03*
D13*
X161445000Y-84182500D03*
X157635000Y-84182500D03*
%TD*%
D20*
%TO.C,J4*%
X128850000Y-84182500D03*
D13*
X125040000Y-84182500D03*
%TD*%
D20*
%TO.C,J1*%
X148660000Y-84115000D03*
D13*
X144850000Y-84115000D03*
X141040000Y-84115000D03*
X137230000Y-84115000D03*
%TD*%
%LPD*%
M02*
