%TF.GenerationSoftware,KiCad,Pcbnew,8.0.5*%
%TF.CreationDate,2024-11-24T08:54:10-05:00*%
%TF.ProjectId,wesp_card_access,77657370-5f63-4617-9264-5f6163636573,rev?*%
%TF.SameCoordinates,Original*%
%TF.FileFunction,Soldermask,Bot*%
%TF.FilePolarity,Negative*%
%FSLAX46Y46*%
G04 Gerber Fmt 4.6, Leading zero omitted, Abs format (unit mm)*
G04 Created by KiCad (PCBNEW 8.0.5) date 2024-11-24 08:54:10*
%MOMM*%
%LPD*%
G01*
G04 APERTURE LIST*
G04 Aperture macros list*
%AMRoundRect*
0 Rectangle with rounded corners*
0 $1 Rounding radius*
0 $2 $3 $4 $5 $6 $7 $8 $9 X,Y pos of 4 corners*
0 Add a 4 corners polygon primitive as box body*
4,1,4,$2,$3,$4,$5,$6,$7,$8,$9,$2,$3,0*
0 Add four circle primitives for the rounded corners*
1,1,$1+$1,$2,$3*
1,1,$1+$1,$4,$5*
1,1,$1+$1,$6,$7*
1,1,$1+$1,$8,$9*
0 Add four rect primitives between the rounded corners*
20,1,$1+$1,$2,$3,$4,$5,0*
20,1,$1+$1,$4,$5,$6,$7,0*
20,1,$1+$1,$6,$7,$8,$9,0*
20,1,$1+$1,$8,$9,$2,$3,0*%
G04 Aperture macros list end*
%ADD10RoundRect,0.250000X-0.650000X-1.550000X0.650000X-1.550000X0.650000X1.550000X-0.650000X1.550000X0*%
%ADD11O,1.800000X3.600000*%
%ADD12R,3.500000X3.500000*%
%ADD13RoundRect,0.750000X1.000000X-0.750000X1.000000X0.750000X-1.000000X0.750000X-1.000000X-0.750000X0*%
%ADD14RoundRect,0.875000X0.875000X-0.875000X0.875000X0.875000X-0.875000X0.875000X-0.875000X-0.875000X0*%
%ADD15R,1.700000X1.700000*%
%ADD16O,1.700000X1.700000*%
%ADD17C,6.700000*%
%ADD18RoundRect,0.250000X0.650000X1.550000X-0.650000X1.550000X-0.650000X-1.550000X0.650000X-1.550000X0*%
G04 APERTURE END LIST*
D10*
%TO.C,J2*%
X156150000Y-114817500D03*
D11*
X159960000Y-114817500D03*
%TD*%
D12*
%TO.C,J6*%
X138542500Y-109000000D03*
D13*
X138542500Y-115000000D03*
D14*
X143242500Y-112000000D03*
%TD*%
D15*
%TO.C,U1*%
X174770000Y-110817500D03*
D16*
X172230000Y-110817500D03*
X174770000Y-108277500D03*
X172230000Y-108277500D03*
X174770000Y-105737500D03*
X172230000Y-105737500D03*
X174770000Y-103197500D03*
X172230000Y-103197500D03*
X174770000Y-100657500D03*
X172230000Y-100657500D03*
X174770000Y-98117500D03*
X172230000Y-98117500D03*
X174770000Y-95577500D03*
X172230000Y-95577500D03*
X174770000Y-93037500D03*
X172230000Y-93037500D03*
X174770000Y-90497500D03*
X172230000Y-90497500D03*
X174770000Y-87957500D03*
X172230000Y-87957500D03*
D17*
X105000000Y-82887500D03*
X105000000Y-115887500D03*
X173000000Y-82887500D03*
X173000000Y-115887500D03*
%TD*%
D18*
%TO.C,J5*%
X116850000Y-84182500D03*
D11*
X113040000Y-84182500D03*
%TD*%
D18*
%TO.C,J3*%
X165255000Y-84182500D03*
D11*
X161445000Y-84182500D03*
X157635000Y-84182500D03*
%TD*%
D18*
%TO.C,J4*%
X128850000Y-84182500D03*
D11*
X125040000Y-84182500D03*
%TD*%
D18*
%TO.C,J1*%
X148660000Y-84115000D03*
D11*
X144850000Y-84115000D03*
X141040000Y-84115000D03*
X137230000Y-84115000D03*
%TD*%
M02*
