%TF.GenerationSoftware,KiCad,Pcbnew,8.0.5*%
%TF.CreationDate,2024-11-24T08:54:10-05:00*%
%TF.ProjectId,wesp_card_access,77657370-5f63-4617-9264-5f6163636573,rev?*%
%TF.SameCoordinates,Original*%
%TF.FileFunction,Copper,L2,Inr*%
%TF.FilePolarity,Positive*%
%FSLAX46Y46*%
G04 Gerber Fmt 4.6, Leading zero omitted, Abs format (unit mm)*
G04 Created by KiCad (PCBNEW 8.0.5) date 2024-11-24 08:54:10*
%MOMM*%
%LPD*%
G01*
G04 APERTURE LIST*
G04 Aperture macros list*
%AMRoundRect*
0 Rectangle with rounded corners*
0 $1 Rounding radius*
0 $2 $3 $4 $5 $6 $7 $8 $9 X,Y pos of 4 corners*
0 Add a 4 corners polygon primitive as box body*
4,1,4,$2,$3,$4,$5,$6,$7,$8,$9,$2,$3,0*
0 Add four circle primitives for the rounded corners*
1,1,$1+$1,$2,$3*
1,1,$1+$1,$4,$5*
1,1,$1+$1,$6,$7*
1,1,$1+$1,$8,$9*
0 Add four rect primitives between the rounded corners*
20,1,$1+$1,$2,$3,$4,$5,0*
20,1,$1+$1,$4,$5,$6,$7,0*
20,1,$1+$1,$6,$7,$8,$9,0*
20,1,$1+$1,$8,$9,$2,$3,0*%
G04 Aperture macros list end*
%TA.AperFunction,ComponentPad*%
%ADD10RoundRect,0.250000X-0.650000X-1.550000X0.650000X-1.550000X0.650000X1.550000X-0.650000X1.550000X0*%
%TD*%
%TA.AperFunction,ComponentPad*%
%ADD11O,1.800000X3.600000*%
%TD*%
%TA.AperFunction,ComponentPad*%
%ADD12R,3.500000X3.500000*%
%TD*%
%TA.AperFunction,ComponentPad*%
%ADD13RoundRect,0.750000X1.000000X-0.750000X1.000000X0.750000X-1.000000X0.750000X-1.000000X-0.750000X0*%
%TD*%
%TA.AperFunction,ComponentPad*%
%ADD14RoundRect,0.875000X0.875000X-0.875000X0.875000X0.875000X-0.875000X0.875000X-0.875000X-0.875000X0*%
%TD*%
%TA.AperFunction,ComponentPad*%
%ADD15R,1.700000X1.700000*%
%TD*%
%TA.AperFunction,ComponentPad*%
%ADD16O,1.700000X1.700000*%
%TD*%
%TA.AperFunction,ComponentPad*%
%ADD17C,6.700000*%
%TD*%
%TA.AperFunction,ComponentPad*%
%ADD18RoundRect,0.250000X0.650000X1.550000X-0.650000X1.550000X-0.650000X-1.550000X0.650000X-1.550000X0*%
%TD*%
%TA.AperFunction,ViaPad*%
%ADD19C,0.600000*%
%TD*%
G04 APERTURE END LIST*
D10*
%TO.N,GND*%
%TO.C,J2*%
X156150000Y-114817500D03*
D11*
%TO.N,Net-(J2-Pin_2)*%
X159960000Y-114817500D03*
%TD*%
D12*
%TO.N,Net-(J2-Pin_2)*%
%TO.C,J6*%
X138542500Y-109000000D03*
D13*
%TO.N,GND*%
X138542500Y-115000000D03*
D14*
%TO.N,N/C*%
X143242500Y-112000000D03*
%TD*%
D15*
%TO.N,GND*%
%TO.C,U1*%
X174770000Y-110817500D03*
D16*
%TO.N,+3V3*%
X172230000Y-110817500D03*
%TO.N,unconnected-(U1-IO23-Pad3)*%
X174770000Y-108277500D03*
%TO.N,RS485_RE*%
X172230000Y-108277500D03*
%TO.N,RS485_RO*%
X174770000Y-105737500D03*
%TO.N,WIE_1*%
X172230000Y-105737500D03*
%TO.N,unconnected-(U1-IO32-Pad7)*%
X174770000Y-103197500D03*
%TO.N,WIE_0*%
X172230000Y-103197500D03*
%TO.N,GND*%
X174770000Y-100657500D03*
%TO.N,RS485_DI*%
X172230000Y-100657500D03*
%TO.N,STRIKE_1*%
X174770000Y-98117500D03*
%TO.N,Net-(U1-IO5)*%
X172230000Y-98117500D03*
%TO.N,STRIKE_0*%
X174770000Y-95577500D03*
%TO.N,Net-(U1-IO14)*%
X172230000Y-95577500D03*
%TO.N,SCL*%
X174770000Y-93037500D03*
%TO.N,RS485_DE*%
X172230000Y-93037500D03*
%TO.N,SDA*%
X174770000Y-90497500D03*
%TO.N,unconnected-(U1-IO2-Pad18)*%
X172230000Y-90497500D03*
%TO.N,GND*%
X174770000Y-87957500D03*
%TO.N,+12V*%
X172230000Y-87957500D03*
D17*
%TO.N,N/C*%
X105000000Y-82887500D03*
X105000000Y-115887500D03*
X173000000Y-82887500D03*
X173000000Y-115887500D03*
%TD*%
D18*
%TO.N,Net-(D4-A)*%
%TO.C,J5*%
X116850000Y-84182500D03*
D11*
%TO.N,Net-(J5-Pin_2)*%
X113040000Y-84182500D03*
%TD*%
D18*
%TO.N,GND*%
%TO.C,J3*%
X165255000Y-84182500D03*
D11*
%TO.N,Net-(J3-Pin_2)*%
X161445000Y-84182500D03*
%TO.N,Net-(J3-Pin_3)*%
X157635000Y-84182500D03*
%TD*%
D18*
%TO.N,Net-(D3-A)*%
%TO.C,J4*%
X128850000Y-84182500D03*
D11*
%TO.N,Net-(J4-Pin_2)*%
X125040000Y-84182500D03*
%TD*%
D18*
%TO.N,GND*%
%TO.C,J1*%
X148660000Y-84115000D03*
D11*
%TO.N,Net-(J1-Pin_2)*%
X144850000Y-84115000D03*
%TO.N,Net-(J1-Pin_3)*%
X141040000Y-84115000D03*
%TO.N,Net-(J1-Pin_4)*%
X137230000Y-84115000D03*
%TD*%
D19*
%TO.N,Net-(U1-IO5)*%
X168000000Y-94400000D03*
X165500000Y-102800000D03*
%TO.N,Net-(U1-IO14)*%
X166800000Y-94000000D03*
X164600000Y-102600000D03*
%TO.N,GND*%
X111000000Y-101000000D03*
X163500000Y-88500000D03*
X121000000Y-113250000D03*
X132500000Y-93500000D03*
X116000000Y-94000000D03*
X128750000Y-107500000D03*
X143500000Y-92250000D03*
X116000000Y-95500000D03*
X132750000Y-113250000D03*
X128500000Y-94500000D03*
X151250000Y-105150000D03*
X151250000Y-102750000D03*
X116750000Y-95250000D03*
X122500000Y-101000000D03*
X117000000Y-89500000D03*
X159000000Y-99000000D03*
X154500000Y-92250000D03*
X154250000Y-88500000D03*
X121000000Y-111250000D03*
X128500000Y-95250000D03*
X137000000Y-90500000D03*
X161250000Y-92000000D03*
X138250000Y-89000000D03*
X155500000Y-100000000D03*
X127750000Y-94000000D03*
X116000000Y-94750000D03*
X159000000Y-105250000D03*
X120500000Y-93500000D03*
X130000000Y-88000000D03*
X110796416Y-90448868D03*
X116750000Y-94500000D03*
X122125000Y-90125000D03*
X117000000Y-107500000D03*
X127750000Y-95500000D03*
X155750000Y-93250000D03*
X127750000Y-94750000D03*
X132750000Y-111500000D03*
%TO.N,STRIKE_1*%
X121000000Y-115000000D03*
X169500000Y-99500000D03*
X169500000Y-107250000D03*
%TO.N,STRIKE_0*%
X169000000Y-98500000D03*
X169000000Y-106500000D03*
X132750000Y-115000000D03*
%TO.N,SCL*%
X156500000Y-98750000D03*
X151750000Y-102000000D03*
X162750000Y-96500000D03*
%TO.N,WIE_1*%
X150250000Y-92250000D03*
%TO.N,RS485_DI*%
X169750000Y-91795000D03*
X170250000Y-96000000D03*
%TO.N,WIE_0*%
X150250000Y-88500000D03*
%TO.N,+12V*%
X129000000Y-92750000D03*
X110000000Y-94250000D03*
X136500000Y-104750000D03*
X112500000Y-90750000D03*
X121500000Y-95000000D03*
X127750000Y-112750000D03*
X117500000Y-93500000D03*
X119750000Y-107500000D03*
X131500000Y-107500000D03*
X116000000Y-112500000D03*
X110000000Y-95000000D03*
X137500000Y-104750000D03*
X123000000Y-90750000D03*
X110000000Y-96000000D03*
X162250000Y-106750000D03*
X162250000Y-107750000D03*
X138500000Y-104750000D03*
X135500000Y-104750000D03*
X121500000Y-95750000D03*
X111750000Y-90750000D03*
X121500000Y-94250000D03*
X123750000Y-90750000D03*
X162250000Y-105750000D03*
%TO.N,SDA*%
X151750000Y-101000000D03*
X155500000Y-98750000D03*
X161750000Y-96500000D03*
%TO.N,+3V3*%
X140750000Y-94250000D03*
X133750000Y-94250000D03*
%TO.N,STRIKE_FB0*%
X140750000Y-105000000D03*
X125250000Y-104750000D03*
%TO.N,Net-(D3-A)*%
X124750000Y-99000000D03*
X126972500Y-102775000D03*
X124750000Y-98250000D03*
X124750000Y-97500000D03*
%TO.N,READER_FUSE_FB*%
X144500000Y-96250000D03*
X142500000Y-90250000D03*
X144500000Y-98750000D03*
%TO.N,STRIKE_FB1*%
X142250000Y-102000000D03*
X113500000Y-104750000D03*
%TO.N,Net-(D4-A)*%
X113250000Y-99000000D03*
X113250000Y-98250000D03*
X113250000Y-97500000D03*
%TO.N,12v_fb*%
X162750000Y-90500000D03*
X142250000Y-103250000D03*
%TO.N,Net-(D9-A)*%
X116500000Y-116650000D03*
X109650000Y-87225000D03*
%TO.N,Net-(U4-IN+)*%
X139750000Y-89250000D03*
X139500000Y-91500000D03*
%TO.N,READER_CURRENT*%
X140750000Y-90750000D03*
X139775000Y-93250000D03*
%TO.N,STRIKE_0_CURRENT*%
X125750000Y-93208701D03*
X145600000Y-102225000D03*
%TO.N,STRIKE_1_CURRENT*%
X146392985Y-102330731D03*
X148248527Y-105150000D03*
X145950000Y-105150000D03*
X118750000Y-90250000D03*
%TO.N,Net-(D8-A)*%
X121100000Y-89925000D03*
X121425000Y-96925000D03*
%TD*%
%TA.AperFunction,Conductor*%
%TO.N,GND*%
G36*
X170779146Y-79907685D02*
G01*
X170824901Y-79960489D01*
X170834845Y-80029647D01*
X170805820Y-80093203D01*
X170790143Y-80108366D01*
X170620995Y-80245339D01*
X170620987Y-80245346D01*
X170357846Y-80508487D01*
X170357839Y-80508495D01*
X170123641Y-80797705D01*
X169920959Y-81109809D01*
X169752006Y-81441396D01*
X169618641Y-81788821D01*
X169522319Y-82148299D01*
X169522319Y-82148301D01*
X169464104Y-82515860D01*
X169444627Y-82887499D01*
X169444627Y-82887500D01*
X169464104Y-83259139D01*
X169522319Y-83626698D01*
X169522319Y-83626700D01*
X169618641Y-83986178D01*
X169752006Y-84333603D01*
X169920959Y-84665191D01*
X170123641Y-84977294D01*
X170278971Y-85169110D01*
X170357843Y-85266509D01*
X170620991Y-85529657D01*
X170781072Y-85659288D01*
X170910205Y-85763858D01*
X171189728Y-85945382D01*
X171222313Y-85966543D01*
X171498957Y-86107500D01*
X171553503Y-86135293D01*
X171553900Y-86135495D01*
X171901329Y-86268861D01*
X172260796Y-86365180D01*
X172628362Y-86423396D01*
X172979444Y-86441795D01*
X172999999Y-86442873D01*
X173000000Y-86442873D01*
X173000001Y-86442873D01*
X173019478Y-86441852D01*
X173371638Y-86423396D01*
X173739204Y-86365180D01*
X174098671Y-86268861D01*
X174446100Y-86135495D01*
X174777687Y-85966543D01*
X175089796Y-85763857D01*
X175379009Y-85529657D01*
X175642157Y-85266509D01*
X175779134Y-85097355D01*
X175836621Y-85057645D01*
X175906452Y-85055317D01*
X175966456Y-85091112D01*
X175997582Y-85153666D01*
X175999500Y-85175392D01*
X175999500Y-90095816D01*
X175979815Y-90162855D01*
X175927011Y-90208610D01*
X175857853Y-90218554D01*
X175794297Y-90189529D01*
X175756839Y-90131811D01*
X175745232Y-90093546D01*
X175647685Y-89911050D01*
X175548381Y-89790047D01*
X175516410Y-89751089D01*
X175356452Y-89619817D01*
X175356453Y-89619817D01*
X175356450Y-89619815D01*
X175173954Y-89522268D01*
X174975934Y-89462200D01*
X174975932Y-89462199D01*
X174975934Y-89462199D01*
X174770000Y-89441917D01*
X174564067Y-89462199D01*
X174366043Y-89522269D01*
X174255898Y-89581143D01*
X174183550Y-89619815D01*
X174183548Y-89619816D01*
X174183547Y-89619817D01*
X174023589Y-89751089D01*
X173892317Y-89911047D01*
X173794769Y-90093543D01*
X173734699Y-90291567D01*
X173714417Y-90497500D01*
X173734699Y-90703432D01*
X173756801Y-90776293D01*
X173794768Y-90901454D01*
X173892315Y-91083950D01*
X173892317Y-91083952D01*
X174023589Y-91243910D01*
X174085234Y-91294500D01*
X174183550Y-91375185D01*
X174366046Y-91472732D01*
X174564066Y-91532800D01*
X174564065Y-91532800D01*
X174582529Y-91534618D01*
X174770000Y-91553083D01*
X174975934Y-91532800D01*
X175173954Y-91472732D01*
X175356450Y-91375185D01*
X175516410Y-91243910D01*
X175647685Y-91083950D01*
X175745232Y-90901454D01*
X175756839Y-90863187D01*
X175795136Y-90804750D01*
X175858948Y-90776293D01*
X175928015Y-90786852D01*
X175980409Y-90833076D01*
X175999500Y-90899183D01*
X175999500Y-92635816D01*
X175979815Y-92702855D01*
X175927011Y-92748610D01*
X175857853Y-92758554D01*
X175794297Y-92729529D01*
X175756839Y-92671811D01*
X175745232Y-92633546D01*
X175647685Y-92451050D01*
X175579410Y-92367856D01*
X175516410Y-92291089D01*
X175356452Y-92159817D01*
X175356453Y-92159817D01*
X175356450Y-92159815D01*
X175173954Y-92062268D01*
X174975934Y-92002200D01*
X174975932Y-92002199D01*
X174975934Y-92002199D01*
X174770000Y-91981917D01*
X174564067Y-92002199D01*
X174366043Y-92062269D01*
X174281343Y-92107543D01*
X174183550Y-92159815D01*
X174183548Y-92159816D01*
X174183547Y-92159817D01*
X174023589Y-92291089D01*
X173892317Y-92451047D01*
X173794769Y-92633543D01*
X173734699Y-92831567D01*
X173714417Y-93037500D01*
X173734699Y-93243432D01*
X173736843Y-93250499D01*
X173794768Y-93441454D01*
X173892315Y-93623950D01*
X173907503Y-93642457D01*
X174023589Y-93783910D01*
X174113313Y-93857543D01*
X174183550Y-93915185D01*
X174366046Y-94012732D01*
X174564066Y-94072800D01*
X174564065Y-94072800D01*
X174582529Y-94074618D01*
X174770000Y-94093083D01*
X174975934Y-94072800D01*
X175173954Y-94012732D01*
X175356450Y-93915185D01*
X175516410Y-93783910D01*
X175647685Y-93623950D01*
X175745232Y-93441454D01*
X175756839Y-93403187D01*
X175795136Y-93344750D01*
X175858948Y-93316293D01*
X175928015Y-93326852D01*
X175980409Y-93373076D01*
X175999500Y-93439183D01*
X175999500Y-95175816D01*
X175979815Y-95242855D01*
X175927011Y-95288610D01*
X175857853Y-95298554D01*
X175794297Y-95269529D01*
X175756839Y-95211811D01*
X175745232Y-95173546D01*
X175647685Y-94991050D01*
X175573372Y-94900499D01*
X175516410Y-94831089D01*
X175368803Y-94709953D01*
X175356450Y-94699815D01*
X175173954Y-94602268D01*
X174975934Y-94542200D01*
X174975932Y-94542199D01*
X174975934Y-94542199D01*
X174770000Y-94521917D01*
X174564067Y-94542199D01*
X174366043Y-94602269D01*
X174310154Y-94632143D01*
X174183550Y-94699815D01*
X174183548Y-94699816D01*
X174183547Y-94699817D01*
X174023589Y-94831089D01*
X173892317Y-94991047D01*
X173794769Y-95173543D01*
X173734699Y-95371567D01*
X173714417Y-95577500D01*
X173734699Y-95783432D01*
X173734700Y-95783434D01*
X173794768Y-95981454D01*
X173892315Y-96163950D01*
X173892317Y-96163952D01*
X174023589Y-96323910D01*
X174107114Y-96392456D01*
X174183550Y-96455185D01*
X174366046Y-96552732D01*
X174564066Y-96612800D01*
X174564065Y-96612800D01*
X174582529Y-96614618D01*
X174770000Y-96633083D01*
X174975934Y-96612800D01*
X175173954Y-96552732D01*
X175356450Y-96455185D01*
X175516410Y-96323910D01*
X175647685Y-96163950D01*
X175745232Y-95981454D01*
X175756839Y-95943187D01*
X175795136Y-95884750D01*
X175858948Y-95856293D01*
X175928015Y-95866852D01*
X175980409Y-95913076D01*
X175999500Y-95979183D01*
X175999500Y-97715816D01*
X175979815Y-97782855D01*
X175927011Y-97828610D01*
X175857853Y-97838554D01*
X175794297Y-97809529D01*
X175756839Y-97751811D01*
X175745232Y-97713546D01*
X175647685Y-97531050D01*
X175561062Y-97425499D01*
X175516410Y-97371089D01*
X175356452Y-97239817D01*
X175356453Y-97239817D01*
X175356450Y-97239815D01*
X175173954Y-97142268D01*
X174975934Y-97082200D01*
X174975932Y-97082199D01*
X174975934Y-97082199D01*
X174770000Y-97061917D01*
X174564067Y-97082199D01*
X174366043Y-97142269D01*
X174261086Y-97198371D01*
X174183550Y-97239815D01*
X174183548Y-97239816D01*
X174183547Y-97239817D01*
X174023589Y-97371089D01*
X173892317Y-97531047D01*
X173794769Y-97713543D01*
X173734699Y-97911567D01*
X173714417Y-98117500D01*
X173734699Y-98323432D01*
X173748175Y-98367856D01*
X173794768Y-98521454D01*
X173892315Y-98703950D01*
X173910926Y-98726628D01*
X174023589Y-98863910D01*
X174100479Y-98927011D01*
X174183550Y-98995185D01*
X174366046Y-99092732D01*
X174564066Y-99152800D01*
X174564065Y-99152800D01*
X174582529Y-99154618D01*
X174770000Y-99173083D01*
X174975934Y-99152800D01*
X175173954Y-99092732D01*
X175356450Y-98995185D01*
X175516410Y-98863910D01*
X175647685Y-98703950D01*
X175745232Y-98521454D01*
X175756839Y-98483187D01*
X175795136Y-98424750D01*
X175858948Y-98396293D01*
X175928015Y-98406852D01*
X175980409Y-98453076D01*
X175999500Y-98519183D01*
X175999500Y-102795816D01*
X175979815Y-102862855D01*
X175927011Y-102908610D01*
X175857853Y-102918554D01*
X175794297Y-102889529D01*
X175756839Y-102831811D01*
X175756663Y-102831230D01*
X175745232Y-102793546D01*
X175647685Y-102611050D01*
X175578401Y-102526627D01*
X175516410Y-102451089D01*
X175369751Y-102330731D01*
X175356450Y-102319815D01*
X175173954Y-102222268D01*
X174975934Y-102162200D01*
X174975932Y-102162199D01*
X174975934Y-102162199D01*
X174770000Y-102141917D01*
X174564067Y-102162199D01*
X174366043Y-102222269D01*
X174270440Y-102273371D01*
X174183550Y-102319815D01*
X174183548Y-102319816D01*
X174183547Y-102319817D01*
X174023589Y-102451089D01*
X173892317Y-102611047D01*
X173794769Y-102793543D01*
X173734699Y-102991567D01*
X173714417Y-103197500D01*
X173734699Y-103403432D01*
X173734700Y-103403434D01*
X173794768Y-103601454D01*
X173892315Y-103783950D01*
X173892317Y-103783952D01*
X174023589Y-103943910D01*
X174120209Y-104023202D01*
X174183550Y-104075185D01*
X174366046Y-104172732D01*
X174564066Y-104232800D01*
X174564065Y-104232800D01*
X174582529Y-104234618D01*
X174770000Y-104253083D01*
X174975934Y-104232800D01*
X175173954Y-104172732D01*
X175356450Y-104075185D01*
X175516410Y-103943910D01*
X175647685Y-103783950D01*
X175745232Y-103601454D01*
X175756839Y-103563187D01*
X175795136Y-103504750D01*
X175858948Y-103476293D01*
X175928015Y-103486852D01*
X175980409Y-103533076D01*
X175999500Y-103599183D01*
X175999500Y-105335816D01*
X175979815Y-105402855D01*
X175927011Y-105448610D01*
X175857853Y-105458554D01*
X175794297Y-105429529D01*
X175756839Y-105371811D01*
X175755640Y-105367857D01*
X175745232Y-105333546D01*
X175647685Y-105151050D01*
X175560984Y-105045404D01*
X175516410Y-104991089D01*
X175376937Y-104876628D01*
X175356450Y-104859815D01*
X175173954Y-104762268D01*
X174975934Y-104702200D01*
X174975932Y-104702199D01*
X174975934Y-104702199D01*
X174770000Y-104681917D01*
X174564067Y-104702199D01*
X174366043Y-104762269D01*
X174255898Y-104821143D01*
X174183550Y-104859815D01*
X174183548Y-104859816D01*
X174183547Y-104859817D01*
X174023589Y-104991089D01*
X173892317Y-105151047D01*
X173794769Y-105333543D01*
X173734699Y-105531567D01*
X173714417Y-105737500D01*
X173734699Y-105943432D01*
X173734700Y-105943434D01*
X173791944Y-106132145D01*
X173794769Y-106141456D01*
X173801502Y-106154054D01*
X173892315Y-106323950D01*
X173917235Y-106354315D01*
X174023589Y-106483910D01*
X174120209Y-106563202D01*
X174183550Y-106615185D01*
X174366046Y-106712732D01*
X174564066Y-106772800D01*
X174564065Y-106772800D01*
X174582529Y-106774618D01*
X174770000Y-106793083D01*
X174975934Y-106772800D01*
X175173954Y-106712732D01*
X175356450Y-106615185D01*
X175516410Y-106483910D01*
X175647685Y-106323950D01*
X175745232Y-106141454D01*
X175756839Y-106103187D01*
X175795136Y-106044750D01*
X175858948Y-106016293D01*
X175928015Y-106026852D01*
X175980409Y-106073076D01*
X175999500Y-106139183D01*
X175999500Y-107875816D01*
X175979815Y-107942855D01*
X175927011Y-107988610D01*
X175857853Y-107998554D01*
X175794297Y-107969529D01*
X175756839Y-107911811D01*
X175745232Y-107873546D01*
X175647685Y-107691050D01*
X175579153Y-107607543D01*
X175516410Y-107531089D01*
X175356452Y-107399817D01*
X175356453Y-107399817D01*
X175356450Y-107399815D01*
X175173954Y-107302268D01*
X174975934Y-107242200D01*
X174975932Y-107242199D01*
X174975934Y-107242199D01*
X174770000Y-107221917D01*
X174564067Y-107242199D01*
X174366043Y-107302269D01*
X174268674Y-107354315D01*
X174183550Y-107399815D01*
X174183548Y-107399816D01*
X174183547Y-107399817D01*
X174023589Y-107531089D01*
X173892317Y-107691047D01*
X173794769Y-107873543D01*
X173734699Y-108071567D01*
X173714417Y-108277500D01*
X173734699Y-108483432D01*
X173734700Y-108483434D01*
X173794768Y-108681454D01*
X173892315Y-108863950D01*
X173892317Y-108863952D01*
X174023589Y-109023910D01*
X174120209Y-109103202D01*
X174183550Y-109155185D01*
X174366046Y-109252732D01*
X174564066Y-109312800D01*
X174564065Y-109312800D01*
X174582529Y-109314618D01*
X174770000Y-109333083D01*
X174975934Y-109312800D01*
X175173954Y-109252732D01*
X175356450Y-109155185D01*
X175516410Y-109023910D01*
X175647685Y-108863950D01*
X175745232Y-108681454D01*
X175756839Y-108643187D01*
X175795136Y-108584750D01*
X175858948Y-108556293D01*
X175928015Y-108566852D01*
X175980409Y-108613076D01*
X175999500Y-108679183D01*
X175999500Y-113599607D01*
X175979815Y-113666646D01*
X175927011Y-113712401D01*
X175857853Y-113722345D01*
X175794297Y-113693320D01*
X175779134Y-113677643D01*
X175642160Y-113508495D01*
X175642157Y-113508491D01*
X175379009Y-113245343D01*
X175327911Y-113203965D01*
X175089794Y-113011141D01*
X174777691Y-112808459D01*
X174446103Y-112639506D01*
X174098678Y-112506141D01*
X174098671Y-112506139D01*
X173739204Y-112409820D01*
X173739200Y-112409819D01*
X173739199Y-112409819D01*
X173371639Y-112351604D01*
X173000001Y-112332127D01*
X172999999Y-112332127D01*
X172628360Y-112351604D01*
X172260801Y-112409819D01*
X172260799Y-112409819D01*
X171901321Y-112506141D01*
X171553896Y-112639506D01*
X171222309Y-112808459D01*
X170910205Y-113011141D01*
X170620995Y-113245339D01*
X170620987Y-113245346D01*
X170357846Y-113508487D01*
X170357839Y-113508495D01*
X170123641Y-113797705D01*
X169920959Y-114109809D01*
X169752006Y-114441396D01*
X169618641Y-114788821D01*
X169522319Y-115148299D01*
X169522319Y-115148301D01*
X169485283Y-115382143D01*
X169464104Y-115515862D01*
X169444627Y-115887500D01*
X169464104Y-116259138D01*
X169522320Y-116626704D01*
X169566733Y-116792457D01*
X169618641Y-116986178D01*
X169752006Y-117333603D01*
X169920959Y-117665191D01*
X170123641Y-117977294D01*
X170284058Y-118175392D01*
X170357843Y-118266509D01*
X170620991Y-118529657D01*
X170620995Y-118529660D01*
X170790143Y-118666634D01*
X170829854Y-118724121D01*
X170832182Y-118793952D01*
X170796386Y-118853956D01*
X170733833Y-118885082D01*
X170712107Y-118887000D01*
X107287893Y-118887000D01*
X107220854Y-118867315D01*
X107175099Y-118814511D01*
X107165155Y-118745353D01*
X107194180Y-118681797D01*
X107209857Y-118666634D01*
X107260789Y-118625389D01*
X107379009Y-118529657D01*
X107642157Y-118266509D01*
X107876357Y-117977296D01*
X108079043Y-117665187D01*
X108247995Y-117333600D01*
X108381361Y-116986171D01*
X108471438Y-116650000D01*
X115994353Y-116650000D01*
X116014834Y-116792456D01*
X116026500Y-116818000D01*
X116074623Y-116923373D01*
X116168872Y-117032143D01*
X116289947Y-117109953D01*
X116289950Y-117109954D01*
X116289949Y-117109954D01*
X116428036Y-117150499D01*
X116428038Y-117150500D01*
X116428039Y-117150500D01*
X116571962Y-117150500D01*
X116571962Y-117150499D01*
X116710053Y-117109953D01*
X116831128Y-117032143D01*
X116925377Y-116923373D01*
X116985165Y-116792457D01*
X117005647Y-116650000D01*
X116985165Y-116507543D01*
X116925377Y-116376627D01*
X116831128Y-116267857D01*
X116710053Y-116190047D01*
X116710051Y-116190046D01*
X116710049Y-116190045D01*
X116710050Y-116190045D01*
X116571963Y-116149500D01*
X116571961Y-116149500D01*
X116428039Y-116149500D01*
X116428036Y-116149500D01*
X116289949Y-116190045D01*
X116168873Y-116267856D01*
X116074623Y-116376626D01*
X116074622Y-116376628D01*
X116014834Y-116507543D01*
X115994353Y-116650000D01*
X108471438Y-116650000D01*
X108477680Y-116626704D01*
X108535896Y-116259138D01*
X108555373Y-115887500D01*
X108535896Y-115515862D01*
X108477680Y-115148296D01*
X108437944Y-115000000D01*
X120494353Y-115000000D01*
X120514834Y-115142456D01*
X120537914Y-115192993D01*
X120574623Y-115273373D01*
X120668872Y-115382143D01*
X120789947Y-115459953D01*
X120789950Y-115459954D01*
X120789949Y-115459954D01*
X120897107Y-115491417D01*
X120926336Y-115500000D01*
X120928036Y-115500499D01*
X120928038Y-115500500D01*
X120928039Y-115500500D01*
X121071962Y-115500500D01*
X121071962Y-115500499D01*
X121210053Y-115459953D01*
X121331128Y-115382143D01*
X121425377Y-115273373D01*
X121485165Y-115142457D01*
X121505647Y-115000000D01*
X132244353Y-115000000D01*
X132264834Y-115142456D01*
X132287914Y-115192993D01*
X132324623Y-115273373D01*
X132418872Y-115382143D01*
X132539947Y-115459953D01*
X132539950Y-115459954D01*
X132539949Y-115459954D01*
X132647107Y-115491417D01*
X132676336Y-115500000D01*
X132678036Y-115500499D01*
X132678038Y-115500500D01*
X132678039Y-115500500D01*
X132821962Y-115500500D01*
X132821962Y-115500499D01*
X132960053Y-115459953D01*
X133081128Y-115382143D01*
X133175377Y-115273373D01*
X133235165Y-115142457D01*
X133255647Y-115000000D01*
X133235165Y-114857543D01*
X133175377Y-114726627D01*
X133081128Y-114617857D01*
X132960053Y-114540047D01*
X132960051Y-114540046D01*
X132960049Y-114540045D01*
X132960050Y-114540045D01*
X132821963Y-114499500D01*
X132821961Y-114499500D01*
X132678039Y-114499500D01*
X132678036Y-114499500D01*
X132539949Y-114540045D01*
X132418873Y-114617856D01*
X132324623Y-114726626D01*
X132324622Y-114726628D01*
X132264834Y-114857543D01*
X132244353Y-115000000D01*
X121505647Y-115000000D01*
X121485165Y-114857543D01*
X121425377Y-114726627D01*
X121331128Y-114617857D01*
X121210053Y-114540047D01*
X121210051Y-114540046D01*
X121210049Y-114540045D01*
X121210050Y-114540045D01*
X121071963Y-114499500D01*
X121071961Y-114499500D01*
X120928039Y-114499500D01*
X120928036Y-114499500D01*
X120789949Y-114540045D01*
X120668873Y-114617856D01*
X120574623Y-114726626D01*
X120574622Y-114726628D01*
X120514834Y-114857543D01*
X120494353Y-115000000D01*
X108437944Y-115000000D01*
X108381361Y-114788829D01*
X108247995Y-114441400D01*
X108111698Y-114173903D01*
X136667500Y-114173903D01*
X136667500Y-114750000D01*
X137109488Y-114750000D01*
X137076575Y-114807007D01*
X137042500Y-114934174D01*
X137042500Y-115065826D01*
X137076575Y-115192993D01*
X137109488Y-115250000D01*
X136667500Y-115250000D01*
X136667500Y-115826096D01*
X136670397Y-115868824D01*
X136716331Y-116053523D01*
X136800890Y-116224022D01*
X136800892Y-116224025D01*
X136920132Y-116372366D01*
X136920133Y-116372367D01*
X137068474Y-116491607D01*
X137068477Y-116491609D01*
X137238976Y-116576168D01*
X137423675Y-116622102D01*
X137466403Y-116625000D01*
X138292500Y-116625000D01*
X138292500Y-115500000D01*
X138792500Y-115500000D01*
X138792500Y-116625000D01*
X139618597Y-116625000D01*
X139661324Y-116622102D01*
X139846023Y-116576168D01*
X140016522Y-116491609D01*
X140016525Y-116491607D01*
X140164866Y-116372367D01*
X140164867Y-116372366D01*
X140284107Y-116224025D01*
X140284109Y-116224022D01*
X140368668Y-116053523D01*
X140414602Y-115868824D01*
X140417500Y-115826096D01*
X140417500Y-115250000D01*
X139975512Y-115250000D01*
X140008425Y-115192993D01*
X140042500Y-115065826D01*
X140042500Y-114934174D01*
X140008425Y-114807007D01*
X139975512Y-114750000D01*
X140417500Y-114750000D01*
X140417500Y-114173903D01*
X140414602Y-114131175D01*
X140368668Y-113946476D01*
X140284109Y-113775977D01*
X140284107Y-113775974D01*
X140164867Y-113627633D01*
X140164866Y-113627632D01*
X140016525Y-113508392D01*
X140016522Y-113508390D01*
X139846023Y-113423831D01*
X139661324Y-113377897D01*
X139618597Y-113375000D01*
X138792500Y-113375000D01*
X138792500Y-114500000D01*
X138292500Y-114500000D01*
X138292500Y-113375000D01*
X137466403Y-113375000D01*
X137423675Y-113377897D01*
X137238976Y-113423831D01*
X137068477Y-113508390D01*
X137068474Y-113508392D01*
X136920133Y-113627632D01*
X136920132Y-113627633D01*
X136800892Y-113775974D01*
X136800890Y-113775977D01*
X136716331Y-113946476D01*
X136670397Y-114131175D01*
X136667500Y-114173903D01*
X108111698Y-114173903D01*
X108079043Y-114109814D01*
X107975584Y-113950500D01*
X107876358Y-113797705D01*
X107686196Y-113562875D01*
X107642157Y-113508491D01*
X107379009Y-113245343D01*
X107327911Y-113203965D01*
X107089794Y-113011141D01*
X106777691Y-112808459D01*
X106446103Y-112639506D01*
X106098678Y-112506141D01*
X106098671Y-112506139D01*
X106075760Y-112500000D01*
X115494353Y-112500000D01*
X115514834Y-112642456D01*
X115563949Y-112750000D01*
X115574623Y-112773373D01*
X115668872Y-112882143D01*
X115789947Y-112959953D01*
X115789950Y-112959954D01*
X115789949Y-112959954D01*
X115928036Y-113000499D01*
X115928038Y-113000500D01*
X115928039Y-113000500D01*
X116071962Y-113000500D01*
X116071962Y-113000499D01*
X116210053Y-112959953D01*
X116331128Y-112882143D01*
X116425377Y-112773373D01*
X116436051Y-112750000D01*
X127244353Y-112750000D01*
X127264834Y-112892456D01*
X127314177Y-113000499D01*
X127324623Y-113023373D01*
X127418872Y-113132143D01*
X127539947Y-113209953D01*
X127539950Y-113209954D01*
X127539949Y-113209954D01*
X127678036Y-113250499D01*
X127678038Y-113250500D01*
X127678039Y-113250500D01*
X127821962Y-113250500D01*
X127821962Y-113250499D01*
X127960053Y-113209953D01*
X128081128Y-113132143D01*
X128175377Y-113023373D01*
X128235165Y-112892457D01*
X128255647Y-112750000D01*
X128235165Y-112607543D01*
X128175377Y-112476627D01*
X128081128Y-112367857D01*
X127960053Y-112290047D01*
X127960051Y-112290046D01*
X127960049Y-112290045D01*
X127960050Y-112290045D01*
X127821963Y-112249500D01*
X127821961Y-112249500D01*
X127678039Y-112249500D01*
X127678036Y-112249500D01*
X127539949Y-112290045D01*
X127418873Y-112367856D01*
X127324623Y-112476626D01*
X127324622Y-112476628D01*
X127264834Y-112607543D01*
X127244353Y-112750000D01*
X116436051Y-112750000D01*
X116485165Y-112642457D01*
X116505647Y-112500000D01*
X116485165Y-112357543D01*
X116425377Y-112226627D01*
X116331128Y-112117857D01*
X116210053Y-112040047D01*
X116210051Y-112040046D01*
X116210049Y-112040045D01*
X116210050Y-112040045D01*
X116071963Y-111999500D01*
X116071961Y-111999500D01*
X115928039Y-111999500D01*
X115928036Y-111999500D01*
X115789949Y-112040045D01*
X115668873Y-112117856D01*
X115574623Y-112226626D01*
X115574622Y-112226628D01*
X115514834Y-112357543D01*
X115494353Y-112500000D01*
X106075760Y-112500000D01*
X105739204Y-112409820D01*
X105739200Y-112409819D01*
X105739199Y-112409819D01*
X105371639Y-112351604D01*
X105000001Y-112332127D01*
X104999999Y-112332127D01*
X104628360Y-112351604D01*
X104260801Y-112409819D01*
X104260799Y-112409819D01*
X103901321Y-112506141D01*
X103553896Y-112639506D01*
X103222309Y-112808459D01*
X102910205Y-113011141D01*
X102620995Y-113245339D01*
X102620987Y-113245346D01*
X102357846Y-113508487D01*
X102357839Y-113508495D01*
X102220866Y-113677643D01*
X102163379Y-113717354D01*
X102093548Y-113719682D01*
X102033544Y-113683886D01*
X102002418Y-113621333D01*
X102000500Y-113599607D01*
X102000500Y-111042882D01*
X141292000Y-111042882D01*
X141292000Y-112957118D01*
X141294749Y-113003263D01*
X141294749Y-113003267D01*
X141294750Y-113003268D01*
X141338407Y-113203961D01*
X141338409Y-113203968D01*
X141396967Y-113340712D01*
X141419263Y-113392777D01*
X141419266Y-113392781D01*
X141534382Y-113562868D01*
X141534390Y-113562877D01*
X141679622Y-113708109D01*
X141679631Y-113708117D01*
X141779892Y-113775974D01*
X141849723Y-113823237D01*
X141849728Y-113823239D01*
X142038531Y-113904090D01*
X142038538Y-113904092D01*
X142105435Y-113918644D01*
X142239237Y-113947751D01*
X142285382Y-113950500D01*
X142285393Y-113950500D01*
X144199607Y-113950500D01*
X144199618Y-113950500D01*
X144245763Y-113947751D01*
X144421454Y-113909531D01*
X144446461Y-113904092D01*
X144446468Y-113904090D01*
X144509402Y-113877139D01*
X144635277Y-113823237D01*
X144805375Y-113708112D01*
X144950612Y-113562875D01*
X145065737Y-113392777D01*
X145134621Y-113231917D01*
X155125000Y-113231917D01*
X155125000Y-114567500D01*
X155601518Y-114567500D01*
X155590889Y-114585909D01*
X155550000Y-114738509D01*
X155550000Y-114896491D01*
X155590889Y-115049091D01*
X155601518Y-115067500D01*
X155125000Y-115067500D01*
X155125000Y-116403082D01*
X155135620Y-116475982D01*
X155190587Y-116588418D01*
X155279081Y-116676912D01*
X155391517Y-116731879D01*
X155464418Y-116742500D01*
X155900000Y-116742500D01*
X155900000Y-115365982D01*
X155918409Y-115376611D01*
X156071009Y-115417500D01*
X156228991Y-115417500D01*
X156381591Y-115376611D01*
X156400000Y-115365982D01*
X156400000Y-116742500D01*
X156835582Y-116742500D01*
X156908482Y-116731879D01*
X157020918Y-116676912D01*
X157109412Y-116588418D01*
X157164379Y-116475982D01*
X157175000Y-116403082D01*
X157175000Y-115067500D01*
X156698482Y-115067500D01*
X156709111Y-115049091D01*
X156750000Y-114896491D01*
X156750000Y-114738509D01*
X156709111Y-114585909D01*
X156698482Y-114567500D01*
X157175000Y-114567500D01*
X157175000Y-113830889D01*
X158859500Y-113830889D01*
X158859500Y-115804110D01*
X158872707Y-115887500D01*
X158886598Y-115975201D01*
X158940127Y-116139945D01*
X159018768Y-116294288D01*
X159120586Y-116434428D01*
X159243072Y-116556914D01*
X159383212Y-116658732D01*
X159537555Y-116737373D01*
X159702299Y-116790902D01*
X159873389Y-116818000D01*
X159873390Y-116818000D01*
X160046610Y-116818000D01*
X160046611Y-116818000D01*
X160217701Y-116790902D01*
X160382445Y-116737373D01*
X160536788Y-116658732D01*
X160676928Y-116556914D01*
X160799414Y-116434428D01*
X160901232Y-116294288D01*
X160979873Y-116139945D01*
X161033402Y-115975201D01*
X161060500Y-115804111D01*
X161060500Y-113830889D01*
X161033402Y-113659799D01*
X160979873Y-113495055D01*
X160901232Y-113340712D01*
X160799414Y-113200572D01*
X160676928Y-113078086D01*
X160536788Y-112976268D01*
X160382445Y-112897627D01*
X160217701Y-112844098D01*
X160217699Y-112844097D01*
X160217698Y-112844097D01*
X160086271Y-112823281D01*
X160046611Y-112817000D01*
X159873389Y-112817000D01*
X159833728Y-112823281D01*
X159702302Y-112844097D01*
X159702299Y-112844098D01*
X159553467Y-112892457D01*
X159537552Y-112897628D01*
X159383211Y-112976268D01*
X159318380Y-113023371D01*
X159243072Y-113078086D01*
X159243070Y-113078088D01*
X159243069Y-113078088D01*
X159120588Y-113200569D01*
X159120588Y-113200570D01*
X159120586Y-113200572D01*
X159088061Y-113245339D01*
X159018768Y-113340711D01*
X158940128Y-113495052D01*
X158886597Y-113659802D01*
X158859500Y-113830889D01*
X157175000Y-113830889D01*
X157175000Y-113231917D01*
X157164379Y-113159017D01*
X157109412Y-113046581D01*
X157020918Y-112958087D01*
X156908482Y-112903120D01*
X156835582Y-112892500D01*
X156400000Y-112892500D01*
X156400000Y-114269017D01*
X156381591Y-114258389D01*
X156228991Y-114217500D01*
X156071009Y-114217500D01*
X155918409Y-114258389D01*
X155900000Y-114269017D01*
X155900000Y-112892500D01*
X155464418Y-112892500D01*
X155391517Y-112903120D01*
X155279081Y-112958087D01*
X155190587Y-113046581D01*
X155135620Y-113159017D01*
X155125000Y-113231917D01*
X145134621Y-113231917D01*
X145146590Y-113203968D01*
X145146592Y-113203961D01*
X145162215Y-113132143D01*
X145190251Y-113003263D01*
X145193000Y-112957118D01*
X145193000Y-111042882D01*
X145190251Y-110996737D01*
X145153595Y-110828230D01*
X145151261Y-110817500D01*
X171174417Y-110817500D01*
X171194699Y-111023432D01*
X171208067Y-111067500D01*
X171254768Y-111221454D01*
X171352315Y-111403950D01*
X171352317Y-111403952D01*
X171483589Y-111563910D01*
X171580209Y-111643202D01*
X171643550Y-111695185D01*
X171826046Y-111792732D01*
X172024066Y-111852800D01*
X172024065Y-111852800D01*
X172042529Y-111854618D01*
X172230000Y-111873083D01*
X172435934Y-111852800D01*
X172633954Y-111792732D01*
X172816450Y-111695185D01*
X172976410Y-111563910D01*
X173107685Y-111403950D01*
X173205232Y-111221454D01*
X173265300Y-111023434D01*
X173285583Y-110817500D01*
X173265300Y-110611566D01*
X173205232Y-110413546D01*
X173107685Y-110231050D01*
X173055702Y-110167709D01*
X172976410Y-110071089D01*
X172858677Y-109974469D01*
X172835182Y-109955188D01*
X173795000Y-109955188D01*
X173795000Y-110567500D01*
X174336988Y-110567500D01*
X174304075Y-110624507D01*
X174270000Y-110751674D01*
X174270000Y-110883326D01*
X174304075Y-111010493D01*
X174336988Y-111067500D01*
X173795001Y-111067500D01*
X173795001Y-111679816D01*
X173802251Y-111716272D01*
X173829880Y-111757619D01*
X173871226Y-111785247D01*
X173907688Y-111792499D01*
X174519999Y-111792499D01*
X174520000Y-111792498D01*
X174520000Y-111250512D01*
X174577007Y-111283425D01*
X174704174Y-111317500D01*
X174835826Y-111317500D01*
X174962993Y-111283425D01*
X175020000Y-111250512D01*
X175020000Y-111792499D01*
X175632310Y-111792499D01*
X175632316Y-111792498D01*
X175668772Y-111785248D01*
X175710119Y-111757619D01*
X175737747Y-111716273D01*
X175745000Y-111679811D01*
X175745000Y-111067500D01*
X175203012Y-111067500D01*
X175235925Y-111010493D01*
X175270000Y-110883326D01*
X175270000Y-110751674D01*
X175235925Y-110624507D01*
X175203012Y-110567500D01*
X175744999Y-110567500D01*
X175744999Y-109955190D01*
X175744998Y-109955183D01*
X175737748Y-109918727D01*
X175710119Y-109877380D01*
X175668773Y-109849752D01*
X175632312Y-109842500D01*
X175020000Y-109842500D01*
X175020000Y-110384488D01*
X174962993Y-110351575D01*
X174835826Y-110317500D01*
X174704174Y-110317500D01*
X174577007Y-110351575D01*
X174520000Y-110384488D01*
X174520000Y-109842500D01*
X173907691Y-109842500D01*
X173907683Y-109842501D01*
X173871227Y-109849751D01*
X173829880Y-109877380D01*
X173802252Y-109918726D01*
X173795000Y-109955188D01*
X172835182Y-109955188D01*
X172816450Y-109939815D01*
X172633954Y-109842268D01*
X172435934Y-109782200D01*
X172435932Y-109782199D01*
X172435934Y-109782199D01*
X172230000Y-109761917D01*
X172024067Y-109782199D01*
X171826043Y-109842269D01*
X171715898Y-109901143D01*
X171643550Y-109939815D01*
X171643548Y-109939816D01*
X171643547Y-109939817D01*
X171483589Y-110071089D01*
X171352317Y-110231047D01*
X171254769Y-110413543D01*
X171194699Y-110611567D01*
X171174417Y-110817500D01*
X145151261Y-110817500D01*
X145146592Y-110796038D01*
X145146590Y-110796031D01*
X145065739Y-110607228D01*
X145065737Y-110607223D01*
X145000269Y-110510493D01*
X144950617Y-110437131D01*
X144950609Y-110437122D01*
X144805377Y-110291890D01*
X144805368Y-110291882D01*
X144635281Y-110176766D01*
X144635277Y-110176763D01*
X144635273Y-110176761D01*
X144635271Y-110176760D01*
X144446468Y-110095909D01*
X144446461Y-110095907D01*
X144245768Y-110052250D01*
X144245767Y-110052249D01*
X144245763Y-110052249D01*
X144199618Y-110049500D01*
X142285382Y-110049500D01*
X142239237Y-110052249D01*
X142239232Y-110052249D01*
X142239231Y-110052250D01*
X142038538Y-110095907D01*
X142038531Y-110095909D01*
X141849728Y-110176760D01*
X141849718Y-110176766D01*
X141679631Y-110291882D01*
X141679622Y-110291890D01*
X141534390Y-110437122D01*
X141534382Y-110437131D01*
X141419266Y-110607218D01*
X141419260Y-110607228D01*
X141338409Y-110796031D01*
X141338407Y-110796038D01*
X141304807Y-110950499D01*
X141294749Y-110996737D01*
X141292000Y-111042882D01*
X102000500Y-111042882D01*
X102000500Y-107500000D01*
X119244353Y-107500000D01*
X119264834Y-107642456D01*
X119295660Y-107709954D01*
X119324623Y-107773373D01*
X119418872Y-107882143D01*
X119539947Y-107959953D01*
X119539950Y-107959954D01*
X119539949Y-107959954D01*
X119637545Y-107988610D01*
X119671411Y-107998554D01*
X119678036Y-108000499D01*
X119678038Y-108000500D01*
X119678039Y-108000500D01*
X119821962Y-108000500D01*
X119821962Y-108000499D01*
X119960053Y-107959953D01*
X120081128Y-107882143D01*
X120175377Y-107773373D01*
X120235165Y-107642457D01*
X120255647Y-107500000D01*
X130994353Y-107500000D01*
X131014834Y-107642456D01*
X131045660Y-107709954D01*
X131074623Y-107773373D01*
X131168872Y-107882143D01*
X131289947Y-107959953D01*
X131289950Y-107959954D01*
X131289949Y-107959954D01*
X131387545Y-107988610D01*
X131421411Y-107998554D01*
X131428036Y-108000499D01*
X131428038Y-108000500D01*
X131428039Y-108000500D01*
X131571962Y-108000500D01*
X131571962Y-108000499D01*
X131710053Y-107959953D01*
X131831128Y-107882143D01*
X131925377Y-107773373D01*
X131985165Y-107642457D01*
X132005647Y-107500000D01*
X131985165Y-107357543D01*
X131927030Y-107230247D01*
X136592000Y-107230247D01*
X136592000Y-110769752D01*
X136603631Y-110828229D01*
X136603632Y-110828230D01*
X136647947Y-110894552D01*
X136714269Y-110938867D01*
X136714270Y-110938868D01*
X136772747Y-110950499D01*
X136772750Y-110950500D01*
X136772752Y-110950500D01*
X140312250Y-110950500D01*
X140312251Y-110950499D01*
X140327068Y-110947552D01*
X140370729Y-110938868D01*
X140370729Y-110938867D01*
X140370731Y-110938867D01*
X140437052Y-110894552D01*
X140481367Y-110828231D01*
X140481367Y-110828229D01*
X140481368Y-110828229D01*
X140492999Y-110769752D01*
X140493000Y-110769750D01*
X140493000Y-108277500D01*
X171174417Y-108277500D01*
X171194699Y-108483432D01*
X171194700Y-108483434D01*
X171254768Y-108681454D01*
X171352315Y-108863950D01*
X171352317Y-108863952D01*
X171483589Y-109023910D01*
X171580209Y-109103202D01*
X171643550Y-109155185D01*
X171826046Y-109252732D01*
X172024066Y-109312800D01*
X172024065Y-109312800D01*
X172042529Y-109314618D01*
X172230000Y-109333083D01*
X172435934Y-109312800D01*
X172633954Y-109252732D01*
X172816450Y-109155185D01*
X172976410Y-109023910D01*
X173107685Y-108863950D01*
X173205232Y-108681454D01*
X173265300Y-108483434D01*
X173285583Y-108277500D01*
X173265300Y-108071566D01*
X173205232Y-107873546D01*
X173107685Y-107691050D01*
X173039153Y-107607543D01*
X172976410Y-107531089D01*
X172816452Y-107399817D01*
X172816453Y-107399817D01*
X172816450Y-107399815D01*
X172633954Y-107302268D01*
X172435934Y-107242200D01*
X172435932Y-107242199D01*
X172435934Y-107242199D01*
X172230000Y-107221917D01*
X172024067Y-107242199D01*
X171826043Y-107302269D01*
X171728674Y-107354315D01*
X171643550Y-107399815D01*
X171643548Y-107399816D01*
X171643547Y-107399817D01*
X171483589Y-107531089D01*
X171352317Y-107691047D01*
X171254769Y-107873543D01*
X171194699Y-108071567D01*
X171174417Y-108277500D01*
X140493000Y-108277500D01*
X140493000Y-107230249D01*
X140492999Y-107230247D01*
X140481368Y-107171770D01*
X140481367Y-107171769D01*
X140437052Y-107105447D01*
X140370730Y-107061132D01*
X140370729Y-107061131D01*
X140312252Y-107049500D01*
X140312248Y-107049500D01*
X136772752Y-107049500D01*
X136772747Y-107049500D01*
X136714270Y-107061131D01*
X136714269Y-107061132D01*
X136647947Y-107105447D01*
X136603632Y-107171769D01*
X136603631Y-107171770D01*
X136592000Y-107230247D01*
X131927030Y-107230247D01*
X131925377Y-107226627D01*
X131831128Y-107117857D01*
X131710053Y-107040047D01*
X131710051Y-107040046D01*
X131710049Y-107040045D01*
X131710050Y-107040045D01*
X131571963Y-106999500D01*
X131571961Y-106999500D01*
X131428039Y-106999500D01*
X131428036Y-106999500D01*
X131289949Y-107040045D01*
X131168873Y-107117856D01*
X131074623Y-107226626D01*
X131074622Y-107226628D01*
X131014834Y-107357543D01*
X130994353Y-107500000D01*
X120255647Y-107500000D01*
X120235165Y-107357543D01*
X120175377Y-107226627D01*
X120081128Y-107117857D01*
X119960053Y-107040047D01*
X119960051Y-107040046D01*
X119960049Y-107040045D01*
X119960050Y-107040045D01*
X119821963Y-106999500D01*
X119821961Y-106999500D01*
X119678039Y-106999500D01*
X119678036Y-106999500D01*
X119539949Y-107040045D01*
X119418873Y-107117856D01*
X119324623Y-107226626D01*
X119324622Y-107226628D01*
X119264834Y-107357543D01*
X119244353Y-107500000D01*
X102000500Y-107500000D01*
X102000500Y-105750000D01*
X161744353Y-105750000D01*
X161764834Y-105892456D01*
X161813720Y-105999500D01*
X161824623Y-106023373D01*
X161918872Y-106132143D01*
X161926324Y-106136932D01*
X161939943Y-106145685D01*
X161985698Y-106198489D01*
X161995641Y-106267648D01*
X161966615Y-106331203D01*
X161939943Y-106354315D01*
X161918874Y-106367855D01*
X161824623Y-106476626D01*
X161824622Y-106476628D01*
X161764834Y-106607543D01*
X161744353Y-106750000D01*
X161764834Y-106892456D01*
X161803275Y-106976628D01*
X161824623Y-107023373D01*
X161918872Y-107132143D01*
X161924315Y-107135641D01*
X161939943Y-107145685D01*
X161985698Y-107198489D01*
X161995641Y-107267648D01*
X161966615Y-107331203D01*
X161939943Y-107354315D01*
X161918874Y-107367855D01*
X161824623Y-107476626D01*
X161824622Y-107476628D01*
X161764834Y-107607543D01*
X161744353Y-107750000D01*
X161764834Y-107892456D01*
X161795660Y-107959954D01*
X161824623Y-108023373D01*
X161918872Y-108132143D01*
X162039947Y-108209953D01*
X162039950Y-108209954D01*
X162039949Y-108209954D01*
X162178036Y-108250499D01*
X162178038Y-108250500D01*
X162178039Y-108250500D01*
X162321962Y-108250500D01*
X162321962Y-108250499D01*
X162460053Y-108209953D01*
X162581128Y-108132143D01*
X162675377Y-108023373D01*
X162735165Y-107892457D01*
X162755647Y-107750000D01*
X162735165Y-107607543D01*
X162675377Y-107476627D01*
X162581128Y-107367857D01*
X162581125Y-107367855D01*
X162581125Y-107367854D01*
X162560058Y-107354316D01*
X162514302Y-107301513D01*
X162504358Y-107232354D01*
X162533382Y-107168798D01*
X162560058Y-107145684D01*
X162581125Y-107132145D01*
X162581125Y-107132144D01*
X162581128Y-107132143D01*
X162675377Y-107023373D01*
X162735165Y-106892457D01*
X162755647Y-106750000D01*
X162735165Y-106607543D01*
X162686051Y-106500000D01*
X168494353Y-106500000D01*
X168514834Y-106642456D01*
X168518120Y-106649651D01*
X168574623Y-106773373D01*
X168668872Y-106882143D01*
X168789947Y-106959953D01*
X168789950Y-106959954D01*
X168789949Y-106959954D01*
X168922990Y-106999018D01*
X168981769Y-107036792D01*
X169010794Y-107100347D01*
X169010794Y-107135641D01*
X168994353Y-107249998D01*
X168994353Y-107249999D01*
X169014834Y-107392456D01*
X169053275Y-107476628D01*
X169074623Y-107523373D01*
X169168872Y-107632143D01*
X169289947Y-107709953D01*
X169289950Y-107709954D01*
X169289949Y-107709954D01*
X169397107Y-107741417D01*
X169426336Y-107750000D01*
X169428036Y-107750499D01*
X169428038Y-107750500D01*
X169428039Y-107750500D01*
X169571962Y-107750500D01*
X169571962Y-107750499D01*
X169710053Y-107709953D01*
X169831128Y-107632143D01*
X169925377Y-107523373D01*
X169985165Y-107392457D01*
X170005647Y-107250000D01*
X169985165Y-107107543D01*
X169925377Y-106976627D01*
X169831128Y-106867857D01*
X169710053Y-106790047D01*
X169710050Y-106790045D01*
X169577008Y-106750981D01*
X169518230Y-106713207D01*
X169489205Y-106649651D01*
X169489205Y-106614357D01*
X169490185Y-106607543D01*
X169505647Y-106500000D01*
X169485165Y-106357543D01*
X169425377Y-106226627D01*
X169331128Y-106117857D01*
X169210053Y-106040047D01*
X169210051Y-106040046D01*
X169210049Y-106040045D01*
X169210050Y-106040045D01*
X169071963Y-105999500D01*
X169071961Y-105999500D01*
X168928039Y-105999500D01*
X168928036Y-105999500D01*
X168789949Y-106040045D01*
X168668873Y-106117856D01*
X168574623Y-106226626D01*
X168574622Y-106226628D01*
X168514834Y-106357543D01*
X168494353Y-106500000D01*
X162686051Y-106500000D01*
X162675377Y-106476627D01*
X162581128Y-106367857D01*
X162581125Y-106367855D01*
X162581125Y-106367854D01*
X162560058Y-106354316D01*
X162514302Y-106301513D01*
X162504358Y-106232354D01*
X162533382Y-106168798D01*
X162560058Y-106145684D01*
X162581125Y-106132145D01*
X162581125Y-106132144D01*
X162581128Y-106132143D01*
X162675377Y-106023373D01*
X162735165Y-105892457D01*
X162755647Y-105750000D01*
X162753850Y-105737500D01*
X171174417Y-105737500D01*
X171194699Y-105943432D01*
X171194700Y-105943434D01*
X171251944Y-106132145D01*
X171254769Y-106141456D01*
X171261502Y-106154054D01*
X171352315Y-106323950D01*
X171377235Y-106354315D01*
X171483589Y-106483910D01*
X171580209Y-106563202D01*
X171643550Y-106615185D01*
X171826046Y-106712732D01*
X172024066Y-106772800D01*
X172024065Y-106772800D01*
X172042529Y-106774618D01*
X172230000Y-106793083D01*
X172435934Y-106772800D01*
X172633954Y-106712732D01*
X172816450Y-106615185D01*
X172976410Y-106483910D01*
X173107685Y-106323950D01*
X173205232Y-106141454D01*
X173265300Y-105943434D01*
X173285583Y-105737500D01*
X173265300Y-105531566D01*
X173205232Y-105333546D01*
X173107685Y-105151050D01*
X173020984Y-105045404D01*
X172976410Y-104991089D01*
X172836937Y-104876628D01*
X172816450Y-104859815D01*
X172633954Y-104762268D01*
X172435934Y-104702200D01*
X172435932Y-104702199D01*
X172435934Y-104702199D01*
X172230000Y-104681917D01*
X172024067Y-104702199D01*
X171826043Y-104762269D01*
X171715898Y-104821143D01*
X171643550Y-104859815D01*
X171643548Y-104859816D01*
X171643547Y-104859817D01*
X171483589Y-104991089D01*
X171352317Y-105151047D01*
X171254769Y-105333543D01*
X171194699Y-105531567D01*
X171174417Y-105737500D01*
X162753850Y-105737500D01*
X162735165Y-105607543D01*
X162675377Y-105476627D01*
X162581128Y-105367857D01*
X162460053Y-105290047D01*
X162460051Y-105290046D01*
X162460049Y-105290045D01*
X162460050Y-105290045D01*
X162321963Y-105249500D01*
X162321961Y-105249500D01*
X162178039Y-105249500D01*
X162178036Y-105249500D01*
X162039949Y-105290045D01*
X161918873Y-105367856D01*
X161824623Y-105476626D01*
X161824622Y-105476628D01*
X161764834Y-105607543D01*
X161744353Y-105750000D01*
X102000500Y-105750000D01*
X102000500Y-104750000D01*
X112994353Y-104750000D01*
X113014834Y-104892456D01*
X113067433Y-105007629D01*
X113074623Y-105023373D01*
X113168872Y-105132143D01*
X113289947Y-105209953D01*
X113289950Y-105209954D01*
X113289949Y-105209954D01*
X113397107Y-105241417D01*
X113424633Y-105249500D01*
X113428036Y-105250499D01*
X113428038Y-105250500D01*
X113428039Y-105250500D01*
X113571962Y-105250500D01*
X113571962Y-105250499D01*
X113710053Y-105209953D01*
X113831128Y-105132143D01*
X113925377Y-105023373D01*
X113985165Y-104892457D01*
X114005647Y-104750000D01*
X124744353Y-104750000D01*
X124764834Y-104892456D01*
X124817433Y-105007629D01*
X124824623Y-105023373D01*
X124918872Y-105132143D01*
X125039947Y-105209953D01*
X125039950Y-105209954D01*
X125039949Y-105209954D01*
X125147107Y-105241417D01*
X125174633Y-105249500D01*
X125178036Y-105250499D01*
X125178038Y-105250500D01*
X125178039Y-105250500D01*
X125321962Y-105250500D01*
X125321962Y-105250499D01*
X125460053Y-105209953D01*
X125581128Y-105132143D01*
X125675377Y-105023373D01*
X125735165Y-104892457D01*
X125755647Y-104750000D01*
X134994353Y-104750000D01*
X135014834Y-104892456D01*
X135067433Y-105007629D01*
X135074623Y-105023373D01*
X135168872Y-105132143D01*
X135289947Y-105209953D01*
X135289950Y-105209954D01*
X135289949Y-105209954D01*
X135397107Y-105241417D01*
X135424633Y-105249500D01*
X135428036Y-105250499D01*
X135428038Y-105250500D01*
X135428039Y-105250500D01*
X135571962Y-105250500D01*
X135571962Y-105250499D01*
X135710053Y-105209953D01*
X135831128Y-105132143D01*
X135906287Y-105045403D01*
X135965064Y-105007629D01*
X136034934Y-105007629D01*
X136093711Y-105045402D01*
X136168872Y-105132143D01*
X136289947Y-105209953D01*
X136289950Y-105209954D01*
X136289949Y-105209954D01*
X136397107Y-105241417D01*
X136424633Y-105249500D01*
X136428036Y-105250499D01*
X136428038Y-105250500D01*
X136428039Y-105250500D01*
X136571962Y-105250500D01*
X136571962Y-105250499D01*
X136710053Y-105209953D01*
X136831128Y-105132143D01*
X136906287Y-105045403D01*
X136965064Y-105007629D01*
X137034934Y-105007629D01*
X137093711Y-105045402D01*
X137168872Y-105132143D01*
X137289947Y-105209953D01*
X137289950Y-105209954D01*
X137289949Y-105209954D01*
X137397107Y-105241417D01*
X137424633Y-105249500D01*
X137428036Y-105250499D01*
X137428038Y-105250500D01*
X137428039Y-105250500D01*
X137571962Y-105250500D01*
X137571962Y-105250499D01*
X137710053Y-105209953D01*
X137831128Y-105132143D01*
X137906287Y-105045403D01*
X137965064Y-105007629D01*
X138034934Y-105007629D01*
X138093711Y-105045402D01*
X138168872Y-105132143D01*
X138289947Y-105209953D01*
X138289950Y-105209954D01*
X138289949Y-105209954D01*
X138397107Y-105241417D01*
X138424633Y-105249500D01*
X138428036Y-105250499D01*
X138428038Y-105250500D01*
X138428039Y-105250500D01*
X138571962Y-105250500D01*
X138571962Y-105250499D01*
X138710053Y-105209953D01*
X138831128Y-105132143D01*
X138925377Y-105023373D01*
X138936051Y-105000000D01*
X140244353Y-105000000D01*
X140264834Y-105142456D01*
X140295660Y-105209954D01*
X140324623Y-105273373D01*
X140418872Y-105382143D01*
X140539947Y-105459953D01*
X140539950Y-105459954D01*
X140539949Y-105459954D01*
X140678036Y-105500499D01*
X140678038Y-105500500D01*
X140678039Y-105500500D01*
X140821962Y-105500500D01*
X140821962Y-105500499D01*
X140960053Y-105459953D01*
X141081128Y-105382143D01*
X141175377Y-105273373D01*
X141231720Y-105150000D01*
X145444353Y-105150000D01*
X145464834Y-105292456D01*
X145524622Y-105423371D01*
X145524623Y-105423373D01*
X145618872Y-105532143D01*
X145739947Y-105609953D01*
X145739950Y-105609954D01*
X145739949Y-105609954D01*
X145878036Y-105650499D01*
X145878038Y-105650500D01*
X145878039Y-105650500D01*
X146021962Y-105650500D01*
X146021962Y-105650499D01*
X146160053Y-105609953D01*
X146281128Y-105532143D01*
X146375377Y-105423373D01*
X146435165Y-105292457D01*
X146455647Y-105150000D01*
X147742880Y-105150000D01*
X147763361Y-105292456D01*
X147823149Y-105423371D01*
X147823150Y-105423373D01*
X147917399Y-105532143D01*
X148038474Y-105609953D01*
X148038477Y-105609954D01*
X148038476Y-105609954D01*
X148176563Y-105650499D01*
X148176565Y-105650500D01*
X148176566Y-105650500D01*
X148320489Y-105650500D01*
X148320489Y-105650499D01*
X148458580Y-105609953D01*
X148579655Y-105532143D01*
X148673904Y-105423373D01*
X148733692Y-105292457D01*
X148754174Y-105150000D01*
X148733692Y-105007543D01*
X148673904Y-104876627D01*
X148579655Y-104767857D01*
X148458580Y-104690047D01*
X148458578Y-104690046D01*
X148458576Y-104690045D01*
X148458577Y-104690045D01*
X148320490Y-104649500D01*
X148320488Y-104649500D01*
X148176566Y-104649500D01*
X148176563Y-104649500D01*
X148038476Y-104690045D01*
X147917400Y-104767856D01*
X147823150Y-104876626D01*
X147823149Y-104876628D01*
X147763361Y-105007543D01*
X147742880Y-105150000D01*
X146455647Y-105150000D01*
X146435165Y-105007543D01*
X146375377Y-104876627D01*
X146281128Y-104767857D01*
X146160053Y-104690047D01*
X146160051Y-104690046D01*
X146160049Y-104690045D01*
X146160050Y-104690045D01*
X146021963Y-104649500D01*
X146021961Y-104649500D01*
X145878039Y-104649500D01*
X145878036Y-104649500D01*
X145739949Y-104690045D01*
X145618873Y-104767856D01*
X145524623Y-104876626D01*
X145524622Y-104876628D01*
X145464834Y-105007543D01*
X145444353Y-105150000D01*
X141231720Y-105150000D01*
X141235165Y-105142457D01*
X141255647Y-105000000D01*
X141235165Y-104857543D01*
X141175377Y-104726627D01*
X141081128Y-104617857D01*
X140960053Y-104540047D01*
X140960051Y-104540046D01*
X140960049Y-104540045D01*
X140960050Y-104540045D01*
X140821963Y-104499500D01*
X140821961Y-104499500D01*
X140678039Y-104499500D01*
X140678036Y-104499500D01*
X140539949Y-104540045D01*
X140418873Y-104617856D01*
X140324623Y-104726626D01*
X140324622Y-104726628D01*
X140264834Y-104857543D01*
X140244353Y-105000000D01*
X138936051Y-105000000D01*
X138985165Y-104892457D01*
X139005647Y-104750000D01*
X138985165Y-104607543D01*
X138925377Y-104476627D01*
X138831128Y-104367857D01*
X138710053Y-104290047D01*
X138710051Y-104290046D01*
X138710049Y-104290045D01*
X138710050Y-104290045D01*
X138571963Y-104249500D01*
X138571961Y-104249500D01*
X138428039Y-104249500D01*
X138428036Y-104249500D01*
X138289949Y-104290045D01*
X138168873Y-104367856D01*
X138093713Y-104454596D01*
X138034935Y-104492370D01*
X137965065Y-104492370D01*
X137906287Y-104454596D01*
X137831128Y-104367857D01*
X137710053Y-104290047D01*
X137710051Y-104290046D01*
X137710049Y-104290045D01*
X137710050Y-104290045D01*
X137571963Y-104249500D01*
X137571961Y-104249500D01*
X137428039Y-104249500D01*
X137428036Y-104249500D01*
X137289949Y-104290045D01*
X137168873Y-104367856D01*
X137093713Y-104454596D01*
X137034935Y-104492370D01*
X136965065Y-104492370D01*
X136906287Y-104454596D01*
X136831128Y-104367857D01*
X136710053Y-104290047D01*
X136710051Y-104290046D01*
X136710049Y-104290045D01*
X136710050Y-104290045D01*
X136571963Y-104249500D01*
X136571961Y-104249500D01*
X136428039Y-104249500D01*
X136428036Y-104249500D01*
X136289949Y-104290045D01*
X136168873Y-104367856D01*
X136093713Y-104454596D01*
X136034935Y-104492370D01*
X135965065Y-104492370D01*
X135906287Y-104454596D01*
X135831128Y-104367857D01*
X135710053Y-104290047D01*
X135710051Y-104290046D01*
X135710049Y-104290045D01*
X135710050Y-104290045D01*
X135571963Y-104249500D01*
X135571961Y-104249500D01*
X135428039Y-104249500D01*
X135428036Y-104249500D01*
X135289949Y-104290045D01*
X135168873Y-104367856D01*
X135074623Y-104476626D01*
X135074622Y-104476628D01*
X135014834Y-104607543D01*
X134994353Y-104750000D01*
X125755647Y-104750000D01*
X125735165Y-104607543D01*
X125675377Y-104476627D01*
X125581128Y-104367857D01*
X125460053Y-104290047D01*
X125460051Y-104290046D01*
X125460049Y-104290045D01*
X125460050Y-104290045D01*
X125321963Y-104249500D01*
X125321961Y-104249500D01*
X125178039Y-104249500D01*
X125178036Y-104249500D01*
X125039949Y-104290045D01*
X124918873Y-104367856D01*
X124824623Y-104476626D01*
X124824622Y-104476628D01*
X124764834Y-104607543D01*
X124744353Y-104750000D01*
X114005647Y-104750000D01*
X113985165Y-104607543D01*
X113925377Y-104476627D01*
X113831128Y-104367857D01*
X113710053Y-104290047D01*
X113710051Y-104290046D01*
X113710049Y-104290045D01*
X113710050Y-104290045D01*
X113571963Y-104249500D01*
X113571961Y-104249500D01*
X113428039Y-104249500D01*
X113428036Y-104249500D01*
X113289949Y-104290045D01*
X113168873Y-104367856D01*
X113074623Y-104476626D01*
X113074622Y-104476628D01*
X113014834Y-104607543D01*
X112994353Y-104750000D01*
X102000500Y-104750000D01*
X102000500Y-102775000D01*
X126466853Y-102775000D01*
X126487334Y-102917456D01*
X126516876Y-102982143D01*
X126547123Y-103048373D01*
X126641372Y-103157143D01*
X126762447Y-103234953D01*
X126762450Y-103234954D01*
X126762449Y-103234954D01*
X126900536Y-103275499D01*
X126900538Y-103275500D01*
X126900539Y-103275500D01*
X127044462Y-103275500D01*
X127044462Y-103275499D01*
X127131306Y-103250000D01*
X141744353Y-103250000D01*
X141764834Y-103392456D01*
X141769847Y-103403432D01*
X141824623Y-103523373D01*
X141918872Y-103632143D01*
X142039947Y-103709953D01*
X142039950Y-103709954D01*
X142039949Y-103709954D01*
X142178036Y-103750499D01*
X142178038Y-103750500D01*
X142178039Y-103750500D01*
X142321962Y-103750500D01*
X142321962Y-103750499D01*
X142460053Y-103709953D01*
X142581128Y-103632143D01*
X142675377Y-103523373D01*
X142735165Y-103392457D01*
X142755647Y-103250000D01*
X142735165Y-103107543D01*
X142675377Y-102976627D01*
X142581128Y-102867857D01*
X142460053Y-102790047D01*
X142460051Y-102790046D01*
X142460049Y-102790045D01*
X142460050Y-102790045D01*
X142321963Y-102749500D01*
X142321961Y-102749500D01*
X142178039Y-102749500D01*
X142178036Y-102749500D01*
X142039949Y-102790045D01*
X141918873Y-102867856D01*
X141824623Y-102976626D01*
X141824622Y-102976628D01*
X141764834Y-103107543D01*
X141744353Y-103250000D01*
X127131306Y-103250000D01*
X127182553Y-103234953D01*
X127303628Y-103157143D01*
X127397877Y-103048373D01*
X127457665Y-102917457D01*
X127478147Y-102775000D01*
X127457665Y-102632543D01*
X127397877Y-102501627D01*
X127303628Y-102392857D01*
X127182553Y-102315047D01*
X127182551Y-102315046D01*
X127182549Y-102315045D01*
X127182550Y-102315045D01*
X127044463Y-102274500D01*
X127044461Y-102274500D01*
X126900539Y-102274500D01*
X126900536Y-102274500D01*
X126762449Y-102315045D01*
X126641373Y-102392856D01*
X126547123Y-102501626D01*
X126547122Y-102501628D01*
X126487334Y-102632543D01*
X126466853Y-102775000D01*
X102000500Y-102775000D01*
X102000500Y-102000000D01*
X141744353Y-102000000D01*
X141764834Y-102142456D01*
X141824622Y-102273371D01*
X141824623Y-102273373D01*
X141918872Y-102382143D01*
X142039947Y-102459953D01*
X142039950Y-102459954D01*
X142039949Y-102459954D01*
X142147107Y-102491417D01*
X142170788Y-102498371D01*
X142178036Y-102500499D01*
X142178038Y-102500500D01*
X142178039Y-102500500D01*
X142321962Y-102500500D01*
X142321962Y-102500499D01*
X142460053Y-102459953D01*
X142581128Y-102382143D01*
X142675377Y-102273373D01*
X142697468Y-102225000D01*
X145094353Y-102225000D01*
X145114834Y-102367456D01*
X145137852Y-102417857D01*
X145174623Y-102498373D01*
X145268872Y-102607143D01*
X145389947Y-102684953D01*
X145389950Y-102684954D01*
X145389949Y-102684954D01*
X145528036Y-102725499D01*
X145528038Y-102725500D01*
X145528039Y-102725500D01*
X145671962Y-102725500D01*
X145671962Y-102725499D01*
X145810053Y-102684953D01*
X145865863Y-102649085D01*
X145932898Y-102629402D01*
X145999938Y-102649086D01*
X146026613Y-102672200D01*
X146037663Y-102684953D01*
X146061857Y-102712874D01*
X146182932Y-102790684D01*
X146182935Y-102790685D01*
X146182934Y-102790685D01*
X146321021Y-102831230D01*
X146321023Y-102831231D01*
X146321024Y-102831231D01*
X146464947Y-102831231D01*
X146464947Y-102831230D01*
X146603038Y-102790684D01*
X146724113Y-102712874D01*
X146818362Y-102604104D01*
X146820236Y-102600000D01*
X164094353Y-102600000D01*
X164114834Y-102742456D01*
X164172103Y-102867856D01*
X164174623Y-102873373D01*
X164268872Y-102982143D01*
X164389947Y-103059953D01*
X164389950Y-103059954D01*
X164389949Y-103059954D01*
X164528036Y-103100499D01*
X164528038Y-103100500D01*
X164528039Y-103100500D01*
X164671962Y-103100500D01*
X164671962Y-103100499D01*
X164804032Y-103061721D01*
X164810050Y-103059954D01*
X164810051Y-103059954D01*
X164810053Y-103059953D01*
X164889469Y-103008915D01*
X164956506Y-102989231D01*
X165023546Y-103008915D01*
X165069301Y-103061719D01*
X165069302Y-103061721D01*
X165074622Y-103073372D01*
X165074623Y-103073373D01*
X165168872Y-103182143D01*
X165289947Y-103259953D01*
X165289950Y-103259954D01*
X165289949Y-103259954D01*
X165428036Y-103300499D01*
X165428038Y-103300500D01*
X165428039Y-103300500D01*
X165571962Y-103300500D01*
X165571962Y-103300499D01*
X165710053Y-103259953D01*
X165807232Y-103197500D01*
X171174417Y-103197500D01*
X171194699Y-103403432D01*
X171194700Y-103403434D01*
X171254768Y-103601454D01*
X171352315Y-103783950D01*
X171352317Y-103783952D01*
X171483589Y-103943910D01*
X171580209Y-104023202D01*
X171643550Y-104075185D01*
X171826046Y-104172732D01*
X172024066Y-104232800D01*
X172024065Y-104232800D01*
X172042529Y-104234618D01*
X172230000Y-104253083D01*
X172435934Y-104232800D01*
X172633954Y-104172732D01*
X172816450Y-104075185D01*
X172976410Y-103943910D01*
X173107685Y-103783950D01*
X173205232Y-103601454D01*
X173265300Y-103403434D01*
X173285583Y-103197500D01*
X173265300Y-102991566D01*
X173205232Y-102793546D01*
X173107685Y-102611050D01*
X173038401Y-102526627D01*
X172976410Y-102451089D01*
X172829751Y-102330731D01*
X172816450Y-102319815D01*
X172633954Y-102222268D01*
X172435934Y-102162200D01*
X172435932Y-102162199D01*
X172435934Y-102162199D01*
X172230000Y-102141917D01*
X172024067Y-102162199D01*
X171826043Y-102222269D01*
X171730440Y-102273371D01*
X171643550Y-102319815D01*
X171643548Y-102319816D01*
X171643547Y-102319817D01*
X171483589Y-102451089D01*
X171352317Y-102611047D01*
X171254769Y-102793543D01*
X171194699Y-102991567D01*
X171174417Y-103197500D01*
X165807232Y-103197500D01*
X165831128Y-103182143D01*
X165925377Y-103073373D01*
X165985165Y-102942457D01*
X166005647Y-102800000D01*
X165985165Y-102657543D01*
X165925377Y-102526627D01*
X165831128Y-102417857D01*
X165710053Y-102340047D01*
X165710051Y-102340046D01*
X165710049Y-102340045D01*
X165710050Y-102340045D01*
X165571963Y-102299500D01*
X165571961Y-102299500D01*
X165428039Y-102299500D01*
X165428036Y-102299500D01*
X165289949Y-102340045D01*
X165289945Y-102340047D01*
X165210530Y-102391083D01*
X165143490Y-102410767D01*
X165076451Y-102391081D01*
X165030697Y-102338277D01*
X165025377Y-102326627D01*
X164931128Y-102217857D01*
X164810053Y-102140047D01*
X164810051Y-102140046D01*
X164810049Y-102140045D01*
X164810050Y-102140045D01*
X164671963Y-102099500D01*
X164671961Y-102099500D01*
X164528039Y-102099500D01*
X164528036Y-102099500D01*
X164389949Y-102140045D01*
X164268873Y-102217856D01*
X164174623Y-102326626D01*
X164174622Y-102326628D01*
X164114834Y-102457543D01*
X164094353Y-102600000D01*
X146820236Y-102600000D01*
X146878150Y-102473188D01*
X146898632Y-102330731D01*
X146878150Y-102188274D01*
X146818362Y-102057358D01*
X146724113Y-101948588D01*
X146603038Y-101870778D01*
X146603036Y-101870777D01*
X146603034Y-101870776D01*
X146603035Y-101870776D01*
X146464948Y-101830231D01*
X146464946Y-101830231D01*
X146321024Y-101830231D01*
X146321021Y-101830231D01*
X146182934Y-101870776D01*
X146127123Y-101906644D01*
X146060083Y-101926328D01*
X145993044Y-101906643D01*
X145966371Y-101883530D01*
X145931129Y-101842858D01*
X145931128Y-101842857D01*
X145810053Y-101765047D01*
X145810051Y-101765046D01*
X145810049Y-101765045D01*
X145810050Y-101765045D01*
X145671963Y-101724500D01*
X145671961Y-101724500D01*
X145528039Y-101724500D01*
X145528036Y-101724500D01*
X145389949Y-101765045D01*
X145268873Y-101842856D01*
X145174623Y-101951626D01*
X145174622Y-101951628D01*
X145114834Y-102082543D01*
X145094353Y-102225000D01*
X142697468Y-102225000D01*
X142735165Y-102142457D01*
X142755647Y-102000000D01*
X142735165Y-101857543D01*
X142675377Y-101726627D01*
X142581128Y-101617857D01*
X142460053Y-101540047D01*
X142460051Y-101540046D01*
X142460049Y-101540045D01*
X142460050Y-101540045D01*
X142321963Y-101499500D01*
X142321961Y-101499500D01*
X142178039Y-101499500D01*
X142178036Y-101499500D01*
X142039949Y-101540045D01*
X141918873Y-101617856D01*
X141824623Y-101726626D01*
X141824622Y-101726628D01*
X141764834Y-101857543D01*
X141744353Y-102000000D01*
X102000500Y-102000000D01*
X102000500Y-101000000D01*
X151244353Y-101000000D01*
X151264834Y-101142456D01*
X151311186Y-101243950D01*
X151324623Y-101273373D01*
X151418872Y-101382143D01*
X151426324Y-101386932D01*
X151439943Y-101395685D01*
X151485698Y-101448489D01*
X151495641Y-101517648D01*
X151466615Y-101581203D01*
X151439943Y-101604315D01*
X151418874Y-101617855D01*
X151324623Y-101726626D01*
X151324622Y-101726628D01*
X151264834Y-101857543D01*
X151244353Y-102000000D01*
X151264834Y-102142456D01*
X151324622Y-102273371D01*
X151324623Y-102273373D01*
X151418872Y-102382143D01*
X151539947Y-102459953D01*
X151539950Y-102459954D01*
X151539949Y-102459954D01*
X151647107Y-102491417D01*
X151670788Y-102498371D01*
X151678036Y-102500499D01*
X151678038Y-102500500D01*
X151678039Y-102500500D01*
X151821962Y-102500500D01*
X151821962Y-102500499D01*
X151960053Y-102459953D01*
X152081128Y-102382143D01*
X152175377Y-102273373D01*
X152235165Y-102142457D01*
X152255647Y-102000000D01*
X152235165Y-101857543D01*
X152175377Y-101726627D01*
X152081128Y-101617857D01*
X152081125Y-101617855D01*
X152081125Y-101617854D01*
X152060058Y-101604316D01*
X152014302Y-101551513D01*
X152004358Y-101482354D01*
X152033382Y-101418798D01*
X152060058Y-101395684D01*
X152081125Y-101382145D01*
X152081125Y-101382144D01*
X152081128Y-101382143D01*
X152175377Y-101273373D01*
X152235165Y-101142457D01*
X152255647Y-101000000D01*
X152235165Y-100857543D01*
X152175377Y-100726627D01*
X152115479Y-100657500D01*
X171174417Y-100657500D01*
X171194699Y-100863432D01*
X171194700Y-100863434D01*
X171254768Y-101061454D01*
X171352315Y-101243950D01*
X171352317Y-101243952D01*
X171483589Y-101403910D01*
X171537910Y-101448489D01*
X171643550Y-101535185D01*
X171826046Y-101632732D01*
X172024066Y-101692800D01*
X172024065Y-101692800D01*
X172042529Y-101694618D01*
X172230000Y-101713083D01*
X172435934Y-101692800D01*
X172633954Y-101632732D01*
X172816450Y-101535185D01*
X172976410Y-101403910D01*
X173107685Y-101243950D01*
X173205232Y-101061454D01*
X173265300Y-100863434D01*
X173285583Y-100657500D01*
X173265300Y-100451566D01*
X173251933Y-100407499D01*
X173826964Y-100407499D01*
X173826965Y-100407500D01*
X174336988Y-100407500D01*
X174304075Y-100464507D01*
X174270000Y-100591674D01*
X174270000Y-100723326D01*
X174304075Y-100850493D01*
X174336988Y-100907500D01*
X173826965Y-100907500D01*
X173864861Y-101032428D01*
X173955390Y-101201796D01*
X173955394Y-101201803D01*
X174077234Y-101350265D01*
X174225696Y-101472105D01*
X174225703Y-101472109D01*
X174395071Y-101562638D01*
X174519999Y-101600535D01*
X174520000Y-101600535D01*
X174520000Y-101090512D01*
X174577007Y-101123425D01*
X174704174Y-101157500D01*
X174835826Y-101157500D01*
X174962993Y-101123425D01*
X175020000Y-101090512D01*
X175020000Y-101600535D01*
X175144928Y-101562638D01*
X175314296Y-101472109D01*
X175314303Y-101472105D01*
X175462765Y-101350265D01*
X175584605Y-101201803D01*
X175584609Y-101201796D01*
X175675138Y-101032428D01*
X175713035Y-100907500D01*
X175203012Y-100907500D01*
X175235925Y-100850493D01*
X175270000Y-100723326D01*
X175270000Y-100591674D01*
X175235925Y-100464507D01*
X175203012Y-100407500D01*
X175713035Y-100407500D01*
X175713035Y-100407499D01*
X175675138Y-100282571D01*
X175584609Y-100113203D01*
X175584605Y-100113196D01*
X175462765Y-99964734D01*
X175314303Y-99842894D01*
X175314296Y-99842890D01*
X175144925Y-99752360D01*
X175144918Y-99752357D01*
X175020001Y-99714463D01*
X175020000Y-99714464D01*
X175020000Y-100224488D01*
X174962993Y-100191575D01*
X174835826Y-100157500D01*
X174704174Y-100157500D01*
X174577007Y-100191575D01*
X174520000Y-100224488D01*
X174520000Y-99714464D01*
X174519998Y-99714463D01*
X174395081Y-99752357D01*
X174395074Y-99752360D01*
X174225703Y-99842890D01*
X174225696Y-99842894D01*
X174077234Y-99964734D01*
X173955394Y-100113196D01*
X173955390Y-100113203D01*
X173864861Y-100282571D01*
X173826964Y-100407499D01*
X173251933Y-100407499D01*
X173205232Y-100253546D01*
X173107685Y-100071050D01*
X173055702Y-100007709D01*
X172976410Y-99911089D01*
X172816452Y-99779817D01*
X172816453Y-99779817D01*
X172816450Y-99779815D01*
X172633954Y-99682268D01*
X172435934Y-99622200D01*
X172435932Y-99622199D01*
X172435934Y-99622199D01*
X172230000Y-99601917D01*
X172024067Y-99622199D01*
X171826043Y-99682269D01*
X171765812Y-99714464D01*
X171643550Y-99779815D01*
X171643548Y-99779816D01*
X171643547Y-99779817D01*
X171483589Y-99911089D01*
X171352317Y-100071047D01*
X171254769Y-100253543D01*
X171194699Y-100451567D01*
X171174417Y-100657500D01*
X152115479Y-100657500D01*
X152081128Y-100617857D01*
X151960053Y-100540047D01*
X151960051Y-100540046D01*
X151960049Y-100540045D01*
X151960050Y-100540045D01*
X151821963Y-100499500D01*
X151821961Y-100499500D01*
X151678039Y-100499500D01*
X151678036Y-100499500D01*
X151539949Y-100540045D01*
X151418873Y-100617856D01*
X151324623Y-100726626D01*
X151324622Y-100726628D01*
X151264834Y-100857543D01*
X151244353Y-101000000D01*
X102000500Y-101000000D01*
X102000500Y-97500000D01*
X112744353Y-97500000D01*
X112764834Y-97642456D01*
X112824622Y-97773371D01*
X112824625Y-97773377D01*
X112842321Y-97793799D01*
X112871345Y-97857355D01*
X112861401Y-97926513D01*
X112842321Y-97956201D01*
X112824625Y-97976622D01*
X112824622Y-97976628D01*
X112764834Y-98107543D01*
X112744353Y-98250000D01*
X112764834Y-98392456D01*
X112824622Y-98523371D01*
X112824625Y-98523377D01*
X112842321Y-98543799D01*
X112871345Y-98607355D01*
X112861401Y-98676513D01*
X112842321Y-98706201D01*
X112824625Y-98726622D01*
X112824622Y-98726628D01*
X112764834Y-98857543D01*
X112744353Y-99000000D01*
X112764834Y-99142456D01*
X112803275Y-99226628D01*
X112824623Y-99273373D01*
X112918872Y-99382143D01*
X113039947Y-99459953D01*
X113039950Y-99459954D01*
X113039949Y-99459954D01*
X113147107Y-99491417D01*
X113176336Y-99500000D01*
X113178036Y-99500499D01*
X113178038Y-99500500D01*
X113178039Y-99500500D01*
X113321962Y-99500500D01*
X113321962Y-99500499D01*
X113460053Y-99459953D01*
X113581128Y-99382143D01*
X113675377Y-99273373D01*
X113735165Y-99142457D01*
X113755647Y-99000000D01*
X113735165Y-98857543D01*
X113675377Y-98726627D01*
X113675375Y-98726625D01*
X113675374Y-98726622D01*
X113657680Y-98706203D01*
X113628654Y-98642648D01*
X113638597Y-98573489D01*
X113657680Y-98543797D01*
X113675374Y-98523377D01*
X113675374Y-98523375D01*
X113675377Y-98523373D01*
X113735165Y-98392457D01*
X113755647Y-98250000D01*
X113735165Y-98107543D01*
X113675377Y-97976627D01*
X113675375Y-97976625D01*
X113675374Y-97976622D01*
X113657680Y-97956203D01*
X113628654Y-97892648D01*
X113638597Y-97823489D01*
X113657680Y-97793797D01*
X113675374Y-97773377D01*
X113675374Y-97773375D01*
X113675377Y-97773373D01*
X113735165Y-97642457D01*
X113755647Y-97500000D01*
X124244353Y-97500000D01*
X124264834Y-97642456D01*
X124324622Y-97773371D01*
X124324625Y-97773377D01*
X124342321Y-97793799D01*
X124371345Y-97857355D01*
X124361401Y-97926513D01*
X124342321Y-97956201D01*
X124324625Y-97976622D01*
X124324622Y-97976628D01*
X124264834Y-98107543D01*
X124244353Y-98250000D01*
X124264834Y-98392456D01*
X124324622Y-98523371D01*
X124324625Y-98523377D01*
X124342321Y-98543799D01*
X124371345Y-98607355D01*
X124361401Y-98676513D01*
X124342321Y-98706201D01*
X124324625Y-98726622D01*
X124324622Y-98726628D01*
X124264834Y-98857543D01*
X124244353Y-99000000D01*
X124264834Y-99142456D01*
X124303275Y-99226628D01*
X124324623Y-99273373D01*
X124418872Y-99382143D01*
X124539947Y-99459953D01*
X124539950Y-99459954D01*
X124539949Y-99459954D01*
X124647107Y-99491417D01*
X124676336Y-99500000D01*
X124678036Y-99500499D01*
X124678038Y-99500500D01*
X124678039Y-99500500D01*
X124821962Y-99500500D01*
X124821962Y-99500499D01*
X124960053Y-99459953D01*
X125081128Y-99382143D01*
X125175377Y-99273373D01*
X125235165Y-99142457D01*
X125255647Y-99000000D01*
X125235165Y-98857543D01*
X125186051Y-98750000D01*
X143994353Y-98750000D01*
X144014834Y-98892456D01*
X144061748Y-98995182D01*
X144074623Y-99023373D01*
X144168872Y-99132143D01*
X144289947Y-99209953D01*
X144289950Y-99209954D01*
X144289949Y-99209954D01*
X144428036Y-99250499D01*
X144428038Y-99250500D01*
X144428039Y-99250500D01*
X144571962Y-99250500D01*
X144571962Y-99250499D01*
X144710053Y-99209953D01*
X144831128Y-99132143D01*
X144925377Y-99023373D01*
X144985165Y-98892457D01*
X145005647Y-98750000D01*
X154994353Y-98750000D01*
X155014834Y-98892456D01*
X155061748Y-98995182D01*
X155074623Y-99023373D01*
X155168872Y-99132143D01*
X155289947Y-99209953D01*
X155289950Y-99209954D01*
X155289949Y-99209954D01*
X155428036Y-99250499D01*
X155428038Y-99250500D01*
X155428039Y-99250500D01*
X155571962Y-99250500D01*
X155571962Y-99250499D01*
X155710053Y-99209953D01*
X155831128Y-99132143D01*
X155906287Y-99045403D01*
X155965064Y-99007629D01*
X156034934Y-99007629D01*
X156093711Y-99045402D01*
X156168872Y-99132143D01*
X156289947Y-99209953D01*
X156289950Y-99209954D01*
X156289949Y-99209954D01*
X156428036Y-99250499D01*
X156428038Y-99250500D01*
X156428039Y-99250500D01*
X156571962Y-99250500D01*
X156571962Y-99250499D01*
X156710053Y-99209953D01*
X156831128Y-99132143D01*
X156925377Y-99023373D01*
X156985165Y-98892457D01*
X157005647Y-98750000D01*
X156985165Y-98607543D01*
X156936051Y-98500000D01*
X168494353Y-98500000D01*
X168514834Y-98642456D01*
X168553275Y-98726628D01*
X168574623Y-98773373D01*
X168668872Y-98882143D01*
X168789947Y-98959953D01*
X168789950Y-98959954D01*
X168789949Y-98959954D01*
X168897107Y-98991417D01*
X168926336Y-99000000D01*
X168928036Y-99000499D01*
X168928038Y-99000500D01*
X168999041Y-99000500D01*
X169066080Y-99020185D01*
X169111835Y-99072989D01*
X169121779Y-99142147D01*
X169092754Y-99205703D01*
X169074623Y-99226627D01*
X169074622Y-99226628D01*
X169014834Y-99357543D01*
X168994353Y-99500000D01*
X169014834Y-99642456D01*
X169074622Y-99773371D01*
X169074623Y-99773373D01*
X169168872Y-99882143D01*
X169289947Y-99959953D01*
X169289950Y-99959954D01*
X169289949Y-99959954D01*
X169428036Y-100000499D01*
X169428038Y-100000500D01*
X169428039Y-100000500D01*
X169571962Y-100000500D01*
X169571962Y-100000499D01*
X169710053Y-99959953D01*
X169831128Y-99882143D01*
X169925377Y-99773373D01*
X169985165Y-99642457D01*
X170005647Y-99500000D01*
X169985165Y-99357543D01*
X169925377Y-99226627D01*
X169831128Y-99117857D01*
X169710053Y-99040047D01*
X169710051Y-99040046D01*
X169710049Y-99040045D01*
X169710050Y-99040045D01*
X169571963Y-98999500D01*
X169571961Y-98999500D01*
X169500959Y-98999500D01*
X169433920Y-98979815D01*
X169388165Y-98927011D01*
X169378221Y-98857853D01*
X169407246Y-98794297D01*
X169425377Y-98773373D01*
X169485165Y-98642457D01*
X169505647Y-98500000D01*
X169485165Y-98357543D01*
X169425377Y-98226627D01*
X169331128Y-98117857D01*
X169330572Y-98117500D01*
X171174417Y-98117500D01*
X171194699Y-98323432D01*
X171208175Y-98367856D01*
X171254768Y-98521454D01*
X171352315Y-98703950D01*
X171370926Y-98726628D01*
X171483589Y-98863910D01*
X171560479Y-98927011D01*
X171643550Y-98995185D01*
X171826046Y-99092732D01*
X172024066Y-99152800D01*
X172024065Y-99152800D01*
X172042529Y-99154618D01*
X172230000Y-99173083D01*
X172435934Y-99152800D01*
X172633954Y-99092732D01*
X172816450Y-98995185D01*
X172976410Y-98863910D01*
X173107685Y-98703950D01*
X173205232Y-98521454D01*
X173265300Y-98323434D01*
X173285583Y-98117500D01*
X173265300Y-97911566D01*
X173205232Y-97713546D01*
X173107685Y-97531050D01*
X173021062Y-97425499D01*
X172976410Y-97371089D01*
X172816452Y-97239817D01*
X172816453Y-97239817D01*
X172816450Y-97239815D01*
X172633954Y-97142268D01*
X172435934Y-97082200D01*
X172435932Y-97082199D01*
X172435934Y-97082199D01*
X172230000Y-97061917D01*
X172024067Y-97082199D01*
X171826043Y-97142269D01*
X171721086Y-97198371D01*
X171643550Y-97239815D01*
X171643548Y-97239816D01*
X171643547Y-97239817D01*
X171483589Y-97371089D01*
X171352317Y-97531047D01*
X171254769Y-97713543D01*
X171194699Y-97911567D01*
X171174417Y-98117500D01*
X169330572Y-98117500D01*
X169210053Y-98040047D01*
X169210051Y-98040046D01*
X169210049Y-98040045D01*
X169210050Y-98040045D01*
X169071963Y-97999500D01*
X169071961Y-97999500D01*
X168928039Y-97999500D01*
X168928036Y-97999500D01*
X168789949Y-98040045D01*
X168668873Y-98117856D01*
X168574623Y-98226626D01*
X168574622Y-98226628D01*
X168514834Y-98357543D01*
X168494353Y-98500000D01*
X156936051Y-98500000D01*
X156925377Y-98476627D01*
X156831128Y-98367857D01*
X156710053Y-98290047D01*
X156710051Y-98290046D01*
X156710049Y-98290045D01*
X156710050Y-98290045D01*
X156571963Y-98249500D01*
X156571961Y-98249500D01*
X156428039Y-98249500D01*
X156428036Y-98249500D01*
X156289949Y-98290045D01*
X156168873Y-98367856D01*
X156093713Y-98454596D01*
X156034935Y-98492370D01*
X155965065Y-98492370D01*
X155906287Y-98454596D01*
X155904970Y-98453076D01*
X155831128Y-98367857D01*
X155710053Y-98290047D01*
X155710051Y-98290046D01*
X155710049Y-98290045D01*
X155710050Y-98290045D01*
X155571963Y-98249500D01*
X155571961Y-98249500D01*
X155428039Y-98249500D01*
X155428036Y-98249500D01*
X155289949Y-98290045D01*
X155168873Y-98367856D01*
X155074623Y-98476626D01*
X155074622Y-98476628D01*
X155014834Y-98607543D01*
X154994353Y-98750000D01*
X145005647Y-98750000D01*
X144985165Y-98607543D01*
X144925377Y-98476627D01*
X144831128Y-98367857D01*
X144710053Y-98290047D01*
X144710051Y-98290046D01*
X144710049Y-98290045D01*
X144710050Y-98290045D01*
X144571963Y-98249500D01*
X144571961Y-98249500D01*
X144428039Y-98249500D01*
X144428036Y-98249500D01*
X144289949Y-98290045D01*
X144168873Y-98367856D01*
X144074623Y-98476626D01*
X144074622Y-98476628D01*
X144014834Y-98607543D01*
X143994353Y-98750000D01*
X125186051Y-98750000D01*
X125175377Y-98726627D01*
X125175375Y-98726625D01*
X125175374Y-98726622D01*
X125157680Y-98706203D01*
X125128654Y-98642648D01*
X125138597Y-98573489D01*
X125157680Y-98543797D01*
X125175374Y-98523377D01*
X125175374Y-98523375D01*
X125175377Y-98523373D01*
X125235165Y-98392457D01*
X125255647Y-98250000D01*
X125235165Y-98107543D01*
X125175377Y-97976627D01*
X125175375Y-97976625D01*
X125175374Y-97976622D01*
X125157680Y-97956203D01*
X125128654Y-97892648D01*
X125138597Y-97823489D01*
X125157680Y-97793797D01*
X125175374Y-97773377D01*
X125175374Y-97773375D01*
X125175377Y-97773373D01*
X125235165Y-97642457D01*
X125255647Y-97500000D01*
X125235165Y-97357543D01*
X125175377Y-97226627D01*
X125081128Y-97117857D01*
X124960053Y-97040047D01*
X124960051Y-97040046D01*
X124960049Y-97040045D01*
X124960050Y-97040045D01*
X124821963Y-96999500D01*
X124821961Y-96999500D01*
X124678039Y-96999500D01*
X124678036Y-96999500D01*
X124539949Y-97040045D01*
X124418873Y-97117856D01*
X124324623Y-97226626D01*
X124324622Y-97226628D01*
X124264834Y-97357543D01*
X124244353Y-97500000D01*
X113755647Y-97500000D01*
X113735165Y-97357543D01*
X113675377Y-97226627D01*
X113581128Y-97117857D01*
X113460053Y-97040047D01*
X113460051Y-97040046D01*
X113460049Y-97040045D01*
X113460050Y-97040045D01*
X113321963Y-96999500D01*
X113321961Y-96999500D01*
X113178039Y-96999500D01*
X113178036Y-96999500D01*
X113039949Y-97040045D01*
X112918873Y-97117856D01*
X112824623Y-97226626D01*
X112824622Y-97226628D01*
X112764834Y-97357543D01*
X112744353Y-97500000D01*
X102000500Y-97500000D01*
X102000500Y-96925000D01*
X120919353Y-96925000D01*
X120939834Y-97067456D01*
X120962852Y-97117857D01*
X120999623Y-97198373D01*
X121093872Y-97307143D01*
X121214947Y-97384953D01*
X121214950Y-97384954D01*
X121214949Y-97384954D01*
X121353036Y-97425499D01*
X121353038Y-97425500D01*
X121353039Y-97425500D01*
X121496962Y-97425500D01*
X121496962Y-97425499D01*
X121635053Y-97384953D01*
X121756128Y-97307143D01*
X121850377Y-97198373D01*
X121910165Y-97067457D01*
X121930647Y-96925000D01*
X121910165Y-96782543D01*
X121850377Y-96651627D01*
X121756128Y-96542857D01*
X121635053Y-96465047D01*
X121635051Y-96465046D01*
X121635049Y-96465045D01*
X121626983Y-96461361D01*
X121628512Y-96458013D01*
X121584305Y-96429384D01*
X121555503Y-96365727D01*
X121565689Y-96296604D01*
X121606357Y-96250000D01*
X143994353Y-96250000D01*
X144014834Y-96392456D01*
X144047985Y-96465045D01*
X144074623Y-96523373D01*
X144168872Y-96632143D01*
X144289947Y-96709953D01*
X144289950Y-96709954D01*
X144289949Y-96709954D01*
X144428036Y-96750499D01*
X144428038Y-96750500D01*
X144428039Y-96750500D01*
X144571962Y-96750500D01*
X144571962Y-96750499D01*
X144710053Y-96709953D01*
X144831128Y-96632143D01*
X144925377Y-96523373D01*
X144936051Y-96500000D01*
X161244353Y-96500000D01*
X161264834Y-96642456D01*
X161295660Y-96709954D01*
X161324623Y-96773373D01*
X161418872Y-96882143D01*
X161539947Y-96959953D01*
X161539950Y-96959954D01*
X161539949Y-96959954D01*
X161647107Y-96991417D01*
X161674633Y-96999500D01*
X161678036Y-97000499D01*
X161678038Y-97000500D01*
X161678039Y-97000500D01*
X161821962Y-97000500D01*
X161821962Y-97000499D01*
X161960053Y-96959953D01*
X162081128Y-96882143D01*
X162156287Y-96795403D01*
X162215064Y-96757629D01*
X162284934Y-96757629D01*
X162343711Y-96795402D01*
X162418872Y-96882143D01*
X162539947Y-96959953D01*
X162539950Y-96959954D01*
X162539949Y-96959954D01*
X162647107Y-96991417D01*
X162674633Y-96999500D01*
X162678036Y-97000499D01*
X162678038Y-97000500D01*
X162678039Y-97000500D01*
X162821962Y-97000500D01*
X162821962Y-97000499D01*
X162960053Y-96959953D01*
X163081128Y-96882143D01*
X163175377Y-96773373D01*
X163235165Y-96642457D01*
X163255647Y-96500000D01*
X163235165Y-96357543D01*
X163175377Y-96226627D01*
X163081128Y-96117857D01*
X162960053Y-96040047D01*
X162960051Y-96040046D01*
X162960049Y-96040045D01*
X162960050Y-96040045D01*
X162823666Y-96000000D01*
X169744353Y-96000000D01*
X169764834Y-96142456D01*
X169803275Y-96226628D01*
X169824623Y-96273373D01*
X169918872Y-96382143D01*
X170039947Y-96459953D01*
X170039950Y-96459954D01*
X170039949Y-96459954D01*
X170147107Y-96491417D01*
X170176336Y-96500000D01*
X170178036Y-96500499D01*
X170178038Y-96500500D01*
X170178039Y-96500500D01*
X170321962Y-96500500D01*
X170321962Y-96500499D01*
X170460053Y-96459953D01*
X170581128Y-96382143D01*
X170675377Y-96273373D01*
X170735165Y-96142457D01*
X170755647Y-96000000D01*
X170735165Y-95857543D01*
X170675377Y-95726627D01*
X170581128Y-95617857D01*
X170518331Y-95577500D01*
X171174417Y-95577500D01*
X171194699Y-95783432D01*
X171194700Y-95783434D01*
X171254768Y-95981454D01*
X171352315Y-96163950D01*
X171352317Y-96163952D01*
X171483589Y-96323910D01*
X171567114Y-96392456D01*
X171643550Y-96455185D01*
X171826046Y-96552732D01*
X172024066Y-96612800D01*
X172024065Y-96612800D01*
X172042529Y-96614618D01*
X172230000Y-96633083D01*
X172435934Y-96612800D01*
X172633954Y-96552732D01*
X172816450Y-96455185D01*
X172976410Y-96323910D01*
X173107685Y-96163950D01*
X173205232Y-95981454D01*
X173265300Y-95783434D01*
X173285583Y-95577500D01*
X173265300Y-95371566D01*
X173205232Y-95173546D01*
X173107685Y-94991050D01*
X173033372Y-94900499D01*
X172976410Y-94831089D01*
X172828803Y-94709953D01*
X172816450Y-94699815D01*
X172633954Y-94602268D01*
X172435934Y-94542200D01*
X172435932Y-94542199D01*
X172435934Y-94542199D01*
X172230000Y-94521917D01*
X172024067Y-94542199D01*
X171826043Y-94602269D01*
X171770154Y-94632143D01*
X171643550Y-94699815D01*
X171643548Y-94699816D01*
X171643547Y-94699817D01*
X171483589Y-94831089D01*
X171352317Y-94991047D01*
X171254769Y-95173543D01*
X171194699Y-95371567D01*
X171174417Y-95577500D01*
X170518331Y-95577500D01*
X170460053Y-95540047D01*
X170460051Y-95540046D01*
X170460049Y-95540045D01*
X170460050Y-95540045D01*
X170321963Y-95499500D01*
X170321961Y-95499500D01*
X170178039Y-95499500D01*
X170178036Y-95499500D01*
X170039949Y-95540045D01*
X169918873Y-95617856D01*
X169824623Y-95726626D01*
X169824622Y-95726628D01*
X169764834Y-95857543D01*
X169744353Y-96000000D01*
X162823666Y-96000000D01*
X162821963Y-95999500D01*
X162821961Y-95999500D01*
X162678039Y-95999500D01*
X162678036Y-95999500D01*
X162539949Y-96040045D01*
X162418873Y-96117856D01*
X162343713Y-96204596D01*
X162284935Y-96242370D01*
X162215065Y-96242370D01*
X162156287Y-96204596D01*
X162121067Y-96163950D01*
X162081128Y-96117857D01*
X161960053Y-96040047D01*
X161960051Y-96040046D01*
X161960049Y-96040045D01*
X161960050Y-96040045D01*
X161821963Y-95999500D01*
X161821961Y-95999500D01*
X161678039Y-95999500D01*
X161678036Y-95999500D01*
X161539949Y-96040045D01*
X161418873Y-96117856D01*
X161324623Y-96226626D01*
X161324622Y-96226628D01*
X161264834Y-96357543D01*
X161244353Y-96500000D01*
X144936051Y-96500000D01*
X144985165Y-96392457D01*
X145005647Y-96250000D01*
X144985165Y-96107543D01*
X144925377Y-95976627D01*
X144831128Y-95867857D01*
X144710053Y-95790047D01*
X144710051Y-95790046D01*
X144710049Y-95790045D01*
X144710050Y-95790045D01*
X144571963Y-95749500D01*
X144571961Y-95749500D01*
X144428039Y-95749500D01*
X144428036Y-95749500D01*
X144289949Y-95790045D01*
X144168873Y-95867856D01*
X144074623Y-95976626D01*
X144074622Y-95976628D01*
X144014834Y-96107543D01*
X143994353Y-96250000D01*
X121606357Y-96250000D01*
X121611628Y-96243960D01*
X121643363Y-96229534D01*
X121710053Y-96209953D01*
X121831128Y-96132143D01*
X121925377Y-96023373D01*
X121985165Y-95892457D01*
X122005647Y-95750000D01*
X121985165Y-95607543D01*
X121925377Y-95476627D01*
X121925375Y-95476625D01*
X121925374Y-95476622D01*
X121907680Y-95456203D01*
X121878654Y-95392648D01*
X121888597Y-95323489D01*
X121907680Y-95293797D01*
X121925374Y-95273377D01*
X121925374Y-95273375D01*
X121925377Y-95273373D01*
X121985165Y-95142457D01*
X122005647Y-95000000D01*
X121985165Y-94857543D01*
X121925377Y-94726627D01*
X121925375Y-94726625D01*
X121925374Y-94726622D01*
X121907680Y-94706203D01*
X121878654Y-94642648D01*
X121888597Y-94573489D01*
X121907680Y-94543797D01*
X121925374Y-94523377D01*
X121925374Y-94523375D01*
X121925377Y-94523373D01*
X121985165Y-94392457D01*
X122005647Y-94250000D01*
X133244353Y-94250000D01*
X133264834Y-94392456D01*
X133295660Y-94459954D01*
X133324623Y-94523373D01*
X133418872Y-94632143D01*
X133539947Y-94709953D01*
X133539950Y-94709954D01*
X133539949Y-94709954D01*
X133678036Y-94750499D01*
X133678038Y-94750500D01*
X133678039Y-94750500D01*
X133821962Y-94750500D01*
X133821962Y-94750499D01*
X133960053Y-94709953D01*
X134081128Y-94632143D01*
X134175377Y-94523373D01*
X134235165Y-94392457D01*
X134255647Y-94250000D01*
X140244353Y-94250000D01*
X140264834Y-94392456D01*
X140295660Y-94459954D01*
X140324623Y-94523373D01*
X140418872Y-94632143D01*
X140539947Y-94709953D01*
X140539950Y-94709954D01*
X140539949Y-94709954D01*
X140678036Y-94750499D01*
X140678038Y-94750500D01*
X140678039Y-94750500D01*
X140821962Y-94750500D01*
X140821962Y-94750499D01*
X140960053Y-94709953D01*
X141081128Y-94632143D01*
X141175377Y-94523373D01*
X141235165Y-94392457D01*
X141255647Y-94250000D01*
X141235165Y-94107543D01*
X141186051Y-94000000D01*
X166294353Y-94000000D01*
X166314834Y-94142456D01*
X166374622Y-94273371D01*
X166374623Y-94273373D01*
X166468872Y-94382143D01*
X166589947Y-94459953D01*
X166589950Y-94459954D01*
X166589949Y-94459954D01*
X166728036Y-94500499D01*
X166728038Y-94500500D01*
X166728039Y-94500500D01*
X166871962Y-94500500D01*
X166871962Y-94500499D01*
X167010053Y-94459953D01*
X167103342Y-94400000D01*
X167494353Y-94400000D01*
X167514834Y-94542456D01*
X167560591Y-94642648D01*
X167574623Y-94673373D01*
X167668872Y-94782143D01*
X167789947Y-94859953D01*
X167789950Y-94859954D01*
X167789949Y-94859954D01*
X167928036Y-94900499D01*
X167928038Y-94900500D01*
X167928039Y-94900500D01*
X168071962Y-94900500D01*
X168071962Y-94900499D01*
X168210053Y-94859953D01*
X168331128Y-94782143D01*
X168425377Y-94673373D01*
X168485165Y-94542457D01*
X168505647Y-94400000D01*
X168485165Y-94257543D01*
X168425377Y-94126627D01*
X168331128Y-94017857D01*
X168210053Y-93940047D01*
X168210051Y-93940046D01*
X168210049Y-93940045D01*
X168210050Y-93940045D01*
X168071963Y-93899500D01*
X168071961Y-93899500D01*
X167928039Y-93899500D01*
X167928036Y-93899500D01*
X167789949Y-93940045D01*
X167668873Y-94017856D01*
X167574623Y-94126626D01*
X167574622Y-94126628D01*
X167514834Y-94257543D01*
X167494353Y-94400000D01*
X167103342Y-94400000D01*
X167131128Y-94382143D01*
X167225377Y-94273373D01*
X167285165Y-94142457D01*
X167305647Y-94000000D01*
X167285165Y-93857543D01*
X167225377Y-93726627D01*
X167131128Y-93617857D01*
X167010053Y-93540047D01*
X167010051Y-93540046D01*
X167010049Y-93540045D01*
X167010050Y-93540045D01*
X166871963Y-93499500D01*
X166871961Y-93499500D01*
X166728039Y-93499500D01*
X166728036Y-93499500D01*
X166589949Y-93540045D01*
X166468873Y-93617856D01*
X166468872Y-93617856D01*
X166468872Y-93617857D01*
X166463591Y-93623952D01*
X166374623Y-93726626D01*
X166374622Y-93726628D01*
X166314834Y-93857543D01*
X166294353Y-94000000D01*
X141186051Y-94000000D01*
X141175377Y-93976627D01*
X141081128Y-93867857D01*
X140960053Y-93790047D01*
X140960051Y-93790046D01*
X140960049Y-93790045D01*
X140960050Y-93790045D01*
X140821963Y-93749500D01*
X140821961Y-93749500D01*
X140678039Y-93749500D01*
X140678036Y-93749500D01*
X140539949Y-93790045D01*
X140418873Y-93867856D01*
X140324623Y-93976626D01*
X140324622Y-93976628D01*
X140264834Y-94107543D01*
X140244353Y-94250000D01*
X134255647Y-94250000D01*
X134235165Y-94107543D01*
X134175377Y-93976627D01*
X134081128Y-93867857D01*
X133960053Y-93790047D01*
X133960051Y-93790046D01*
X133960049Y-93790045D01*
X133960050Y-93790045D01*
X133821963Y-93749500D01*
X133821961Y-93749500D01*
X133678039Y-93749500D01*
X133678036Y-93749500D01*
X133539949Y-93790045D01*
X133418873Y-93867856D01*
X133324623Y-93976626D01*
X133324622Y-93976628D01*
X133264834Y-94107543D01*
X133244353Y-94250000D01*
X122005647Y-94250000D01*
X121985165Y-94107543D01*
X121925377Y-93976627D01*
X121831128Y-93867857D01*
X121710053Y-93790047D01*
X121710051Y-93790046D01*
X121710049Y-93790045D01*
X121710050Y-93790045D01*
X121571963Y-93749500D01*
X121571961Y-93749500D01*
X121428039Y-93749500D01*
X121428036Y-93749500D01*
X121289949Y-93790045D01*
X121168873Y-93867856D01*
X121074623Y-93976626D01*
X121074622Y-93976628D01*
X121014834Y-94107543D01*
X120994353Y-94250000D01*
X121014834Y-94392456D01*
X121074622Y-94523371D01*
X121074625Y-94523377D01*
X121092321Y-94543799D01*
X121121345Y-94607355D01*
X121111401Y-94676513D01*
X121092321Y-94706201D01*
X121074625Y-94726622D01*
X121074622Y-94726628D01*
X121014834Y-94857543D01*
X120994353Y-95000000D01*
X121014834Y-95142456D01*
X121074622Y-95273371D01*
X121074625Y-95273377D01*
X121092321Y-95293799D01*
X121121345Y-95357355D01*
X121111401Y-95426513D01*
X121092321Y-95456201D01*
X121074625Y-95476622D01*
X121074622Y-95476628D01*
X121014834Y-95607543D01*
X120994353Y-95750000D01*
X121014834Y-95892456D01*
X121053275Y-95976628D01*
X121074623Y-96023373D01*
X121168872Y-96132143D01*
X121289947Y-96209953D01*
X121289949Y-96209953D01*
X121289950Y-96209954D01*
X121298017Y-96213639D01*
X121296463Y-96217040D01*
X121340424Y-96245302D01*
X121369438Y-96308863D01*
X121359482Y-96378020D01*
X121313718Y-96430816D01*
X121281632Y-96445466D01*
X121214949Y-96465045D01*
X121093873Y-96542856D01*
X120999623Y-96651626D01*
X120999622Y-96651628D01*
X120939834Y-96782543D01*
X120919353Y-96925000D01*
X102000500Y-96925000D01*
X102000500Y-94250000D01*
X109494353Y-94250000D01*
X109514834Y-94392456D01*
X109574622Y-94523371D01*
X109574625Y-94523377D01*
X109592321Y-94543799D01*
X109621345Y-94607355D01*
X109611401Y-94676513D01*
X109592321Y-94706201D01*
X109574625Y-94726622D01*
X109574622Y-94726628D01*
X109514834Y-94857543D01*
X109494353Y-95000000D01*
X109514834Y-95142456D01*
X109546508Y-95211811D01*
X109574623Y-95273373D01*
X109668872Y-95382143D01*
X109676324Y-95386932D01*
X109689943Y-95395685D01*
X109735698Y-95448489D01*
X109745641Y-95517648D01*
X109716615Y-95581203D01*
X109689943Y-95604315D01*
X109668874Y-95617855D01*
X109574623Y-95726626D01*
X109574622Y-95726628D01*
X109514834Y-95857543D01*
X109494353Y-96000000D01*
X109514834Y-96142456D01*
X109553275Y-96226628D01*
X109574623Y-96273373D01*
X109668872Y-96382143D01*
X109789947Y-96459953D01*
X109789950Y-96459954D01*
X109789949Y-96459954D01*
X109897107Y-96491417D01*
X109926336Y-96500000D01*
X109928036Y-96500499D01*
X109928038Y-96500500D01*
X109928039Y-96500500D01*
X110071962Y-96500500D01*
X110071962Y-96500499D01*
X110210053Y-96459953D01*
X110331128Y-96382143D01*
X110425377Y-96273373D01*
X110485165Y-96142457D01*
X110505647Y-96000000D01*
X110485165Y-95857543D01*
X110425377Y-95726627D01*
X110331128Y-95617857D01*
X110331125Y-95617855D01*
X110331125Y-95617854D01*
X110310058Y-95604316D01*
X110264302Y-95551513D01*
X110254358Y-95482354D01*
X110283382Y-95418798D01*
X110310058Y-95395684D01*
X110331125Y-95382145D01*
X110331125Y-95382144D01*
X110331128Y-95382143D01*
X110425377Y-95273373D01*
X110485165Y-95142457D01*
X110505647Y-95000000D01*
X110485165Y-94857543D01*
X110425377Y-94726627D01*
X110425375Y-94726625D01*
X110425374Y-94726622D01*
X110407680Y-94706203D01*
X110378654Y-94642648D01*
X110388597Y-94573489D01*
X110407680Y-94543797D01*
X110425374Y-94523377D01*
X110425374Y-94523375D01*
X110425377Y-94523373D01*
X110485165Y-94392457D01*
X110505647Y-94250000D01*
X110485165Y-94107543D01*
X110425377Y-93976627D01*
X110331128Y-93867857D01*
X110210053Y-93790047D01*
X110210051Y-93790046D01*
X110210049Y-93790045D01*
X110210050Y-93790045D01*
X110071963Y-93749500D01*
X110071961Y-93749500D01*
X109928039Y-93749500D01*
X109928036Y-93749500D01*
X109789949Y-93790045D01*
X109668873Y-93867856D01*
X109574623Y-93976626D01*
X109574622Y-93976628D01*
X109514834Y-94107543D01*
X109494353Y-94250000D01*
X102000500Y-94250000D01*
X102000500Y-93500000D01*
X116994353Y-93500000D01*
X117014834Y-93642456D01*
X117053275Y-93726628D01*
X117074623Y-93773373D01*
X117168872Y-93882143D01*
X117289947Y-93959953D01*
X117289950Y-93959954D01*
X117289949Y-93959954D01*
X117346737Y-93976628D01*
X117426336Y-94000000D01*
X117428036Y-94000499D01*
X117428038Y-94000500D01*
X117428039Y-94000500D01*
X117571962Y-94000500D01*
X117571962Y-94000499D01*
X117710053Y-93959953D01*
X117831128Y-93882143D01*
X117925377Y-93773373D01*
X117985165Y-93642457D01*
X118005647Y-93500000D01*
X117985165Y-93357543D01*
X117925377Y-93226627D01*
X117909844Y-93208701D01*
X125244353Y-93208701D01*
X125264834Y-93351157D01*
X125306073Y-93441456D01*
X125324623Y-93482074D01*
X125418872Y-93590844D01*
X125539947Y-93668654D01*
X125539950Y-93668655D01*
X125539949Y-93668655D01*
X125678036Y-93709200D01*
X125678038Y-93709201D01*
X125678039Y-93709201D01*
X125821962Y-93709201D01*
X125821962Y-93709200D01*
X125960053Y-93668654D01*
X126081128Y-93590844D01*
X126175377Y-93482074D01*
X126235165Y-93351158D01*
X126255647Y-93208701D01*
X126235165Y-93066244D01*
X126175377Y-92935328D01*
X126081128Y-92826558D01*
X125962001Y-92750000D01*
X128494353Y-92750000D01*
X128514834Y-92892456D01*
X128553275Y-92976628D01*
X128574623Y-93023373D01*
X128668872Y-93132143D01*
X128789947Y-93209953D01*
X128789950Y-93209954D01*
X128789949Y-93209954D01*
X128846737Y-93226628D01*
X128926336Y-93250000D01*
X128928036Y-93250499D01*
X128928038Y-93250500D01*
X128928039Y-93250500D01*
X129071962Y-93250500D01*
X129071962Y-93250499D01*
X129073661Y-93250000D01*
X139269353Y-93250000D01*
X139289834Y-93392456D01*
X139294736Y-93403189D01*
X139349623Y-93523373D01*
X139443872Y-93632143D01*
X139564947Y-93709953D01*
X139564950Y-93709954D01*
X139564949Y-93709954D01*
X139621737Y-93726628D01*
X139699633Y-93749500D01*
X139703036Y-93750499D01*
X139703038Y-93750500D01*
X139703039Y-93750500D01*
X139846962Y-93750500D01*
X139846962Y-93750499D01*
X139985053Y-93709953D01*
X140106128Y-93632143D01*
X140200377Y-93523373D01*
X140260165Y-93392457D01*
X140280647Y-93250000D01*
X140260165Y-93107543D01*
X140228177Y-93037500D01*
X171174417Y-93037500D01*
X171194699Y-93243432D01*
X171196843Y-93250499D01*
X171254768Y-93441454D01*
X171352315Y-93623950D01*
X171367503Y-93642457D01*
X171483589Y-93783910D01*
X171573313Y-93857543D01*
X171643550Y-93915185D01*
X171826046Y-94012732D01*
X172024066Y-94072800D01*
X172024065Y-94072800D01*
X172042529Y-94074618D01*
X172230000Y-94093083D01*
X172435934Y-94072800D01*
X172633954Y-94012732D01*
X172816450Y-93915185D01*
X172976410Y-93783910D01*
X173107685Y-93623950D01*
X173205232Y-93441454D01*
X173265300Y-93243434D01*
X173285583Y-93037500D01*
X173265300Y-92831566D01*
X173205232Y-92633546D01*
X173107685Y-92451050D01*
X173039410Y-92367856D01*
X172976410Y-92291089D01*
X172816452Y-92159817D01*
X172816453Y-92159817D01*
X172816450Y-92159815D01*
X172633954Y-92062268D01*
X172435934Y-92002200D01*
X172435932Y-92002199D01*
X172435934Y-92002199D01*
X172230000Y-91981917D01*
X172024067Y-92002199D01*
X171826043Y-92062269D01*
X171741343Y-92107543D01*
X171643550Y-92159815D01*
X171643548Y-92159816D01*
X171643547Y-92159817D01*
X171483589Y-92291089D01*
X171352317Y-92451047D01*
X171254769Y-92633543D01*
X171194699Y-92831567D01*
X171174417Y-93037500D01*
X140228177Y-93037500D01*
X140200377Y-92976627D01*
X140106128Y-92867857D01*
X139985053Y-92790047D01*
X139985051Y-92790046D01*
X139985049Y-92790045D01*
X139985050Y-92790045D01*
X139846963Y-92749500D01*
X139846961Y-92749500D01*
X139703039Y-92749500D01*
X139703036Y-92749500D01*
X139564949Y-92790045D01*
X139443873Y-92867856D01*
X139349623Y-92976626D01*
X139349622Y-92976628D01*
X139289834Y-93107543D01*
X139269353Y-93250000D01*
X129073661Y-93250000D01*
X129210053Y-93209953D01*
X129331128Y-93132143D01*
X129425377Y-93023373D01*
X129485165Y-92892457D01*
X129505647Y-92750000D01*
X129485165Y-92607543D01*
X129425377Y-92476627D01*
X129331128Y-92367857D01*
X129210053Y-92290047D01*
X129210051Y-92290046D01*
X129210049Y-92290045D01*
X129210050Y-92290045D01*
X129073666Y-92250000D01*
X149744353Y-92250000D01*
X149764834Y-92392456D01*
X149803275Y-92476628D01*
X149824623Y-92523373D01*
X149918872Y-92632143D01*
X150039947Y-92709953D01*
X150039950Y-92709954D01*
X150039949Y-92709954D01*
X150147107Y-92741417D01*
X150176336Y-92750000D01*
X150178036Y-92750499D01*
X150178038Y-92750500D01*
X150178039Y-92750500D01*
X150321962Y-92750500D01*
X150321962Y-92750499D01*
X150460053Y-92709953D01*
X150581128Y-92632143D01*
X150675377Y-92523373D01*
X150735165Y-92392457D01*
X150755647Y-92250000D01*
X150735165Y-92107543D01*
X150675377Y-91976627D01*
X150581128Y-91867857D01*
X150467760Y-91795000D01*
X169244353Y-91795000D01*
X169264834Y-91937456D01*
X169293626Y-92000500D01*
X169324623Y-92068373D01*
X169418872Y-92177143D01*
X169539947Y-92254953D01*
X169539950Y-92254954D01*
X169539949Y-92254954D01*
X169647107Y-92286417D01*
X169663016Y-92291089D01*
X169678036Y-92295499D01*
X169678038Y-92295500D01*
X169678039Y-92295500D01*
X169821962Y-92295500D01*
X169821962Y-92295499D01*
X169960053Y-92254953D01*
X170081128Y-92177143D01*
X170175377Y-92068373D01*
X170235165Y-91937457D01*
X170255647Y-91795000D01*
X170235165Y-91652543D01*
X170175377Y-91521627D01*
X170081128Y-91412857D01*
X169960053Y-91335047D01*
X169960051Y-91335046D01*
X169960049Y-91335045D01*
X169960050Y-91335045D01*
X169821963Y-91294500D01*
X169821961Y-91294500D01*
X169678039Y-91294500D01*
X169678036Y-91294500D01*
X169539949Y-91335045D01*
X169418873Y-91412856D01*
X169324623Y-91521626D01*
X169324622Y-91521628D01*
X169264834Y-91652543D01*
X169244353Y-91795000D01*
X150467760Y-91795000D01*
X150460053Y-91790047D01*
X150460051Y-91790046D01*
X150460049Y-91790045D01*
X150460050Y-91790045D01*
X150321963Y-91749500D01*
X150321961Y-91749500D01*
X150178039Y-91749500D01*
X150178036Y-91749500D01*
X150039949Y-91790045D01*
X149918873Y-91867856D01*
X149824623Y-91976626D01*
X149824622Y-91976628D01*
X149764834Y-92107543D01*
X149744353Y-92250000D01*
X129073666Y-92250000D01*
X129071963Y-92249500D01*
X129071961Y-92249500D01*
X128928039Y-92249500D01*
X128928036Y-92249500D01*
X128789949Y-92290045D01*
X128668873Y-92367856D01*
X128574623Y-92476626D01*
X128574622Y-92476628D01*
X128514834Y-92607543D01*
X128494353Y-92750000D01*
X125962001Y-92750000D01*
X125960053Y-92748748D01*
X125960051Y-92748747D01*
X125960049Y-92748746D01*
X125960050Y-92748746D01*
X125821963Y-92708201D01*
X125821961Y-92708201D01*
X125678039Y-92708201D01*
X125678036Y-92708201D01*
X125539949Y-92748746D01*
X125418873Y-92826557D01*
X125324623Y-92935327D01*
X125324622Y-92935329D01*
X125264834Y-93066244D01*
X125244353Y-93208701D01*
X117909844Y-93208701D01*
X117831128Y-93117857D01*
X117710053Y-93040047D01*
X117710051Y-93040046D01*
X117710049Y-93040045D01*
X117710050Y-93040045D01*
X117571963Y-92999500D01*
X117571961Y-92999500D01*
X117428039Y-92999500D01*
X117428036Y-92999500D01*
X117289949Y-93040045D01*
X117168873Y-93117856D01*
X117074623Y-93226626D01*
X117074622Y-93226628D01*
X117014834Y-93357543D01*
X116994353Y-93500000D01*
X102000500Y-93500000D01*
X102000500Y-91500000D01*
X138994353Y-91500000D01*
X139014834Y-91642456D01*
X139019441Y-91652543D01*
X139074623Y-91773373D01*
X139168872Y-91882143D01*
X139289947Y-91959953D01*
X139289950Y-91959954D01*
X139289949Y-91959954D01*
X139428036Y-92000499D01*
X139428038Y-92000500D01*
X139428039Y-92000500D01*
X139571962Y-92000500D01*
X139571962Y-92000499D01*
X139710053Y-91959953D01*
X139831128Y-91882143D01*
X139925377Y-91773373D01*
X139985165Y-91642457D01*
X140005647Y-91500000D01*
X139985165Y-91357543D01*
X139925377Y-91226627D01*
X139831128Y-91117857D01*
X139710053Y-91040047D01*
X139710051Y-91040046D01*
X139710049Y-91040045D01*
X139710050Y-91040045D01*
X139571963Y-90999500D01*
X139571961Y-90999500D01*
X139428039Y-90999500D01*
X139428036Y-90999500D01*
X139289949Y-91040045D01*
X139168873Y-91117856D01*
X139074623Y-91226626D01*
X139074622Y-91226628D01*
X139014834Y-91357543D01*
X138994353Y-91500000D01*
X102000500Y-91500000D01*
X102000500Y-90750000D01*
X111244353Y-90750000D01*
X111264834Y-90892456D01*
X111295660Y-90959954D01*
X111324623Y-91023373D01*
X111418872Y-91132143D01*
X111539947Y-91209953D01*
X111539950Y-91209954D01*
X111539949Y-91209954D01*
X111678036Y-91250499D01*
X111678038Y-91250500D01*
X111678039Y-91250500D01*
X111821962Y-91250500D01*
X111821962Y-91250499D01*
X111960053Y-91209953D01*
X112057960Y-91147031D01*
X112125000Y-91127347D01*
X112192039Y-91147032D01*
X112192040Y-91147032D01*
X112289947Y-91209953D01*
X112289948Y-91209953D01*
X112289949Y-91209954D01*
X112428036Y-91250499D01*
X112428038Y-91250500D01*
X112428039Y-91250500D01*
X112571962Y-91250500D01*
X112571962Y-91250499D01*
X112710053Y-91209953D01*
X112831128Y-91132143D01*
X112925377Y-91023373D01*
X112985165Y-90892457D01*
X113005647Y-90750000D01*
X112985165Y-90607543D01*
X112925377Y-90476627D01*
X112831128Y-90367857D01*
X112710053Y-90290047D01*
X112710051Y-90290046D01*
X112710049Y-90290045D01*
X112710050Y-90290045D01*
X112573666Y-90250000D01*
X118244353Y-90250000D01*
X118264834Y-90392456D01*
X118303275Y-90476628D01*
X118324623Y-90523373D01*
X118418872Y-90632143D01*
X118539947Y-90709953D01*
X118539950Y-90709954D01*
X118539949Y-90709954D01*
X118647107Y-90741417D01*
X118676336Y-90750000D01*
X118678036Y-90750499D01*
X118678038Y-90750500D01*
X118678039Y-90750500D01*
X118821962Y-90750500D01*
X118821962Y-90750499D01*
X118823661Y-90750000D01*
X122494353Y-90750000D01*
X122514834Y-90892456D01*
X122545660Y-90959954D01*
X122574623Y-91023373D01*
X122668872Y-91132143D01*
X122789947Y-91209953D01*
X122789950Y-91209954D01*
X122789949Y-91209954D01*
X122928036Y-91250499D01*
X122928038Y-91250500D01*
X122928039Y-91250500D01*
X123071962Y-91250500D01*
X123071962Y-91250499D01*
X123210053Y-91209953D01*
X123307960Y-91147031D01*
X123375000Y-91127347D01*
X123442039Y-91147032D01*
X123442040Y-91147032D01*
X123539947Y-91209953D01*
X123539948Y-91209953D01*
X123539949Y-91209954D01*
X123678036Y-91250499D01*
X123678038Y-91250500D01*
X123678039Y-91250500D01*
X123821962Y-91250500D01*
X123821962Y-91250499D01*
X123960053Y-91209953D01*
X124081128Y-91132143D01*
X124175377Y-91023373D01*
X124235165Y-90892457D01*
X124255647Y-90750000D01*
X140244353Y-90750000D01*
X140264834Y-90892456D01*
X140295660Y-90959954D01*
X140324623Y-91023373D01*
X140418872Y-91132143D01*
X140539947Y-91209953D01*
X140539950Y-91209954D01*
X140539949Y-91209954D01*
X140678036Y-91250499D01*
X140678038Y-91250500D01*
X140678039Y-91250500D01*
X140821962Y-91250500D01*
X140821962Y-91250499D01*
X140960053Y-91209953D01*
X141081128Y-91132143D01*
X141175377Y-91023373D01*
X141235165Y-90892457D01*
X141255647Y-90750000D01*
X141235165Y-90607543D01*
X141175377Y-90476627D01*
X141081128Y-90367857D01*
X140960053Y-90290047D01*
X140960051Y-90290046D01*
X140960049Y-90290045D01*
X140960050Y-90290045D01*
X140823666Y-90250000D01*
X141994353Y-90250000D01*
X142014834Y-90392456D01*
X142053275Y-90476628D01*
X142074623Y-90523373D01*
X142168872Y-90632143D01*
X142289947Y-90709953D01*
X142289950Y-90709954D01*
X142289949Y-90709954D01*
X142397107Y-90741417D01*
X142426336Y-90750000D01*
X142428036Y-90750499D01*
X142428038Y-90750500D01*
X142428039Y-90750500D01*
X142571962Y-90750500D01*
X142571962Y-90750499D01*
X142710053Y-90709953D01*
X142831128Y-90632143D01*
X142925377Y-90523373D01*
X142936051Y-90500000D01*
X162244353Y-90500000D01*
X162264834Y-90642456D01*
X162295660Y-90709954D01*
X162324623Y-90773373D01*
X162418872Y-90882143D01*
X162539947Y-90959953D01*
X162539950Y-90959954D01*
X162539949Y-90959954D01*
X162647107Y-90991417D01*
X162674633Y-90999500D01*
X162678036Y-91000499D01*
X162678038Y-91000500D01*
X162678039Y-91000500D01*
X162821962Y-91000500D01*
X162821962Y-91000499D01*
X162960053Y-90959953D01*
X163081128Y-90882143D01*
X163175377Y-90773373D01*
X163235165Y-90642457D01*
X163255647Y-90500000D01*
X163255288Y-90497500D01*
X171174417Y-90497500D01*
X171194699Y-90703432D01*
X171216801Y-90776293D01*
X171254768Y-90901454D01*
X171352315Y-91083950D01*
X171352317Y-91083952D01*
X171483589Y-91243910D01*
X171545234Y-91294500D01*
X171643550Y-91375185D01*
X171826046Y-91472732D01*
X172024066Y-91532800D01*
X172024065Y-91532800D01*
X172042529Y-91534618D01*
X172230000Y-91553083D01*
X172435934Y-91532800D01*
X172633954Y-91472732D01*
X172816450Y-91375185D01*
X172976410Y-91243910D01*
X173107685Y-91083950D01*
X173205232Y-90901454D01*
X173265300Y-90703434D01*
X173285583Y-90497500D01*
X173265300Y-90291566D01*
X173205232Y-90093546D01*
X173107685Y-89911050D01*
X173008381Y-89790047D01*
X172976410Y-89751089D01*
X172816452Y-89619817D01*
X172816453Y-89619817D01*
X172816450Y-89619815D01*
X172633954Y-89522268D01*
X172435934Y-89462200D01*
X172435932Y-89462199D01*
X172435934Y-89462199D01*
X172230000Y-89441917D01*
X172024067Y-89462199D01*
X171826043Y-89522269D01*
X171715898Y-89581143D01*
X171643550Y-89619815D01*
X171643548Y-89619816D01*
X171643547Y-89619817D01*
X171483589Y-89751089D01*
X171352317Y-89911047D01*
X171254769Y-90093543D01*
X171194699Y-90291567D01*
X171174417Y-90497500D01*
X163255288Y-90497500D01*
X163235165Y-90357543D01*
X163175377Y-90226627D01*
X163081128Y-90117857D01*
X162960053Y-90040047D01*
X162960051Y-90040046D01*
X162960049Y-90040045D01*
X162960050Y-90040045D01*
X162821963Y-89999500D01*
X162821961Y-89999500D01*
X162678039Y-89999500D01*
X162678036Y-89999500D01*
X162539949Y-90040045D01*
X162418873Y-90117856D01*
X162324623Y-90226626D01*
X162324622Y-90226628D01*
X162264834Y-90357543D01*
X162244353Y-90500000D01*
X142936051Y-90500000D01*
X142985165Y-90392457D01*
X143005647Y-90250000D01*
X142985165Y-90107543D01*
X142925377Y-89976627D01*
X142831128Y-89867857D01*
X142710053Y-89790047D01*
X142710051Y-89790046D01*
X142710049Y-89790045D01*
X142710050Y-89790045D01*
X142571963Y-89749500D01*
X142571961Y-89749500D01*
X142428039Y-89749500D01*
X142428036Y-89749500D01*
X142289949Y-89790045D01*
X142168873Y-89867856D01*
X142074623Y-89976626D01*
X142074622Y-89976628D01*
X142014834Y-90107543D01*
X141994353Y-90250000D01*
X140823666Y-90250000D01*
X140821963Y-90249500D01*
X140821961Y-90249500D01*
X140678039Y-90249500D01*
X140678036Y-90249500D01*
X140539949Y-90290045D01*
X140418873Y-90367856D01*
X140324623Y-90476626D01*
X140324622Y-90476628D01*
X140264834Y-90607543D01*
X140244353Y-90750000D01*
X124255647Y-90750000D01*
X124235165Y-90607543D01*
X124175377Y-90476627D01*
X124081128Y-90367857D01*
X123960053Y-90290047D01*
X123960051Y-90290046D01*
X123960049Y-90290045D01*
X123960050Y-90290045D01*
X123821963Y-90249500D01*
X123821961Y-90249500D01*
X123678039Y-90249500D01*
X123678036Y-90249500D01*
X123539949Y-90290045D01*
X123442039Y-90352968D01*
X123374999Y-90372652D01*
X123307961Y-90352968D01*
X123210050Y-90290045D01*
X123071963Y-90249500D01*
X123071961Y-90249500D01*
X122928039Y-90249500D01*
X122928036Y-90249500D01*
X122789949Y-90290045D01*
X122668873Y-90367856D01*
X122574623Y-90476626D01*
X122574622Y-90476628D01*
X122514834Y-90607543D01*
X122494353Y-90750000D01*
X118823661Y-90750000D01*
X118960053Y-90709953D01*
X119081128Y-90632143D01*
X119175377Y-90523373D01*
X119235165Y-90392457D01*
X119255647Y-90250000D01*
X119235165Y-90107543D01*
X119175377Y-89976627D01*
X119130642Y-89925000D01*
X120594353Y-89925000D01*
X120614834Y-90067456D01*
X120658402Y-90162855D01*
X120674623Y-90198373D01*
X120768872Y-90307143D01*
X120889947Y-90384953D01*
X120889950Y-90384954D01*
X120889949Y-90384954D01*
X121028036Y-90425499D01*
X121028038Y-90425500D01*
X121028039Y-90425500D01*
X121171962Y-90425500D01*
X121171962Y-90425499D01*
X121310053Y-90384953D01*
X121431128Y-90307143D01*
X121525377Y-90198373D01*
X121585165Y-90067457D01*
X121605647Y-89925000D01*
X121585165Y-89782543D01*
X121525377Y-89651627D01*
X121431128Y-89542857D01*
X121310053Y-89465047D01*
X121310051Y-89465046D01*
X121310049Y-89465045D01*
X121310050Y-89465045D01*
X121171963Y-89424500D01*
X121171961Y-89424500D01*
X121028039Y-89424500D01*
X121028036Y-89424500D01*
X120889949Y-89465045D01*
X120768873Y-89542856D01*
X120674623Y-89651626D01*
X120674622Y-89651628D01*
X120614834Y-89782543D01*
X120594353Y-89925000D01*
X119130642Y-89925000D01*
X119081128Y-89867857D01*
X118960053Y-89790047D01*
X118960051Y-89790046D01*
X118960049Y-89790045D01*
X118960050Y-89790045D01*
X118821963Y-89749500D01*
X118821961Y-89749500D01*
X118678039Y-89749500D01*
X118678036Y-89749500D01*
X118539949Y-89790045D01*
X118418873Y-89867856D01*
X118324623Y-89976626D01*
X118324622Y-89976628D01*
X118264834Y-90107543D01*
X118244353Y-90250000D01*
X112573666Y-90250000D01*
X112571963Y-90249500D01*
X112571961Y-90249500D01*
X112428039Y-90249500D01*
X112428036Y-90249500D01*
X112289949Y-90290045D01*
X112192039Y-90352968D01*
X112124999Y-90372652D01*
X112057961Y-90352968D01*
X111960050Y-90290045D01*
X111821963Y-90249500D01*
X111821961Y-90249500D01*
X111678039Y-90249500D01*
X111678036Y-90249500D01*
X111539949Y-90290045D01*
X111418873Y-90367856D01*
X111324623Y-90476626D01*
X111324622Y-90476628D01*
X111264834Y-90607543D01*
X111244353Y-90750000D01*
X102000500Y-90750000D01*
X102000500Y-89250000D01*
X139244353Y-89250000D01*
X139264834Y-89392456D01*
X139287423Y-89441917D01*
X139324623Y-89523373D01*
X139418872Y-89632143D01*
X139539947Y-89709953D01*
X139539950Y-89709954D01*
X139539949Y-89709954D01*
X139647107Y-89741417D01*
X139674633Y-89749500D01*
X139678036Y-89750499D01*
X139678038Y-89750500D01*
X139678039Y-89750500D01*
X139821962Y-89750500D01*
X139821962Y-89750499D01*
X139960053Y-89709953D01*
X140081128Y-89632143D01*
X140175377Y-89523373D01*
X140235165Y-89392457D01*
X140255647Y-89250000D01*
X140235165Y-89107543D01*
X140175377Y-88976627D01*
X140081128Y-88867857D01*
X139960053Y-88790047D01*
X139960051Y-88790046D01*
X139960049Y-88790045D01*
X139960050Y-88790045D01*
X139821963Y-88749500D01*
X139821961Y-88749500D01*
X139678039Y-88749500D01*
X139678036Y-88749500D01*
X139539949Y-88790045D01*
X139418873Y-88867856D01*
X139324623Y-88976626D01*
X139324622Y-88976628D01*
X139264834Y-89107543D01*
X139244353Y-89250000D01*
X102000500Y-89250000D01*
X102000500Y-88500000D01*
X149744353Y-88500000D01*
X149764834Y-88642456D01*
X149792900Y-88703910D01*
X149824623Y-88773373D01*
X149918872Y-88882143D01*
X150039947Y-88959953D01*
X150039950Y-88959954D01*
X150039949Y-88959954D01*
X150178036Y-89000499D01*
X150178038Y-89000500D01*
X150178039Y-89000500D01*
X150321962Y-89000500D01*
X150321962Y-89000499D01*
X150460053Y-88959953D01*
X150581128Y-88882143D01*
X150675377Y-88773373D01*
X150735165Y-88642457D01*
X150755647Y-88500000D01*
X150735165Y-88357543D01*
X150675377Y-88226627D01*
X150581128Y-88117857D01*
X150460053Y-88040047D01*
X150460051Y-88040046D01*
X150460049Y-88040045D01*
X150460050Y-88040045D01*
X150321963Y-87999500D01*
X150321961Y-87999500D01*
X150178039Y-87999500D01*
X150178036Y-87999500D01*
X150039949Y-88040045D01*
X149918873Y-88117856D01*
X149824623Y-88226626D01*
X149824622Y-88226628D01*
X149764834Y-88357543D01*
X149744353Y-88500000D01*
X102000500Y-88500000D01*
X102000500Y-87957500D01*
X171174417Y-87957500D01*
X171194699Y-88163432D01*
X171194700Y-88163434D01*
X171254768Y-88361454D01*
X171352315Y-88543950D01*
X171352317Y-88543952D01*
X171483589Y-88703910D01*
X171566686Y-88772105D01*
X171643550Y-88835185D01*
X171826046Y-88932732D01*
X172024066Y-88992800D01*
X172024065Y-88992800D01*
X172042529Y-88994618D01*
X172230000Y-89013083D01*
X172435934Y-88992800D01*
X172633954Y-88932732D01*
X172816450Y-88835185D01*
X172976410Y-88703910D01*
X173107685Y-88543950D01*
X173205232Y-88361454D01*
X173265300Y-88163434D01*
X173285583Y-87957500D01*
X173265300Y-87751566D01*
X173251933Y-87707499D01*
X173826964Y-87707499D01*
X173826965Y-87707500D01*
X174336988Y-87707500D01*
X174304075Y-87764507D01*
X174270000Y-87891674D01*
X174270000Y-88023326D01*
X174304075Y-88150493D01*
X174336988Y-88207500D01*
X173826965Y-88207500D01*
X173864861Y-88332428D01*
X173955390Y-88501796D01*
X173955394Y-88501803D01*
X174077234Y-88650265D01*
X174225696Y-88772105D01*
X174225703Y-88772109D01*
X174395071Y-88862638D01*
X174519999Y-88900535D01*
X174520000Y-88900535D01*
X174520000Y-88390512D01*
X174577007Y-88423425D01*
X174704174Y-88457500D01*
X174835826Y-88457500D01*
X174962993Y-88423425D01*
X175020000Y-88390512D01*
X175020000Y-88900535D01*
X175144928Y-88862638D01*
X175314296Y-88772109D01*
X175314303Y-88772105D01*
X175462765Y-88650265D01*
X175584605Y-88501803D01*
X175584609Y-88501796D01*
X175675138Y-88332428D01*
X175713035Y-88207500D01*
X175203012Y-88207500D01*
X175235925Y-88150493D01*
X175270000Y-88023326D01*
X175270000Y-87891674D01*
X175235925Y-87764507D01*
X175203012Y-87707500D01*
X175713035Y-87707500D01*
X175713035Y-87707499D01*
X175675138Y-87582571D01*
X175584609Y-87413203D01*
X175584605Y-87413196D01*
X175462765Y-87264734D01*
X175314303Y-87142894D01*
X175314296Y-87142890D01*
X175144925Y-87052360D01*
X175144918Y-87052357D01*
X175020001Y-87014463D01*
X175020000Y-87014464D01*
X175020000Y-87524488D01*
X174962993Y-87491575D01*
X174835826Y-87457500D01*
X174704174Y-87457500D01*
X174577007Y-87491575D01*
X174520000Y-87524488D01*
X174520000Y-87014464D01*
X174519998Y-87014463D01*
X174395081Y-87052357D01*
X174395074Y-87052360D01*
X174225703Y-87142890D01*
X174225696Y-87142894D01*
X174077234Y-87264734D01*
X173955394Y-87413196D01*
X173955390Y-87413203D01*
X173864861Y-87582571D01*
X173826964Y-87707499D01*
X173251933Y-87707499D01*
X173205232Y-87553546D01*
X173107685Y-87371050D01*
X173055702Y-87307709D01*
X172976410Y-87211089D01*
X172816452Y-87079817D01*
X172816453Y-87079817D01*
X172816450Y-87079815D01*
X172633954Y-86982268D01*
X172435934Y-86922200D01*
X172435932Y-86922199D01*
X172435934Y-86922199D01*
X172230000Y-86901917D01*
X172024067Y-86922199D01*
X171826043Y-86982269D01*
X171765812Y-87014464D01*
X171643550Y-87079815D01*
X171643548Y-87079816D01*
X171643547Y-87079817D01*
X171483589Y-87211089D01*
X171352317Y-87371047D01*
X171254769Y-87553543D01*
X171194699Y-87751567D01*
X171174417Y-87957500D01*
X102000500Y-87957500D01*
X102000500Y-87225000D01*
X109144353Y-87225000D01*
X109164834Y-87367456D01*
X109221518Y-87491575D01*
X109224623Y-87498373D01*
X109318872Y-87607143D01*
X109439947Y-87684953D01*
X109439950Y-87684954D01*
X109439949Y-87684954D01*
X109578036Y-87725499D01*
X109578038Y-87725500D01*
X109578039Y-87725500D01*
X109721962Y-87725500D01*
X109721962Y-87725499D01*
X109860053Y-87684953D01*
X109981128Y-87607143D01*
X110075377Y-87498373D01*
X110135165Y-87367457D01*
X110155647Y-87225000D01*
X110135165Y-87082543D01*
X110075377Y-86951627D01*
X109981128Y-86842857D01*
X109860053Y-86765047D01*
X109860051Y-86765046D01*
X109860049Y-86765045D01*
X109860050Y-86765045D01*
X109721963Y-86724500D01*
X109721961Y-86724500D01*
X109578039Y-86724500D01*
X109578036Y-86724500D01*
X109439949Y-86765045D01*
X109318873Y-86842856D01*
X109224623Y-86951626D01*
X109224622Y-86951628D01*
X109164834Y-87082543D01*
X109144353Y-87225000D01*
X102000500Y-87225000D01*
X102000500Y-85175392D01*
X102020185Y-85108353D01*
X102072989Y-85062598D01*
X102142147Y-85052654D01*
X102205703Y-85081679D01*
X102220863Y-85097353D01*
X102357843Y-85266509D01*
X102620991Y-85529657D01*
X102781072Y-85659288D01*
X102910205Y-85763858D01*
X103189728Y-85945382D01*
X103222313Y-85966543D01*
X103498957Y-86107500D01*
X103553503Y-86135293D01*
X103553900Y-86135495D01*
X103901329Y-86268861D01*
X104260796Y-86365180D01*
X104628362Y-86423396D01*
X104979444Y-86441795D01*
X104999999Y-86442873D01*
X105000000Y-86442873D01*
X105000001Y-86442873D01*
X105019478Y-86441852D01*
X105371638Y-86423396D01*
X105739204Y-86365180D01*
X106098671Y-86268861D01*
X106446100Y-86135495D01*
X106777687Y-85966543D01*
X107089796Y-85763857D01*
X107379009Y-85529657D01*
X107642157Y-85266509D01*
X107876357Y-84977296D01*
X108079043Y-84665187D01*
X108247995Y-84333600D01*
X108381361Y-83986171D01*
X108477680Y-83626704D01*
X108535896Y-83259138D01*
X108539211Y-83195889D01*
X111939500Y-83195889D01*
X111939500Y-85169110D01*
X111954925Y-85266504D01*
X111966598Y-85340201D01*
X112020127Y-85504945D01*
X112098768Y-85659288D01*
X112200586Y-85799428D01*
X112323072Y-85921914D01*
X112463212Y-86023732D01*
X112617555Y-86102373D01*
X112782299Y-86155902D01*
X112953389Y-86183000D01*
X112953390Y-86183000D01*
X113126610Y-86183000D01*
X113126611Y-86183000D01*
X113297701Y-86155902D01*
X113462445Y-86102373D01*
X113616788Y-86023732D01*
X113756928Y-85921914D01*
X113879414Y-85799428D01*
X113981232Y-85659288D01*
X114059873Y-85504945D01*
X114113402Y-85340201D01*
X114140500Y-85169111D01*
X114140500Y-83195889D01*
X114113402Y-83024799D01*
X114059873Y-82860055D01*
X113981232Y-82705712D01*
X113888611Y-82578230D01*
X115749500Y-82578230D01*
X115749500Y-85786769D01*
X115752353Y-85817199D01*
X115752353Y-85817201D01*
X115788994Y-85921911D01*
X115797207Y-85945382D01*
X115877850Y-86054650D01*
X115987118Y-86135293D01*
X116029845Y-86150244D01*
X116115299Y-86180146D01*
X116145730Y-86183000D01*
X116145734Y-86183000D01*
X117554270Y-86183000D01*
X117584699Y-86180146D01*
X117584701Y-86180146D01*
X117648790Y-86157719D01*
X117712882Y-86135293D01*
X117822150Y-86054650D01*
X117902793Y-85945382D01*
X117939324Y-85840982D01*
X117947646Y-85817201D01*
X117947646Y-85817199D01*
X117950500Y-85786769D01*
X117950500Y-83195889D01*
X123939500Y-83195889D01*
X123939500Y-85169110D01*
X123954925Y-85266504D01*
X123966598Y-85340201D01*
X124020127Y-85504945D01*
X124098768Y-85659288D01*
X124200586Y-85799428D01*
X124323072Y-85921914D01*
X124463212Y-86023732D01*
X124617555Y-86102373D01*
X124782299Y-86155902D01*
X124953389Y-86183000D01*
X124953390Y-86183000D01*
X125126610Y-86183000D01*
X125126611Y-86183000D01*
X125297701Y-86155902D01*
X125462445Y-86102373D01*
X125616788Y-86023732D01*
X125756928Y-85921914D01*
X125879414Y-85799428D01*
X125981232Y-85659288D01*
X126059873Y-85504945D01*
X126113402Y-85340201D01*
X126140500Y-85169111D01*
X126140500Y-83195889D01*
X126113402Y-83024799D01*
X126059873Y-82860055D01*
X125981232Y-82705712D01*
X125888611Y-82578230D01*
X127749500Y-82578230D01*
X127749500Y-85786769D01*
X127752353Y-85817199D01*
X127752353Y-85817201D01*
X127788994Y-85921911D01*
X127797207Y-85945382D01*
X127877850Y-86054650D01*
X127987118Y-86135293D01*
X128029845Y-86150244D01*
X128115299Y-86180146D01*
X128145730Y-86183000D01*
X128145734Y-86183000D01*
X129554270Y-86183000D01*
X129584699Y-86180146D01*
X129584701Y-86180146D01*
X129648790Y-86157719D01*
X129712882Y-86135293D01*
X129822150Y-86054650D01*
X129902793Y-85945382D01*
X129939324Y-85840982D01*
X129947646Y-85817201D01*
X129947646Y-85817199D01*
X129950500Y-85786769D01*
X129950500Y-83128389D01*
X136129500Y-83128389D01*
X136129500Y-85101610D01*
X136155617Y-85266512D01*
X136156598Y-85272701D01*
X136210127Y-85437445D01*
X136288768Y-85591788D01*
X136390586Y-85731928D01*
X136513072Y-85854414D01*
X136653212Y-85956232D01*
X136807555Y-86034873D01*
X136972299Y-86088402D01*
X137143389Y-86115500D01*
X137143390Y-86115500D01*
X137316610Y-86115500D01*
X137316611Y-86115500D01*
X137487701Y-86088402D01*
X137652445Y-86034873D01*
X137806788Y-85956232D01*
X137946928Y-85854414D01*
X138069414Y-85731928D01*
X138171232Y-85591788D01*
X138249873Y-85437445D01*
X138303402Y-85272701D01*
X138330500Y-85101611D01*
X138330500Y-83128389D01*
X139939500Y-83128389D01*
X139939500Y-85101610D01*
X139965617Y-85266512D01*
X139966598Y-85272701D01*
X140020127Y-85437445D01*
X140098768Y-85591788D01*
X140200586Y-85731928D01*
X140323072Y-85854414D01*
X140463212Y-85956232D01*
X140617555Y-86034873D01*
X140782299Y-86088402D01*
X140953389Y-86115500D01*
X140953390Y-86115500D01*
X141126610Y-86115500D01*
X141126611Y-86115500D01*
X141297701Y-86088402D01*
X141462445Y-86034873D01*
X141616788Y-85956232D01*
X141756928Y-85854414D01*
X141879414Y-85731928D01*
X141981232Y-85591788D01*
X142059873Y-85437445D01*
X142113402Y-85272701D01*
X142140500Y-85101611D01*
X142140500Y-83128389D01*
X143749500Y-83128389D01*
X143749500Y-85101610D01*
X143775617Y-85266512D01*
X143776598Y-85272701D01*
X143830127Y-85437445D01*
X143908768Y-85591788D01*
X144010586Y-85731928D01*
X144133072Y-85854414D01*
X144273212Y-85956232D01*
X144427555Y-86034873D01*
X144592299Y-86088402D01*
X144763389Y-86115500D01*
X144763390Y-86115500D01*
X144936610Y-86115500D01*
X144936611Y-86115500D01*
X145107701Y-86088402D01*
X145272445Y-86034873D01*
X145426788Y-85956232D01*
X145566928Y-85854414D01*
X145689414Y-85731928D01*
X145791232Y-85591788D01*
X145869873Y-85437445D01*
X145923402Y-85272701D01*
X145950500Y-85101611D01*
X145950500Y-83128389D01*
X145923402Y-82957299D01*
X145869873Y-82792555D01*
X145791232Y-82638212D01*
X145712188Y-82529417D01*
X147635000Y-82529417D01*
X147635000Y-83865000D01*
X148111518Y-83865000D01*
X148100889Y-83883409D01*
X148060000Y-84036009D01*
X148060000Y-84193991D01*
X148100889Y-84346591D01*
X148111518Y-84365000D01*
X147635000Y-84365000D01*
X147635000Y-85700582D01*
X147645620Y-85773482D01*
X147700587Y-85885918D01*
X147789081Y-85974412D01*
X147901517Y-86029379D01*
X147974418Y-86040000D01*
X148410000Y-86040000D01*
X148410000Y-84663482D01*
X148428409Y-84674111D01*
X148581009Y-84715000D01*
X148738991Y-84715000D01*
X148891591Y-84674111D01*
X148910000Y-84663482D01*
X148910000Y-86040000D01*
X149345582Y-86040000D01*
X149418482Y-86029379D01*
X149530918Y-85974412D01*
X149619412Y-85885918D01*
X149674379Y-85773482D01*
X149685000Y-85700582D01*
X149685000Y-84365000D01*
X149208482Y-84365000D01*
X149219111Y-84346591D01*
X149260000Y-84193991D01*
X149260000Y-84036009D01*
X149219111Y-83883409D01*
X149208482Y-83865000D01*
X149685000Y-83865000D01*
X149685000Y-83195889D01*
X156534500Y-83195889D01*
X156534500Y-85169110D01*
X156549925Y-85266504D01*
X156561598Y-85340201D01*
X156615127Y-85504945D01*
X156693768Y-85659288D01*
X156795586Y-85799428D01*
X156918072Y-85921914D01*
X157058212Y-86023732D01*
X157212555Y-86102373D01*
X157377299Y-86155902D01*
X157548389Y-86183000D01*
X157548390Y-86183000D01*
X157721610Y-86183000D01*
X157721611Y-86183000D01*
X157892701Y-86155902D01*
X158057445Y-86102373D01*
X158211788Y-86023732D01*
X158351928Y-85921914D01*
X158474414Y-85799428D01*
X158576232Y-85659288D01*
X158654873Y-85504945D01*
X158708402Y-85340201D01*
X158735500Y-85169111D01*
X158735500Y-83195889D01*
X160344500Y-83195889D01*
X160344500Y-85169110D01*
X160359925Y-85266504D01*
X160371598Y-85340201D01*
X160425127Y-85504945D01*
X160503768Y-85659288D01*
X160605586Y-85799428D01*
X160728072Y-85921914D01*
X160868212Y-86023732D01*
X161022555Y-86102373D01*
X161187299Y-86155902D01*
X161358389Y-86183000D01*
X161358390Y-86183000D01*
X161531610Y-86183000D01*
X161531611Y-86183000D01*
X161702701Y-86155902D01*
X161867445Y-86102373D01*
X162021788Y-86023732D01*
X162161928Y-85921914D01*
X162284414Y-85799428D01*
X162386232Y-85659288D01*
X162464873Y-85504945D01*
X162518402Y-85340201D01*
X162545500Y-85169111D01*
X162545500Y-83195889D01*
X162518402Y-83024799D01*
X162464873Y-82860055D01*
X162386232Y-82705712D01*
X162307188Y-82596917D01*
X164230000Y-82596917D01*
X164230000Y-83932500D01*
X164706518Y-83932500D01*
X164695889Y-83950909D01*
X164655000Y-84103509D01*
X164655000Y-84261491D01*
X164695889Y-84414091D01*
X164706518Y-84432500D01*
X164230000Y-84432500D01*
X164230000Y-85768082D01*
X164240620Y-85840982D01*
X164295587Y-85953418D01*
X164384081Y-86041912D01*
X164496517Y-86096879D01*
X164569418Y-86107500D01*
X165005000Y-86107500D01*
X165005000Y-84730982D01*
X165023409Y-84741611D01*
X165176009Y-84782500D01*
X165333991Y-84782500D01*
X165486591Y-84741611D01*
X165505000Y-84730982D01*
X165505000Y-86107500D01*
X165940582Y-86107500D01*
X166013482Y-86096879D01*
X166125918Y-86041912D01*
X166214412Y-85953418D01*
X166269379Y-85840982D01*
X166280000Y-85768082D01*
X166280000Y-84432500D01*
X165803482Y-84432500D01*
X165814111Y-84414091D01*
X165855000Y-84261491D01*
X165855000Y-84103509D01*
X165814111Y-83950909D01*
X165803482Y-83932500D01*
X166280000Y-83932500D01*
X166280000Y-82596917D01*
X166269379Y-82524017D01*
X166214412Y-82411581D01*
X166125918Y-82323087D01*
X166013482Y-82268120D01*
X165940582Y-82257500D01*
X165505000Y-82257500D01*
X165505000Y-83634017D01*
X165486591Y-83623389D01*
X165333991Y-83582500D01*
X165176009Y-83582500D01*
X165023409Y-83623389D01*
X165005000Y-83634017D01*
X165005000Y-82257500D01*
X164569418Y-82257500D01*
X164496517Y-82268120D01*
X164384081Y-82323087D01*
X164295587Y-82411581D01*
X164240620Y-82524017D01*
X164230000Y-82596917D01*
X162307188Y-82596917D01*
X162284414Y-82565572D01*
X162161928Y-82443086D01*
X162021788Y-82341268D01*
X161867445Y-82262627D01*
X161702701Y-82209098D01*
X161702699Y-82209097D01*
X161702698Y-82209097D01*
X161549624Y-82184853D01*
X161531611Y-82182000D01*
X161358389Y-82182000D01*
X161340376Y-82184853D01*
X161187302Y-82209097D01*
X161022552Y-82262628D01*
X160868211Y-82341268D01*
X160788256Y-82399359D01*
X160728072Y-82443086D01*
X160728070Y-82443088D01*
X160728069Y-82443088D01*
X160605588Y-82565569D01*
X160605588Y-82565570D01*
X160605586Y-82565572D01*
X160561859Y-82625756D01*
X160503768Y-82705711D01*
X160425128Y-82860052D01*
X160371597Y-83024802D01*
X160344500Y-83195889D01*
X158735500Y-83195889D01*
X158708402Y-83024799D01*
X158654873Y-82860055D01*
X158576232Y-82705712D01*
X158474414Y-82565572D01*
X158351928Y-82443086D01*
X158211788Y-82341268D01*
X158057445Y-82262627D01*
X157892701Y-82209098D01*
X157892699Y-82209097D01*
X157892698Y-82209097D01*
X157739624Y-82184853D01*
X157721611Y-82182000D01*
X157548389Y-82182000D01*
X157530376Y-82184853D01*
X157377302Y-82209097D01*
X157212552Y-82262628D01*
X157058211Y-82341268D01*
X156978256Y-82399359D01*
X156918072Y-82443086D01*
X156918070Y-82443088D01*
X156918069Y-82443088D01*
X156795588Y-82565569D01*
X156795588Y-82565570D01*
X156795586Y-82565572D01*
X156751859Y-82625756D01*
X156693768Y-82705711D01*
X156615128Y-82860052D01*
X156561597Y-83024802D01*
X156534500Y-83195889D01*
X149685000Y-83195889D01*
X149685000Y-82529417D01*
X149674379Y-82456517D01*
X149619412Y-82344081D01*
X149530918Y-82255587D01*
X149418482Y-82200620D01*
X149345582Y-82190000D01*
X148910000Y-82190000D01*
X148910000Y-83566517D01*
X148891591Y-83555889D01*
X148738991Y-83515000D01*
X148581009Y-83515000D01*
X148428409Y-83555889D01*
X148410000Y-83566517D01*
X148410000Y-82190000D01*
X147974418Y-82190000D01*
X147901517Y-82200620D01*
X147789081Y-82255587D01*
X147700587Y-82344081D01*
X147645620Y-82456517D01*
X147635000Y-82529417D01*
X145712188Y-82529417D01*
X145689414Y-82498072D01*
X145566928Y-82375586D01*
X145426788Y-82273768D01*
X145272445Y-82195127D01*
X145107701Y-82141598D01*
X145107699Y-82141597D01*
X145107698Y-82141597D01*
X144976271Y-82120781D01*
X144936611Y-82114500D01*
X144763389Y-82114500D01*
X144723728Y-82120781D01*
X144592302Y-82141597D01*
X144427552Y-82195128D01*
X144273211Y-82273768D01*
X144222861Y-82310350D01*
X144133072Y-82375586D01*
X144133070Y-82375588D01*
X144133069Y-82375588D01*
X144010588Y-82498069D01*
X144010588Y-82498070D01*
X144010586Y-82498072D01*
X143974458Y-82547798D01*
X143908768Y-82638211D01*
X143830128Y-82792552D01*
X143776597Y-82957302D01*
X143749500Y-83128389D01*
X142140500Y-83128389D01*
X142113402Y-82957299D01*
X142059873Y-82792555D01*
X141981232Y-82638212D01*
X141879414Y-82498072D01*
X141756928Y-82375586D01*
X141616788Y-82273768D01*
X141462445Y-82195127D01*
X141297701Y-82141598D01*
X141297699Y-82141597D01*
X141297698Y-82141597D01*
X141166271Y-82120781D01*
X141126611Y-82114500D01*
X140953389Y-82114500D01*
X140913728Y-82120781D01*
X140782302Y-82141597D01*
X140617552Y-82195128D01*
X140463211Y-82273768D01*
X140412861Y-82310350D01*
X140323072Y-82375586D01*
X140323070Y-82375588D01*
X140323069Y-82375588D01*
X140200588Y-82498069D01*
X140200588Y-82498070D01*
X140200586Y-82498072D01*
X140164458Y-82547798D01*
X140098768Y-82638211D01*
X140020128Y-82792552D01*
X139966597Y-82957302D01*
X139939500Y-83128389D01*
X138330500Y-83128389D01*
X138303402Y-82957299D01*
X138249873Y-82792555D01*
X138171232Y-82638212D01*
X138069414Y-82498072D01*
X137946928Y-82375586D01*
X137806788Y-82273768D01*
X137652445Y-82195127D01*
X137487701Y-82141598D01*
X137487699Y-82141597D01*
X137487698Y-82141597D01*
X137356271Y-82120781D01*
X137316611Y-82114500D01*
X137143389Y-82114500D01*
X137103728Y-82120781D01*
X136972302Y-82141597D01*
X136807552Y-82195128D01*
X136653211Y-82273768D01*
X136602861Y-82310350D01*
X136513072Y-82375586D01*
X136513070Y-82375588D01*
X136513069Y-82375588D01*
X136390588Y-82498069D01*
X136390588Y-82498070D01*
X136390586Y-82498072D01*
X136354458Y-82547798D01*
X136288768Y-82638211D01*
X136210128Y-82792552D01*
X136156597Y-82957302D01*
X136129500Y-83128389D01*
X129950500Y-83128389D01*
X129950500Y-82578230D01*
X129947646Y-82547800D01*
X129947646Y-82547798D01*
X129902793Y-82419619D01*
X129902792Y-82419617D01*
X129896861Y-82411581D01*
X129822150Y-82310350D01*
X129712882Y-82229707D01*
X129712880Y-82229706D01*
X129584700Y-82184853D01*
X129554270Y-82182000D01*
X129554266Y-82182000D01*
X128145734Y-82182000D01*
X128145730Y-82182000D01*
X128115300Y-82184853D01*
X128115298Y-82184853D01*
X127987119Y-82229706D01*
X127987117Y-82229707D01*
X127877850Y-82310350D01*
X127797207Y-82419617D01*
X127797206Y-82419619D01*
X127752353Y-82547798D01*
X127752353Y-82547800D01*
X127749500Y-82578230D01*
X125888611Y-82578230D01*
X125879414Y-82565572D01*
X125756928Y-82443086D01*
X125616788Y-82341268D01*
X125462445Y-82262627D01*
X125297701Y-82209098D01*
X125297699Y-82209097D01*
X125297698Y-82209097D01*
X125144624Y-82184853D01*
X125126611Y-82182000D01*
X124953389Y-82182000D01*
X124935376Y-82184853D01*
X124782302Y-82209097D01*
X124617552Y-82262628D01*
X124463211Y-82341268D01*
X124383256Y-82399359D01*
X124323072Y-82443086D01*
X124323070Y-82443088D01*
X124323069Y-82443088D01*
X124200588Y-82565569D01*
X124200588Y-82565570D01*
X124200586Y-82565572D01*
X124156859Y-82625756D01*
X124098768Y-82705711D01*
X124020128Y-82860052D01*
X123966597Y-83024802D01*
X123939500Y-83195889D01*
X117950500Y-83195889D01*
X117950500Y-82578230D01*
X117947646Y-82547800D01*
X117947646Y-82547798D01*
X117902793Y-82419619D01*
X117902792Y-82419617D01*
X117896861Y-82411581D01*
X117822150Y-82310350D01*
X117712882Y-82229707D01*
X117712880Y-82229706D01*
X117584700Y-82184853D01*
X117554270Y-82182000D01*
X117554266Y-82182000D01*
X116145734Y-82182000D01*
X116145730Y-82182000D01*
X116115300Y-82184853D01*
X116115298Y-82184853D01*
X115987119Y-82229706D01*
X115987117Y-82229707D01*
X115877850Y-82310350D01*
X115797207Y-82419617D01*
X115797206Y-82419619D01*
X115752353Y-82547798D01*
X115752353Y-82547800D01*
X115749500Y-82578230D01*
X113888611Y-82578230D01*
X113879414Y-82565572D01*
X113756928Y-82443086D01*
X113616788Y-82341268D01*
X113462445Y-82262627D01*
X113297701Y-82209098D01*
X113297699Y-82209097D01*
X113297698Y-82209097D01*
X113144624Y-82184853D01*
X113126611Y-82182000D01*
X112953389Y-82182000D01*
X112935376Y-82184853D01*
X112782302Y-82209097D01*
X112617552Y-82262628D01*
X112463211Y-82341268D01*
X112383256Y-82399359D01*
X112323072Y-82443086D01*
X112323070Y-82443088D01*
X112323069Y-82443088D01*
X112200588Y-82565569D01*
X112200588Y-82565570D01*
X112200586Y-82565572D01*
X112156859Y-82625756D01*
X112098768Y-82705711D01*
X112020128Y-82860052D01*
X111966597Y-83024802D01*
X111939500Y-83195889D01*
X108539211Y-83195889D01*
X108555373Y-82887500D01*
X108535896Y-82515862D01*
X108477680Y-82148296D01*
X108381361Y-81788829D01*
X108247995Y-81441400D01*
X108079043Y-81109814D01*
X107876357Y-80797704D01*
X107642157Y-80508491D01*
X107379009Y-80245343D01*
X107362482Y-80231960D01*
X107209857Y-80108366D01*
X107170146Y-80050879D01*
X107167818Y-79981048D01*
X107203614Y-79921044D01*
X107266167Y-79889918D01*
X107287893Y-79888000D01*
X170712107Y-79888000D01*
X170779146Y-79907685D01*
G37*
%TD.AperFunction*%
%TD*%
M02*
